<?xml version="1.0" encoding="UTF-8" standalone="no"?>
<svg width="31px" height="28px" viewBox="0 0 31 28" version="1.1" xmlns="http://www.w3.org/2000/svg" xmlns:xlink="http://www.w3.org/1999/xlink">
    <!-- Generator: Sketch 48.2 (47327) - http://www.bohemiancoding.com/sketch -->
    <title>LinkedIn-color</title>
    <desc>Created with Sketch.</desc>
    <defs></defs>
    <g id="homepage" stroke="none" stroke-width="1" fill="none" fill-rule="evenodd" transform="translate(-1179.000000, -7767.000000)">
        <g id="Group-14" transform="translate(229.000000, 7764.000000)" fill="#007EBB">
            <g id="Group-12" transform="translate(750.000000, 0.000000)">
                <path d="M231,31 L224.148577,31 L224.148577,21.1568803 C224.148577,18.5804572 223.076846,16.8216047 220.720132,16.8216047 C218.917509,16.8216047 217.91504,18.0085164 217.448436,19.152398 C217.27346,19.5629762 217.3008,20.1349171 217.3008,20.7068579 L217.3008,31 L210.51317,31 C210.51317,31 210.600659,13.5638727 210.51317,11.9789332 L217.3008,11.9789332 L217.3008,14.9641416 C217.701787,13.6588974 219.870767,11.7960556 223.33202,11.7960556 C227.626235,11.7960556 231,14.5320484 231,20.4235769 L231,31 L231,31 Z M203.648989,9.59973106 L203.605245,9.59973106 C201.418039,9.59973106 200,8.14567459 200,6.30255491 C200,4.42357687 201.45996,3 203.69091,3 C205.920038,3 207.290687,4.41999104 207.334431,6.29717615 C207.334431,8.14029583 205.920038,9.59973106 203.648989,9.59973106 L203.648989,9.59973106 L203.648989,9.59973106 Z M200.781926,11.9789332 L206.824083,11.9789332 L206.824083,31 L200.781926,31 L200.781926,11.9789332 L200.781926,11.9789332 Z" id="LinkedIn"></path>
            </g>
        </g>
    </g>
</svg>