<?xml version="1.0" encoding="UTF-8" standalone="no"?>
<svg width="34px" height="28px" viewBox="0 0 34 28" version="1.1" xmlns="http://www.w3.org/2000/svg" xmlns:xlink="http://www.w3.org/1999/xlink">
    <!-- Generator: Sketch 48.2 (47327) - http://www.bohemiancoding.com/sketch -->
    <title>Twitter-color</title>
    <desc>Created with Sketch.</desc>
    <defs></defs>
    <g id="homepage" stroke="none" stroke-width="1" fill="none" fill-rule="evenodd" transform="translate(-1029.000000, -7767.000000)">
        <g id="Group-14" transform="translate(229.000000, 7764.000000)" fill="#00AAEC">
            <g id="Group-12" transform="translate(750.000000, 0.000000)">
                <path d="M84,6.31469845 C82.750719,6.87692308 81.4056465,7.25713254 79.9947174,7.42701336 C81.4355814,6.55334056 82.5411751,5.16800289 83.0620414,3.51773203 C81.7129776,4.32668834 80.2222222,4.91520404 78.6296883,5.230697 C77.3604508,3.85749368 75.546399,3 73.5387686,3 C69.6891472,3 66.5659447,6.16504153 66.5659447,10.0682557 C66.5659447,10.6223908 66.6258144,11.1603467 66.7455538,11.6780787 C60.9481716,11.3828097 55.8093561,8.57168653 52.3668486,4.2902853 C51.766156,5.33788371 51.4229031,6.55334056 51.4229031,7.84767064 C51.4229031,10.2988082 52.6542232,12.4627663 54.526149,13.7308053 C53.3846334,13.6964247 52.3069789,13.3748646 51.3650291,12.849043 L51.3650291,12.9360058 C51.3650291,16.3619357 53.7697952,19.2195739 56.9628456,19.8667389 C56.3781182,20.0325749 55.7614604,20.115493 55.1248459,20.115493 C54.6758232,20.115493 54.2367788,20.0730228 53.8117039,19.9901047 C54.6997711,22.7971831 57.274168,24.8418202 60.3275225,24.8964247 C57.9407173,26.7934272 54.9312672,27.9239437 51.6643775,27.9239437 C51.1016024,27.9239437 50.5448142,27.8915854 50,27.8268689 C53.0872806,29.8290358 56.7552973,31 60.6927276,31 C73.524799,31 80.5395316,20.2307692 80.5395316,10.8893463 C80.5395316,10.5819429 80.5335446,10.2745395 80.5215707,9.97320332 C81.8846041,8.97616468 83.0680284,7.73239437 84,6.31469845" id="Twitter"></path>
            </g>
        </g>
    </g>
</svg>