<?xml version="1.0" encoding="UTF-8" standalone="no"?>
<svg width="34px" height="24px" viewBox="0 0 34 24" version="1.1" xmlns="http://www.w3.org/2000/svg" xmlns:xlink="http://www.w3.org/1999/xlink">
    <!-- Generator: Sketch 48.2 (47327) - http://www.bohemiancoding.com/sketch -->
    <title>Youtube-color</title>
    <desc>Created with Sketch.</desc>
    <defs></defs>
    <g id="homepage" stroke="none" stroke-width="1" fill="none" fill-rule="evenodd" transform="translate(-1129.000000, -7769.000000)">
        <g id="Group-14" transform="translate(229.000000, 7764.000000)" fill="#CE1312">
            <g id="Group-12" transform="translate(750.000000, 0.000000)">
                <path d="M163.4895,21.4258231 L163.488438,11.8384058 L172.674813,16.6486426 L163.4895,21.4258231 Z M183.66,10.177056 C183.66,10.177056 183.327438,7.82578753 182.3085,6.79037633 C181.015437,5.43079931 179.566188,5.4244013 178.902125,5.34549251 C174.14425,5 167.007438,5 167.007438,5 L166.992562,5 C166.992562,5 159.85575,5 155.097875,5.34549251 C154.43275,5.4244013 152.984563,5.43079931 151.690438,6.79037633 C150.6715,7.82578753 150.34,10.177056 150.34,10.177056 C150.34,10.177056 150,12.9388635 150,15.6996046 L150,18.2886657 C150,21.0504732 150.34,23.8112143 150.34,23.8112143 C150.34,23.8112143 150.6715,26.1624828 151.690438,27.197894 C152.984563,28.557471 154.6835,28.5148176 155.44,28.6566402 C158.16,28.9189585 167,29 167,29 C167,29 174.14425,28.9893367 178.902125,28.6438441 C179.566188,28.563869 181.015437,28.557471 182.3085,27.197894 C183.327438,26.1624828 183.66,23.8112143 183.66,23.8112143 C183.66,23.8112143 184,21.0504732 184,18.2886657 L184,15.6996046 C184,12.9388635 183.66,10.177056 183.66,10.177056 L183.66,10.177056 Z" id="Youtube"></path>
            </g>
        </g>
    </g>
</svg>