<?xml version="1.0" encoding="UTF-8" standalone="no"?>
<svg width="58px" height="60px" viewBox="0 0 58 60" version="1.1" xmlns="http://www.w3.org/2000/svg" xmlns:xlink="http://www.w3.org/1999/xlink">
    <!-- Generator: sketchtool 49.1 (51147) - http://www.bohemiancoding.com/sketch -->
    <title>5EB464C0-4794-4F0B-9414-86102F367CE9</title>
    <desc>Created with sketchtool.</desc>
    <defs></defs>
    <g id="Page-1" stroke="none" stroke-width="1" fill="none" fill-rule="evenodd" stroke-linecap="round" stroke-linejoin="round">
        <g id="homepage@2x" transform="translate(-693.000000, -1988.000000)" stroke="#505070" stroke-width="2">
            <g id="setps" transform="translate(232.000000, 1985.000000)">
                <g id="artwork-icon" transform="translate(462.000000, 4.000000)">
                    <g id="Group-5">
                        <polygon id="Stroke-1" points="0 8 56 8 56 0 0 0"></polygon>
                        <polygon id="Stroke-3" points="0 34 16 34 16 12 0 12"></polygon>
                        <path d="M16,28 L0,28" id="Stroke-4"></path>
                    </g>
                    <polygon id="Stroke-9" points="20 58 36 58 36 36 20 36"></polygon>
                    <path d="M36,52 L20,52" id="Stroke-11"></path>
                    <path d="M56,28 L40,28" id="Stroke-15"></path>
                    <polygon id="Stroke-20" points="20 24 36 24 36 12 20 12"></polygon>
                    <path d="M24,28 L32,28" id="Stroke-21"></path>
                    <path d="M20,32 L36,32" id="Stroke-22"></path>
                    <path d="M4,4 L12,4" id="Stroke-23"></path>
                    <path d="M32,4 L34,4" id="Stroke-24"></path>
                    <path d="M26,4 L28,4" id="Stroke-25"></path>
                    <path d="M38,4 L40,4" id="Stroke-26"></path>
                    <path d="M44,4 L46,4" id="Stroke-27"></path>
                    <path d="M50,4 L52,4" id="Stroke-28"></path>
                    <path d="M4,54 L12,54" id="Stroke-29"></path>
                    <path d="M0,58 L16,58" id="Stroke-30"></path>
                    <path d="M44,54 L52,54" id="Stroke-32"></path>
                    <path d="M40,58 L56,58" id="Stroke-33"></path>
                    <path d="M36,24 L20,12" id="Stroke-35"></path>
                    <path d="M36,12 L20,24" id="Stroke-36"></path>
                    <g id="Group-45" transform="translate(0.000000, 12.000000)">
                        <polygon id="Stroke-37" points="0 38 16 38 16 26 0 26"></polygon>
                        <path d="M16,38 L0,26" id="Stroke-39"></path>
                        <path d="M16,26 L0,38" id="Stroke-40"></path>
                        <polygon id="Stroke-41" points="40 38 56 38 56 26 40 26"></polygon>
                        <path d="M56,38 L40,26" id="Stroke-42"></path>
                        <path d="M56,26 L40,38" id="Stroke-43"></path>
                        <polygon id="Stroke-44" points="40 22 56 22 56 0 40 0"></polygon>
                    </g>
                </g>
            </g>
        </g>
    </g>
</svg>