<?xml version="1.0" encoding="UTF-8" standalone="no"?>
<svg width="64px" height="64px" viewBox="0 0 64 64" version="1.1" xmlns="http://www.w3.org/2000/svg" xmlns:xlink="http://www.w3.org/1999/xlink">
    <!-- Generator: sketchtool 49.1 (51147) - http://www.bohemiancoding.com/sketch -->
    <title>06444201-D551-4726-819F-A5598E0F050D</title>
    <desc>Created with sketchtool.</desc>
    <defs></defs>
    <g id="Page-1" stroke="none" stroke-width="1" fill="none" fill-rule="evenodd" stroke-linejoin="round">
        <g id="homepage@2x" transform="translate(-575.000000, -3565.000000)" stroke="#505070">
            <g id="new-rules-new-tools" transform="translate(241.000000, 3108.000000)">
                <g id="features" transform="translate(0.000000, 217.000000)">
                    <g id="feature" transform="translate(335.000000, 241.000000)">
                        <g id="bulk-icon" transform="translate(0.000000, 0.000000)">
                            <polygon id="Stroke-1" stroke-width="2" stroke-linecap="round" points="0 46 46 46 46 0 0 0"></polygon>
                            <polyline id="Stroke-3" stroke-width="2" points="8 49 8 54 54 54 54 8 49 8"></polyline>
                            <polyline id="Stroke-3" stroke-width="2" points="16 57 16 62 62 62 62 16 57 16"></polyline>
                            <path d="M17.9072612,31.0905183 C18.3474249,32.6687111 17.1785135,34.3560153 15.296158,34.8580703 C13.4145313,35.3601253 11.5321758,34.4879474 11.0927409,32.9090414 C10.6525772,31.3308487 11.8214886,29.6442576 13.7031154,29.1422026 C15.5847421,28.6394345 17.4670976,29.5123256 17.9072612,31.0905183 Z" id="Stroke-4" stroke-width="1.39999998" stroke-linecap="round"></path>
                            <path d="M31.8443143,27.840501 C32.4125765,29.3681403 31.3765063,31.1257393 29.529471,31.7660884 C27.6824358,32.4064375 25.724681,31.6868408 25.1556857,30.1592014 C24.5874235,28.631562 25.6234937,26.873963 27.470529,26.233614 C29.3175642,25.5939725 31.275319,26.3128616 31.8443143,27.840501 Z" id="Stroke-5" stroke-width="1.39999998" stroke-linecap="round"></path>
                            <path d="M18,32 L18,18" id="Stroke-6" stroke-width="1.39999998" stroke-linecap="round"></path>
                            <path d="M32,29 L32,14" id="Stroke-7" stroke-width="1.39999998" stroke-linecap="round"></path>
                            <polygon id="Stroke-8" stroke-width="1.39999998" stroke-linecap="round" points="32 16.2102022 18 20 18 14.7891136 32 11"></polygon>
                        </g>
                    </g>
                </g>
            </g>
        </g>
    </g>
</svg>