<?xml version="1.0" encoding="UTF-8" standalone="no"?>
<svg width="60px" height="58px" viewBox="0 0 60 58" version="1.1" xmlns="http://www.w3.org/2000/svg" xmlns:xlink="http://www.w3.org/1999/xlink">
    <!-- Generator: sketchtool 49.1 (51147) - http://www.bohemiancoding.com/sketch -->
    <title>4A3CCD4F-48FD-4A7F-AB74-49E35C59C61D</title>
    <desc>Created with sketchtool.</desc>
    <defs>
        <polygon id="path-1" points="0 58 60 58 60 0 0 0"></polygon>
    </defs>
    <g id="Page-1" stroke="none" stroke-width="1" fill="none" fill-rule="evenodd">
        <g id="homepage@2x" transform="translate(-241.000000, -3325.000000)">
            <g id="new-rules-new-tools" transform="translate(241.000000, 3108.000000)">
                <g id="features" transform="translate(0.000000, 217.000000)">
                    <g id="feature">
                        <g id="dashboard-icon">
                            <path d="M59.0001,51 L59.0001,55 C59.0001,56.104 58.1041,57 57.0001,57 L3.0001,57 C1.8961,57 1.0001,56.104 1.0001,55 L1.0001,51" id="Stroke-1" stroke="#505070" stroke-width="2" stroke-linecap="round" stroke-linejoin="round"></path>
                            <path d="M55.0001,51 L55.0001,17 C55.0001,15.896 54.1041,15 53.0001,15 L47.0001,15" id="Stroke-3" stroke="#505070" stroke-width="2" stroke-linecap="round" stroke-linejoin="round"></path>
                            <path d="M13.0001,15 L7.0001,15 C5.8961,15 5.0001,15.896 5.0001,17 L5.0001,51" id="Stroke-5" stroke="#505070" stroke-width="2" stroke-linecap="round" stroke-linejoin="round"></path>
                            <polyline id="Stroke-7" stroke="#505070" stroke-width="2" stroke-linecap="round" stroke-linejoin="round" points="13.0001 19 9.0001 19 9.0001 47 13.0001 47"></polyline>
                            <polyline id="Stroke-9" stroke="#505070" stroke-width="2" stroke-linecap="round" stroke-linejoin="round" points="47.0001 47 51.0001 47 51.0001 19 47.0001 19"></polyline>
                            <path d="M47.0001,47 L13.0001,47 L13.0001,3 C13.0001,1.896 13.8961,1 15.0001,1 L45.0001,1 C46.1041,1 47.0001,1.896 47.0001,3 L47.0001,47 Z" id="Stroke-11" stroke="#505070" stroke-width="2" stroke-linecap="round" stroke-linejoin="round"></path>
                            <mask id="mask-2" fill="white">
                                <use xlink:href="#path-1"></use>
                            </mask>
                            <g id="Clip-14"></g>
                            <polygon id="Stroke-15" stroke="#505070" stroke-width="2" stroke-linecap="round" stroke-linejoin="round" mask="url(#mask-2)" points="17 36 23 36 23 30 17 30"></polygon>
                            <polygon id="Stroke-15-Copy" stroke="#505070" stroke-width="2" stroke-linecap="round" stroke-linejoin="round" mask="url(#mask-2)" points="17 19 23 19 23 13 17 13"></polygon>
                            <polygon id="Stroke-16" stroke="#505070" stroke-width="2" stroke-linecap="round" stroke-linejoin="round" mask="url(#mask-2)" points="27 36 33 36 33 30 27 30"></polygon>
                            <polygon id="Stroke-16-Copy" stroke="#505070" stroke-width="2" stroke-linecap="round" stroke-linejoin="round" mask="url(#mask-2)" points="27 19 33 19 33 13 27 13"></polygon>
                            <polygon id="Stroke-17" stroke="#505070" stroke-width="2" stroke-linecap="round" stroke-linejoin="round" mask="url(#mask-2)" points="37 36 43 36 43 30 37 30"></polygon>
                            <polygon id="Stroke-17-Copy" stroke="#505070" stroke-width="2" stroke-linecap="round" stroke-linejoin="round" mask="url(#mask-2)" points="37 19 43 19 43 13 37 13"></polygon>
                            <path d="M13.0001,7 L47.0001,7" id="Stroke-18" stroke="#505070" stroke-width="2" stroke-linecap="round" stroke-linejoin="round" mask="url(#mask-2)"></path>
                            <path d="M25.0001,4 L44.0001,4" id="Stroke-19" stroke="#505070" stroke-width="2" stroke-linecap="round" stroke-linejoin="round" mask="url(#mask-2)"></path>
                            <path d="M37,40 L43,40" id="Stroke-20" stroke="#505070" stroke-width="2" stroke-linecap="round" stroke-linejoin="round" mask="url(#mask-2)"></path>
                            <path d="M37,23 L43,23" id="Stroke-20-Copy" stroke="#505070" stroke-width="2" stroke-linecap="round" stroke-linejoin="round" mask="url(#mask-2)"></path>
                            <path d="M27,40 L33,40" id="Stroke-21" stroke="#505070" stroke-width="2" stroke-linecap="round" stroke-linejoin="round" mask="url(#mask-2)"></path>
                            <path d="M27,23 L33,23" id="Stroke-21-Copy" stroke="#505070" stroke-width="2" stroke-linecap="round" stroke-linejoin="round" mask="url(#mask-2)"></path>
                            <path d="M17,40 L23,40" id="Stroke-22" stroke="#505070" stroke-width="2" stroke-linecap="round" stroke-linejoin="round" mask="url(#mask-2)"></path>
                            <path d="M17,23 L23,23" id="Stroke-22-Copy" stroke="#505070" stroke-width="2" stroke-linecap="round" stroke-linejoin="round" mask="url(#mask-2)"></path>
                            <polyline id="Stroke-32" stroke="#505070" stroke-width="2" stroke-linecap="round" stroke-linejoin="round" mask="url(#mask-2)" points="59.0001 51 37.0001 51 37.0001 53 23.0001 53 23.0001 51 1.0001 51"></polyline>
                        </g>
                    </g>
                </g>
            </g>
        </g>
    </g>
</svg>