<?xml version="1.0" encoding="UTF-8" standalone="no"?>
<svg width="60px" height="61px" viewBox="0 0 60 61" version="1.1" xmlns="http://www.w3.org/2000/svg" xmlns:xlink="http://www.w3.org/1999/xlink">
    <!-- Generator: sketchtool 49.1 (51147) - http://www.bohemiancoding.com/sketch -->
    <title>790D409B-C451-4DB9-8BD1-03856889E5F1</title>
    <desc>Created with sketchtool.</desc>
    <defs></defs>
    <g id="Page-1" stroke="none" stroke-width="1" fill="none" fill-rule="evenodd" stroke-linecap="round" stroke-linejoin="round">
        <g id="homepage@2x" transform="translate(-357.000000, -1077.000000)" stroke="#0EBAED" stroke-width="2">
            <g id="value-props" transform="translate(230.000000, 1078.000000)">
                <g id="distribute-icon" transform="translate(128.000000, 0.000000)">
                    <path d="M58,52.0197 L58,56.0197 C58,57.1237 57.104,58.0197 56,58.0197 L2,58.0197 C0.896,58.0197 0,57.1237 0,56.0197 L0,52.0197" id="Stroke-1"></path>
                    <path d="M54,52.0197 L54,18.0197 C54,16.9157 53.104,16.0197 52,16.0197 L39.662,16.0197" id="Stroke-3"></path>
                    <path d="M18.3379,16.0197 L5.9999,16.0197 C4.8959,16.0197 3.9999,16.9157 3.9999,18.0197 L3.9999,52.0197" id="Stroke-5"></path>
                    <polyline id="Stroke-7" points="16.2627 20.0197 7.9997 20.0197 7.9997 48.0197 49.9997 48.0197 49.9997 20.0197 41.7377 20.0197"></polyline>
                    <polyline id="Stroke-9" points="58 52.0197 36 52.0197 36 54.0197 22 54.0197 22 52.0197 0 52.0197"></polyline>
                    <path d="M22.9219,24.8732 C22.8879,24.7872 22.8639,24.7002 22.8639,24.6112 L22.5719,19.7982 C20.0939,20.8712 18.4499,22.7522 18.2919,24.8762 L18.0009,28.7872 C17.9509,29.4582 19.2419,29.7042 19.6619,29.1022 C20.6859,27.6322 21.8759,26.2832 23.2879,25.4162 C23.1049,25.2452 22.9819,25.0632 22.9219,24.8732 Z" id="Stroke-11"></path>
                    <path d="M39.708,24.8762 C39.55,22.7522 37.906,20.8712 35.428,19.7982 L35.136,24.6112 C35.136,24.7002 35.112,24.7872 35.078,24.8732 C35.019,25.0632 34.896,25.2452 34.711,25.4162 C36.123,26.2832 37.313,27.6322 38.338,29.1022 C38.758,29.7042 40.049,29.4582 39.998,28.7872 L39.708,24.8762 Z" id="Stroke-13"></path>
                    <path d="M29,19.4445 C28.089,19.4445 27.35,19.9415 27.35,20.5555 L27.35,28.3335 C27.35,28.9465 28.089,29.4445 29,29.4445 C29.911,29.4445 30.649,28.9465 30.649,28.3335 L30.649,20.5555 C30.649,19.9415 29.911,19.4445 29,19.4445 Z" id="Stroke-15"></path>
                    <path d="M35.4902,11.1691 C34.8262,6.7141 32.4962,2.7041 29.0002,0.0001 C25.5042,2.7041 23.1742,6.7141 22.5092,11.1691 C22.2922,12.6261 22.2272,14.1021 22.3162,15.5731 L22.8642,24.6111 C22.8642,25.6141 24.6182,26.4531 27.3492,26.6661 L27.3492,20.5561 C27.3492,19.9411 28.3252,19.4441 29.0002,19.4441 C29.6752,19.4441 30.6492,19.9411 30.6492,20.5561 L30.6492,26.6661 C33.3812,26.4531 35.1362,25.6141 35.1362,24.6111 L35.6832,15.5731 C35.7722,14.1021 35.7082,12.6261 35.4902,11.1691 Z" id="Stroke-17"></path>
                    <path d="M22.6084,20.3683 C22.6084,21.3793 24.4794,22.2223 27.3494,22.4293" id="Stroke-19"></path>
                    <path d="M30.6494,22.4289 C33.5204,22.2219 35.3914,21.3789 35.3914,20.3679" id="Stroke-21"></path>
                    <path d="M29,5.6252 C30.585,5.6252 31.971,5.2092 32.728,4.5902 C31.749,2.8322 30.493,1.2712 29,0.0002 C27.507,1.2712 26.251,2.8322 25.272,4.5902 C26.029,5.2092 27.415,5.6252 29,5.6252 Z" id="Stroke-23"></path>
                    <path d="M25.0811,30.0197 C24.7481,32.3037 25.4581,34.6307 26.9121,36.0217 L29.0001,38.0197 L31.0881,36.0217 C32.5411,34.6307 33.2521,32.3037 32.9191,30.0197" id="Stroke-25"></path>
                    <path d="M30.4141,9.6056 C31.1951,10.3856 31.1951,11.6526 30.4141,12.4336 C29.6331,13.2146 28.3661,13.2146 27.5861,12.4336 C26.8051,11.6526 26.8051,10.3856 27.5861,9.6056 C28.3661,8.8246 29.6331,8.8246 30.4141,9.6056 Z" id="Stroke-27"></path>
                    <path d="M35.6504,39.0763 C35.3414,38.9653 35.0094,38.9013 34.6614,38.9013 C34.3224,38.9013 33.9984,38.9623 33.6964,39.0683" id="Stroke-29"></path>
                    <path d="M42.6445,44.6076 C44.4985,44.6076 45.9995,43.1326 45.9995,41.3136 C45.9995,39.9626 45.1715,38.8036 43.9875,38.2956 C44.3465,37.8246 44.5625,37.2416 44.5625,36.6076 C44.5625,35.0476 43.2745,33.7846 41.6865,33.7846 C40.7335,33.7846 39.8915,34.2406 39.3685,34.9406" id="Stroke-31"></path>
                    <path d="M13.6514,38.7619 C12.6764,39.2139 12.0004,40.1849 12.0004,41.3139 C12.0004,43.5489 14.3964,44.1369 14.3964,44.1369" id="Stroke-33"></path>
                    <path d="M35.7803,39.1232 C36.8133,39.5522 37.5373,40.5562 37.5373,41.7262" id="Stroke-35"></path>
                    <path d="M42.0039,38.0793 C43.0619,37.8793 44.1979,38.1803 45.0179,38.9843" id="Stroke-37"></path>
                    <path d="M23.9414,40.9767 C24.0414,40.4997 24.3884,40.0897 24.8904,39.9317 C25.3774,39.7787 25.8874,39.8977 26.2554,40.2027" id="Stroke-39"></path>
                    <path d="M20.6836,42.6281 C19.9766,42.7631 19.2146,42.5611 18.6666,42.0231 C18.1186,41.4831 17.9126,40.7361 18.0496,40.0421" id="Stroke-41"></path>
                    <path d="M13.1328,39.0724 C12.9798,38.8004 12.8928,38.4904 12.8928,38.1624 C12.8928,37.3434 13.4358,36.6384 14.2108,36.3304 C13.9758,36.0444 13.8348,35.6894 13.8348,35.3044 C13.8348,34.3584 14.6788,33.5914 15.7188,33.5914 C16.3428,33.5914 16.8948,33.8684 17.2368,34.2934 C17.6488,33.5394 18.4998,33.0194 19.4868,33.0194 C20.8748,33.0194 21.9998,34.0434 21.9998,35.3044 C21.9998,35.7184 21.8778,36.1054 21.6668,36.4394" id="Stroke-43"></path>
                    <path d="M20.9258,37.1799 C21.2338,36.9849 21.4858,36.7309 21.6678,36.4409" id="Stroke-45"></path>
                    <path d="M15.5107,36.1994 C14.8187,36.0774 14.0737,36.2604 13.5357,36.7484" id="Stroke-47"></path>
                    <path d="M36.1436,34.0158 C37.2046,33.6638 38.6026,34.0568 39.3686,34.9408" id="Stroke-49"></path>
                </g>
            </g>
        </g>
    </g>
</svg>