<svg width="642" height="363" viewBox="0 0 642 363" version="1.1" xmlns="http://www.w3.org/2000/svg" xmlns:xlink="http://www.w3.org/1999/xlink">
<title>easy-to-publish</title>
<desc>Created using Figma</desc>
<g id="Canvas" transform="translate(-1720 -2946)">
<g id="easy-to-publish">
<g id="Group 15">
<g id="Fill 73">
<use xlink:href="#path0_fill" transform="translate(1813.75 3289.31)" fill="#FFFFFE"/>
</g>
<g id="Fill 21">
<use xlink:href="#path1_fill" transform="translate(1869.53 2966.39)" fill="#0EBAED"/>
</g>
<g id="Fill 22">
<use xlink:href="#path2_fill" transform="translate(1877.22 2958.68)" fill="#0EBAED"/>
</g>
<g id="Fill 23">
<use xlink:href="#path3_fill" transform="translate(2340.77 3075.57)" fill="#0EBAED"/>
</g>
<g id="Fill 24">
<use xlink:href="#path4_fill" transform="translate(2348.47 3067.86)" fill="#0EBAED"/>
</g>
<g id="Fill 25">
<use xlink:href="#path5_fill" transform="translate(2095.39 2994.78)" fill="#0EBAED"/>
</g>
<g id="Fill 26">
<use xlink:href="#path6_fill" transform="translate(2095.39 2994.78)" fill="#0EBAED"/>
</g>
<g id="Fill 27">
<use xlink:href="#path7_fill" transform="translate(1720.33 3095.1)" fill="#0EBAED"/>
</g>
<g id="Fill 28">
<use xlink:href="#path8_fill" transform="translate(1720.33 3095.1)" fill="#0EBAED"/>
</g>
<g id="Fill 29">
<use xlink:href="#path9_fill" transform="translate(1940.45 3000.23)" fill="#0EBAED"/>
</g>
<g id="Fill 30">
<use xlink:href="#path9_fill" transform="translate(1744.92 3100.64)" fill="#0EBAED"/>
</g>
<g id="Combined Shape">
<use xlink:href="#path10_fill" transform="translate(1898.46 2966.39)" fill="#0EBAED"/>
</g>
<g id="Fill 33">
<use xlink:href="#path11_fill" transform="translate(2270.18 3075.57)" fill="#0EBAED"/>
</g>
<g id="Fill 35">
<use xlink:href="#path12_fill" transform="translate(1818.16 3144.84)" fill="#0EBAED"/>
</g>
<g id="Fill 36">
<use xlink:href="#path12_fill" transform="translate(1804.96 2955.76)" fill="#0EBAED"/>
</g>
<g id="Fill 37">
<use xlink:href="#path13_fill" transform="translate(2196.03 2946.65)" fill="#0EBAED"/>
</g>
<g id="Fill 38">
<use xlink:href="#path12_fill" transform="translate(2311.96 3226.25)" fill="#0EBAED"/>
</g>
<g id="Fill 39">
<use xlink:href="#path14_fill" transform="translate(2238.22 3029.94)" fill="#0EBAED"/>
</g>
<g id="Fill 40">
<use xlink:href="#path15_fill" transform="translate(2068.45 2954.91)" fill="#0EBAED"/>
</g>
<g id="Fill 41">
<use xlink:href="#path16_fill" transform="translate(1831.53 3073.05)" fill="#0EBAED"/>
</g>
<g id="Fill 42">
<use xlink:href="#path17_fill" transform="translate(1918.56 3040.54)" fill="#86DCF6"/>
</g>
<g id="Fill 46">
<use xlink:href="#path18_fill" transform="translate(1935.05 3058.26)" fill="#FFFFFE"/>
</g>
<g id="Fill 47">
<use xlink:href="#path19_fill" transform="translate(2024.7 3249.23)" fill="#FFFFFE"/>
</g>
<g id="Fill 49">
<use xlink:href="#path20_fill" transform="translate(2022.01 3246.52)" fill="#0EBAED"/>
</g>
<g id="Fill 48">
<use xlink:href="#path21_fill" transform="translate(2022.31 3249.23)" fill="#86DCF6"/>
</g>
<g id="Fill 50">
<use xlink:href="#path22_fill" transform="translate(1918.56 3215.11)" fill="#FFFFFE"/>
</g>
<g id="Fill 51">
<use xlink:href="#path23_fill" transform="translate(2082.72 3253.55)" fill="#0EBAED"/>
</g>
<g id="Fill 52">
<use xlink:href="#path24_fill" transform="translate(2083.2 3212.4)" fill="#0EBAED"/>
</g>
<g id="Fill 53">
<use xlink:href="#path25_fill" transform="translate(2006.91 3301.87)" fill="#3378B0"/>
</g>
<g id="Fill 54">
<use xlink:href="#path26_fill" transform="translate(1954.26 3079.73)" fill="#C3EEFA"/>
</g>
<g id="Fill 55">
<use xlink:href="#path27_fill" transform="translate(1951.56 3077.02)" fill="#0EBAED"/>
</g>
<g id="Fill 56">
<use xlink:href="#path28_fill" transform="translate(1995.9 3096.31)" fill="#4BCCF2"/>
</g>
<g id="Fill 57">
<use xlink:href="#path29_fill" transform="translate(1993.2 3093.6)" fill="#0EBAED"/>
</g>
<g id="Fill 59">
<use xlink:href="#path30_fill" transform="translate(2142.53 3087.94)" fill="#0EBAED"/>
</g>
<g id="Fill 60">
<use xlink:href="#path31_fill" transform="translate(2142.53 3105.36)" fill="#0EBAED"/>
</g>
<g id="Fill 61">
<use xlink:href="#path30_fill" transform="translate(2142.53 3139.48)" fill="#0EBAED"/>
</g>
<g id="Fill 62">
<use xlink:href="#path31_fill" transform="translate(2142.53 3156.91)" fill="#0EBAED"/>
</g>
<g id="Fill 63">
<use xlink:href="#path30_fill" transform="translate(2142.53 3191.02)" fill="#0EBAED"/>
</g>
<g id="Fill 64">
<use xlink:href="#path32_fill" transform="translate(1950.56 3183.02)" fill="#0EBAED"/>
</g>
<g id="Fill 65">
<use xlink:href="#path33_fill" transform="translate(2097.25 3080.07)" fill="#4BCCF2"/>
</g>
<g id="Fill 66">
<use xlink:href="#path34_fill" transform="translate(2097.25 3131.85)" fill="#4BCCF2"/>
</g>
<g id="Fill 67">
<use xlink:href="#path35_fill" transform="translate(2097.25 3183.64)" fill="#4BCCF2"/>
</g>
<g id="Fill 68">
<use xlink:href="#path36_fill" transform="translate(1822.56 3164.13)" fill="#86DCF6"/>
</g>
<g id="Fill 72">
<use xlink:href="#path37_fill" transform="translate(1831.53 3174.6)" fill="#FFFFFE"/>
</g>
<g id="Fill 98">
<use xlink:href="#path38_fill" transform="translate(1952.22 3210.74)" fill="#FFFFFE"/>
</g>
<g id="Combined Shape">
<use xlink:href="#path39_fill" transform="translate(1819.86 3037.84)" fill="#0EBAED"/>
<mask id="mask0_outline_out">
<rect id="mask0_outline_inv" fill="white" x="-1" y="-1" width="408" height="272" transform="translate(1819.86 3037.84)"/>
<use xlink:href="#path39_fill" fill="black" transform="translate(1819.86 3037.84)"/>
</mask>
<g mask="url(#mask0_outline_out)">
<use xlink:href="#path40_stroke_2x" transform="translate(1819.86 3037.84)" fill="#0EBAED"/>
</g>
</g>
<g id="Fill 74">
<use xlink:href="#path41_fill" transform="translate(1810.58 3286.6)" fill="#0EBAED"/>
</g>
<g id="Fill 75">
<use xlink:href="#path42_fill" transform="translate(1902.02 3211.91)" fill="#4BCCF2"/>
</g>
<g id="Fill 76">
<use xlink:href="#path43_fill" transform="translate(1899.33 3209.2)" fill="#0EBAED"/>
</g>
<g id="Fill 77">
<use xlink:href="#path44_fill" transform="translate(2159.94 3151.83)" fill="#86DCF6"/>
</g>
<g id="Fill 78">
<use xlink:href="#path45_fill" transform="translate(2212.19 3133.23)" fill="#86DCF6"/>
</g>
<g id="Fill 79">
<use xlink:href="#path46_fill" transform="translate(2220.07 3163.68)" fill="#FFFFFE"/>
</g>
<g id="Fill 80">
<use xlink:href="#path47_fill" transform="translate(2246.82 3147.07)" fill="#FFFFFE"/>
</g>
<g id="Fill 81">
<use xlink:href="#path48_fill" transform="translate(2157.24 3149.12)" fill="#0EBAED"/>
<use xlink:href="#path49_stroke" transform="translate(2157.24 3149.12)" fill="#0EBAED"/>
</g>
<g id="Fill 82">
<use xlink:href="#path50_fill" transform="translate(2209.5 3130.53)" fill="#0EBAED"/>
<use xlink:href="#path51_stroke" transform="translate(2209.5 3130.53)" fill="#0EBAED"/>
</g>
<g id="Fill 83">
<use xlink:href="#path52_fill" transform="translate(2244.12 3144.37)" fill="#0EBAED"/>
<use xlink:href="#path53_stroke" transform="translate(2244.12 3144.37)" fill="#0EBAED"/>
</g>
<g id="Fill 84">
<use xlink:href="#path54_fill" transform="translate(2169.83 3165.13)" fill="#C3EEFA"/>
</g>
<g id="Fill 85">
<use xlink:href="#path54_fill" transform="translate(2169.83 3181.73)" fill="#C3EEFA"/>
</g>
<g id="Fill 86">
<use xlink:href="#path54_fill" transform="translate(2169.83 3198.34)" fill="#C3EEFA"/>
</g>
<g id="Fill 87">
<use xlink:href="#path54_fill" transform="translate(2169.83 3214.95)" fill="#C3EEFA"/>
</g>
<g id="Fill 88">
<use xlink:href="#path55_fill" transform="translate(2169.83 3231.56)" fill="#C3EEFA"/>
</g>
<g id="Fill 89">
<use xlink:href="#path54_fill" transform="translate(2169.83 3248.17)" fill="#3378B0"/>
</g>
<g id="Fill 90">
<use xlink:href="#path54_fill" transform="translate(2169.83 3264.78)" fill="#3378B0"/>
</g>
<g id="Fill 91">
<use xlink:href="#path56_fill" transform="translate(2251.93 3159.53)" fill="#86DCF6"/>
</g>
<g id="Fill 92">
<use xlink:href="#path57_fill" transform="translate(2251.93 3242.57)" fill="#62A6CF"/>
</g>
<g id="Fill 93">
<use xlink:href="#path58_fill" transform="translate(2131.64 3219.45)" fill="#86DCF6"/>
</g>
<g id="Fill 94">
<use xlink:href="#path59_fill" transform="translate(2134.05 3229.54)" fill="#FFFFFE"/>
</g>
<g id="Fill 95">
<use xlink:href="#path60_fill" transform="translate(2202.09 3230.91)" fill="#0EBAED"/>
</g>
<g id="Fill 96">
<use xlink:href="#path61_fill" transform="translate(2179.73 3241.53)" fill="#0EBAED"/>
</g>
<g id="Fill 97">
<use xlink:href="#path62_fill" transform="translate(2128.94 3216.75)" fill="#0EBAED"/>
<use xlink:href="#path63_stroke" transform="translate(2128.94 3216.75)" fill="#0EBAED"/>
</g>
<g id="Fill 101">
<use xlink:href="#path64_fill" transform="translate(1959.63 3245.61)" fill="#0EBAED"/>
</g>
<g id="Fill 102">
<use xlink:href="#path65_fill" transform="translate(1969.06 3218.76)" fill="#86DCF6"/>
</g>
<g id="Fill 103">
<use xlink:href="#path66_fill" transform="translate(2064.18 3251.57)" fill="#0EBAED"/>
</g>
<g id="Fill 104">
<use xlink:href="#path67_fill" transform="translate(2003.48 3234.08)" fill="#4BCCF2"/>
</g>
<g id="Fill 105">
<use xlink:href="#path68_fill" transform="translate(2000.78 3231.36)" fill="#0EBAED"/>
</g>
<g id="Fill 106">
<use xlink:href="#path69_fill" transform="translate(1980.77 3278.87)" fill="#0EBAED"/>
</g>
<g id="Fill 107">
<use xlink:href="#path70_fill" transform="translate(1994.31 3275.78)" fill="#0EBAED"/>
</g>
<g id="Fill 110">
<use xlink:href="#path71_fill" transform="translate(1756.06 3301.87)" fill="#0EBAED"/>
</g>
</g>
</g>
</g>
<defs>
<path id="path0_fill" fill-rule="evenodd" d="M 190.185 15.2724L 9.99817 15.2724C 5.67367 15.2724 1.98236 12.1299 1.2844 7.85089L 0 0L 83.5112 0L 86.7096 4.60013L 109.786 4.60013L 113.239 0L 201.215 0L 200.1 6.82624C 199.301 11.697 195.106 15.2724 190.185 15.2724Z"/>
<path id="path1_fill" fill-rule="evenodd" d="M 18.0787 5.41192L 2.69832 5.41192C 1.20885 5.41192 0 4.19965 0 2.70596C 0 1.21227 1.20885 0 2.69832 0L 18.0787 0C 19.5682 0 20.7771 1.21227 20.7771 2.70596C 20.7771 4.19965 19.5682 5.41192 18.0787 5.41192Z"/>
<path id="path2_fill" fill-rule="evenodd" d="M 2.69832 20.8323C 1.20885 20.8323 0 19.62 0 18.1263L 0 2.70596C 0 1.21227 1.20885 0 2.69832 0C 4.18779 0 5.39664 1.21227 5.39664 2.70596L 5.39664 18.1263C 5.39664 19.62 4.18779 20.8323 2.69832 20.8323Z"/>
<path id="path3_fill" fill-rule="evenodd" d="M 18.0751 5.41192L 2.69832 5.41192C 1.20885 5.41192 0 4.19965 0 2.70596C 0 1.21227 1.20885 0 2.69832 0L 18.0751 0C 19.5646 0 20.7735 1.21227 20.7735 2.70596C 20.7735 4.19965 19.5646 5.41192 18.0751 5.41192Z"/>
<path id="path4_fill" fill-rule="evenodd" d="M 2.69832 20.8359C 1.20885 20.8359 0 19.6236 0 18.1299L 0 2.70596C 0 1.21227 1.20885 0 2.69832 0C 4.18779 0 5.39664 1.21227 5.39664 2.70596L 5.39664 18.1299C 5.39664 19.6236 4.18779 20.8359 2.69832 20.8359Z"/>
<path id="path5_fill" fill-rule="evenodd" d="M 2.69742 16.3178C 2.00665 16.3178 1.31948 16.0545 0.790607 15.5241C -0.263536 14.467 -0.263536 12.7568 0.790607 11.6997L 11.6666 0.792846C 12.7172 -0.264282 14.4261 -0.264282 15.4803 0.792846C 16.5344 1.84997 16.5344 3.56375 15.4803 4.62088L 4.60783 15.5241C 4.07896 16.0545 3.38819 16.3178 2.69742 16.3178Z"/>
<path id="path6_fill" fill-rule="evenodd" d="M 13.5734 16.3178C 12.8827 16.3178 12.1919 16.0545 11.6666 15.5241L 0.790607 4.62088C -0.263536 3.56375 -0.263536 1.84997 0.790607 0.792846C 1.84475 -0.264282 3.55369 -0.264282 4.60783 0.792846L 15.4803 11.6997C 16.5344 12.7568 16.5344 14.467 15.4803 15.5241C 14.955 16.0545 14.2642 16.3178 13.5734 16.3178Z"/>
<path id="path7_fill" fill-rule="evenodd" d="M 2.70102 16.3178C 2.01025 16.3178 1.31948 16.0545 0.790607 15.5241C -0.263536 14.467 -0.263536 12.7568 0.790607 11.6997L 11.6666 0.792846C 12.7208 -0.264282 14.4297 -0.264282 15.4839 0.792846C 16.5344 1.84997 16.5344 3.56375 15.4839 4.62088L 4.60783 15.5241C 4.08256 16.0545 3.39179 16.3178 2.70102 16.3178Z"/>
<path id="path8_fill" fill-rule="evenodd" d="M 13.5734 16.3178C 12.8827 16.3178 12.1919 16.0545 11.6666 15.5241L 0.790607 4.62088C -0.263536 3.56375 -0.263536 1.84997 0.790607 0.792846C 1.84475 -0.264282 3.55369 -0.264282 4.60783 0.792846L 15.4839 11.6997C 16.5344 12.7568 16.5344 14.467 15.4839 15.5241C 14.955 16.0545 14.2642 16.3178 13.5734 16.3178Z"/>
<path id="path9_fill" fill-rule="evenodd" d="M 0 5.41192L 146.49 5.41192L 146.49 0L 0 0L 0 5.41192Z"/>
<path id="path10_fill" fill-rule="evenodd" d="M 0 0L 80.8272 0L 80.8272 5.41192L 0 5.41192L 0 0Z"/>
<path id="path11_fill" fill-rule="evenodd" d="M 0 5.41192L 62.5866 5.41192L 62.5866 0L 0 0L 0 5.41192Z"/>
<path id="path12_fill" fill-rule="evenodd" d="M 8.79292 4.40891C 8.79292 6.84428 6.82495 8.81782 4.39646 8.81782C 1.96797 8.81782 0 6.84428 0 4.40891C 0 1.97355 1.96797 0 4.39646 0C 6.82495 0 8.79292 1.97355 8.79292 4.40891Z"/>
<path id="path13_fill" fill-rule="evenodd" d="M 8.79292 4.40891C 8.79292 6.84428 6.82495 8.81782 4.39646 8.81782C 1.96797 8.81782 0 6.84428 0 4.40891C 0 1.97715 1.96797 0 4.39646 0C 6.82495 0 8.79292 1.97715 8.79292 4.40891Z"/>
<path id="path14_fill" fill-rule="evenodd" d="M 5.23834 2.62659C 5.23834 4.08059 4.06547 5.25678 2.61917 5.25678C 1.17287 5.25678 0 4.08059 0 2.62659C 0 1.17619 1.17287 0 2.61917 0C 4.06547 0 5.23834 1.17619 5.23834 2.62659Z"/>
<path id="path15_fill" fill-rule="evenodd" d="M 5.24193 2.62659C 5.24193 4.08059 4.06906 5.25678 2.62277 5.25678C 1.17647 5.25678 0 4.08059 0 2.62659C 0 1.17619 1.17647 0 2.62277 0C 4.06906 0 5.24193 1.17619 5.24193 2.62659Z"/>
<path id="path16_fill" fill-rule="evenodd" d="M 5.24193 2.62659C 5.24193 4.08059 4.06906 5.25678 2.61917 5.25678C 1.17287 5.25678 0 4.08059 0 2.62659C 0 1.17619 1.17287 0 2.61917 0C 4.06906 0 5.24193 1.17619 5.24193 2.62659Z"/>
<path id="path17_fill" fill-rule="evenodd" d="M 303.813 181.22L 0 181.22L 0 16.0049C 0 7.16538 7.14875 0 15.9633 0L 287.853 0C 296.668 0 303.813 7.16538 303.813 16.0049L 303.813 181.22Z"/>
<path id="path18_fill" fill-rule="evenodd" d="M 0 143.134L 271.177 143.134L 271.177 0L 0 0L 0 143.134Z"/>
<path id="path19_fill" fill-rule="evenodd" d="M 0 54.3393L 91.5342 54.3393L 91.5342 0L 0 0L 0 54.3393Z"/>
<path id="path20_fill" fill-rule="evenodd" d="M 5.39661 54.3392L 91.5341 54.3392L 91.5341 5.41187L 5.39661 5.41187L 5.39661 54.3392ZM 0 59.7512L 96.9308 59.7512L 96.9308 0L 0 0L 0 59.7512Z"/>
<path id="path21_fill" fill-rule="evenodd" d="M 0 27.1714L 91.5342 27.1714L 91.5342 0L 0 0L 0 27.1714Z"/>
<path id="path22_fill" fill-rule="evenodd" d="M 303.813 0L 0 0L 0 33.9291C 0 37.9159 3.22359 41.145 7.19552 41.145L 296.621 41.145C 300.593 41.145 303.813 37.9159 303.813 33.9291L 303.813 0Z"/>
<path id="path23_fill" fill-rule="evenodd" d="M 0 5.41192L 74.032 5.41192L 74.032 0L 0 0L 0 5.41192Z"/>
<path id="path24_fill" fill-rule="evenodd" d="M 0 5.41192L 74.3018 5.41192L 74.3018 0L 0 0L 0 5.41192Z"/>
<path id="path25_fill" fill-rule="evenodd" d="M 0 5.41192L 128.318 5.41192L 128.318 0L 0 0L 0 5.41192Z"/>
<path id="path26_fill" fill-rule="evenodd" d="M 112.941 71.174L 3.86759 71.174C 1.73052 71.174 0 69.4385 0 67.2954L 0 3.87854C 0 1.73903 1.73052 0 3.86759 0L 112.941 0C 115.078 0 116.808 1.73903 116.808 3.87854L 116.808 67.2954C 116.808 69.4385 115.078 71.174 112.941 71.174Z"/>
<path id="path27_fill" fill-rule="evenodd" d="M 6.56588 5.41187C 5.92188 5.41187 5.39661 5.93863 5.39661 6.58445L 5.39661 70.0013C 5.39661 70.6472 5.92188 71.1739 6.56588 71.1739L 115.639 71.1739C 116.283 71.1739 116.808 70.6472 116.808 70.0013L 116.808 6.58445C 116.808 5.93863 116.287 5.41187 115.639 5.41187L 6.56588 5.41187ZM 115.639 76.5859L 6.56591 76.5859C 2.94656 76.5859 0 73.6346 0 70.0014L 0 6.5845C 0 2.95491 2.94656 0 6.56591 0L 115.639 0C 119.262 0 122.205 2.95491 122.205 6.5845L 122.205 70.0014C 122.205 73.6346 119.258 76.5859 115.639 76.5859Z"/>
<path id="path28_fill" fill-rule="evenodd" d="M 32.1999 21.3205L 3.99711 37.6501C 2.21982 38.6784 0 37.394 0 35.3374L 0 2.67828C 0 0.618146 2.21982 -0.666283 3.99711 0.361982L 32.1999 16.6916C 33.9772 17.7198 33.9772 20.2923 32.1999 21.3205Z"/>
<path id="path29_fill" fill-rule="evenodd" d="M 5.34631 5.41724L 5.39668 38.0475L 33.5563 21.6819L 5.34631 5.41724ZM 5.36426 43.4343C 4.44323 43.4343 3.52221 43.1889 2.68033 42.7055C 1.00377 41.7313 0 39.9923 0 38.0476L 0 5.38486C 0 3.44379 1.00018 1.70115 2.68033 0.730609C 4.36048 -0.243536 6.36803 -0.243536 8.04459 0.730609L 36.2474 17.0602C 37.9276 18.0307 38.9313 19.7697 38.9313 21.7144C 38.9313 23.6591 37.9312 25.4018 36.251 26.3759L 36.2474 26.3759L 8.04459 42.7055C 7.20631 43.1889 6.28528 43.4343 5.36426 43.4343Z"/>
<path id="path30_fill" fill-rule="evenodd" d="M 0 5.41192L 56.3445 5.41192L 56.3445 0L 0 0L 0 5.41192Z"/>
<path id="path31_fill" fill-rule="evenodd" d="M 0 5.41192L 28.1704 5.41192L 28.1704 0L 0 0L 0 5.41192Z"/>
<path id="path32_fill" fill-rule="evenodd" d="M 0 5.41192L 125.288 5.41192L 125.288 0L 0 0L 0 5.41192Z"/>
<path id="path33_fill" fill-rule="evenodd" d="M 0 38.0891L 37.9815 38.0891L 37.9815 0L 0 0L 0 38.0891Z"/>
<path id="path34_fill" fill-rule="evenodd" d="M 0 38.0927L 37.9815 38.0927L 37.9815 0L 0 0L 0 38.0927Z"/>
<path id="path35_fill" fill-rule="evenodd" d="M 0 19.0427L 37.9815 19.0427L 37.9815 0L 0 0L 0 19.0427Z"/>
<path id="path36_fill" fill-rule="evenodd" d="M 0 125.963L 0 3.60795C 0 1.62358 1.61899 0 3.59776 0L 181.003 0C 182.982 0 184.601 1.62358 184.601 3.60795L 184.601 125.963C 184.601 127.951 0 127.951 0 125.963Z"/>
<path id="path37_fill" fill-rule="evenodd" d="M 0 107.979L 165.67 107.979L 165.67 0L 0 0L 0 107.979Z"/>
<path id="path38_fill" fill-rule="evenodd" d="M 123.14 93.8391L 6.88251 93.8391C 3.08328 93.8391 0 90.7507 0 86.9371L 0 6.902C 0 3.09201 3.08328 0 6.88251 0L 123.14 0C 126.943 0 130.023 3.09201 130.023 6.902L 130.023 86.9371C 130.023 90.7507 126.943 93.8391 123.14 93.8391Z"/>
<path id="path39_fill" fill-rule="evenodd" d="M 189.998 170.198L 249.818 170.198L 249.818 175.61L 138.406 175.61C 136.56 175.61 135.06 177.114 135.06 178.965L 135.06 260.685C 135.06 262.532 136.56 264.037 138.406 264.037L 256.34 264.037C 258.186 264.037 259.686 262.532 259.686 260.685L 259.686 178.965C 259.686 177.114 258.186 175.61 256.34 175.61L 249.818 175.61L 249.818 170.198L 256.34 170.198C 261.161 170.198 265.083 174.13 265.083 178.965L 265.083 260.685C 265.083 265.516 261.161 269.449 256.34 269.449L 138.406 269.449C 133.585 269.449 129.663 265.516 129.663 260.685L 129.663 178.965C 129.663 174.13 133.585 170.198 138.406 170.198L 184.601 170.198L 184.601 130.893C 184.601 129.846 183.756 128.999 182.712 128.999L 7.28546 128.999C 6.24571 128.999 5.39664 129.846 5.39664 130.893L 5.39664 250.507C 5.39664 251.535 0 254.537 0 250.507L 0 130.893C 0 126.863 3.27036 123.587 7.28546 123.587L 96.0026 123.587L 96.0026 17.9459C 96.0026 8.04933 104.033 0 113.901 0L 387.317 0C 397.185 0 405.216 8.04933 405.216 17.9459L 405.216 93.4225L 399.819 93.4225L 399.819 17.9459C 399.819 11.0331 394.21 5.41192 387.317 5.41192L 113.901 5.41192C 107.008 5.41192 101.399 11.0331 101.399 17.9459L 101.399 123.587L 182.712 123.587C 186.731 123.587 189.998 126.863 189.998 130.893L 189.998 170.198Z"/>
<path id="path40_stroke_2x" d="M 189.998 170.198L 188.998 170.198L 188.998 171.198L 189.998 171.198L 189.998 170.198ZM 249.818 170.198L 250.818 170.198L 250.818 169.198L 249.818 169.198L 249.818 170.198ZM 249.818 175.61L 249.818 176.61L 250.818 176.61L 250.818 175.61L 249.818 175.61ZM 249.818 175.61L 248.818 175.61L 248.818 176.61L 249.818 176.61L 249.818 175.61ZM 249.818 170.198L 249.818 169.198L 248.818 169.198L 248.818 170.198L 249.818 170.198ZM 184.601 170.198L 184.601 171.198L 185.601 171.198L 185.601 170.198L 184.601 170.198ZM 96.0026 123.587L 96.0026 124.587L 97.0026 124.587L 97.0026 123.587L 96.0026 123.587ZM 405.216 93.4225L 405.216 94.4225L 406.216 94.4225L 406.216 93.4225L 405.216 93.4225ZM 399.819 93.4225L 398.819 93.4225L 398.819 94.4225L 399.819 94.4225L 399.819 93.4225ZM 101.399 123.587L 100.399 123.587L 100.399 124.587L 101.399 124.587L 101.399 123.587ZM 189.998 171.198L 249.818 171.198L 249.818 169.198L 189.998 169.198L 189.998 171.198ZM 248.818 170.198L 248.818 175.61L 250.818 175.61L 250.818 170.198L 248.818 170.198ZM 249.818 174.61L 138.406 174.61L 138.406 176.61L 249.818 176.61L 249.818 174.61ZM 138.406 174.61C 136.005 174.61 134.06 176.564 134.06 178.965L 136.06 178.965C 136.06 177.664 137.115 176.61 138.406 176.61L 138.406 174.61ZM 134.06 178.965L 134.06 260.685L 136.06 260.685L 136.06 178.965L 134.06 178.965ZM 134.06 260.685C 134.06 263.083 136.006 265.037 138.406 265.037L 138.406 263.037C 137.114 263.037 136.06 261.982 136.06 260.685L 134.06 260.685ZM 138.406 265.037L 256.34 265.037L 256.34 263.037L 138.406 263.037L 138.406 265.037ZM 256.34 265.037C 258.74 265.037 260.686 263.083 260.686 260.685L 258.686 260.685C 258.686 261.982 257.632 263.037 256.34 263.037L 256.34 265.037ZM 260.686 260.685L 260.686 178.965L 258.686 178.965L 258.686 260.685L 260.686 260.685ZM 260.686 178.965C 260.686 176.565 258.741 174.61 256.34 174.61L 256.34 176.61C 257.631 176.61 258.686 177.664 258.686 178.965L 260.686 178.965ZM 256.34 174.61L 249.818 174.61L 249.818 176.61L 256.34 176.61L 256.34 174.61ZM 250.818 175.61L 250.818 170.198L 248.818 170.198L 248.818 175.61L 250.818 175.61ZM 249.818 171.198L 256.34 171.198L 256.34 169.198L 249.818 169.198L 249.818 171.198ZM 256.34 171.198C 260.606 171.198 264.083 174.68 264.083 178.965L 266.083 178.965C 266.083 173.581 261.716 169.198 256.34 169.198L 256.34 171.198ZM 264.083 178.965L 264.083 260.685L 266.083 260.685L 266.083 178.965L 264.083 178.965ZM 264.083 260.685C 264.083 264.966 260.607 268.449 256.34 268.449L 256.34 270.449C 261.716 270.449 266.083 266.066 266.083 260.685L 264.083 260.685ZM 256.34 268.449L 138.406 268.449L 138.406 270.449L 256.34 270.449L 256.34 268.449ZM 138.406 268.449C 134.139 268.449 130.663 264.966 130.663 260.685L 128.663 260.685C 128.663 266.066 133.03 270.449 138.406 270.449L 138.406 268.449ZM 130.663 260.685L 130.663 178.965L 128.663 178.965L 128.663 260.685L 130.663 260.685ZM 130.663 178.965C 130.663 174.68 134.14 171.198 138.406 171.198L 138.406 169.198C 133.03 169.198 128.663 173.581 128.663 178.965L 130.663 178.965ZM 138.406 171.198L 184.601 171.198L 184.601 169.198L 138.406 169.198L 138.406 171.198ZM 185.601 170.198L 185.601 130.893L 183.601 130.893L 183.601 170.198L 185.601 170.198ZM 185.601 130.893C 185.601 129.297 184.31 127.999 182.712 127.999L 182.712 129.999C 183.201 129.999 183.601 130.396 183.601 130.893L 185.601 130.893ZM 182.712 127.999L 7.28546 127.999L 7.28546 129.999L 182.712 129.999L 182.712 127.999ZM 7.28546 127.999C 5.69199 127.999 4.39664 129.296 4.39664 130.893L 6.39664 130.893C 6.39664 130.397 6.79942 129.999 7.28546 129.999L 7.28546 127.999ZM 4.39664 130.893L 4.39664 250.507L 6.39664 250.507L 6.39664 130.893L 4.39664 130.893ZM 4.39664 250.507C 4.39664 250.257 4.52356 250.179 4.40464 250.318C 4.32512 250.411 4.18121 250.544 3.9704 250.695C 3.54901 250.997 2.97974 251.288 2.43037 251.44C 1.84758 251.603 1.48181 251.559 1.31301 251.469C 1.24269 251.432 1 251.288 1 250.507L -1 250.507C -1 251.741 -0.568113 252.733 0.373436 253.235C 1.21651 253.683 2.1999 253.58 2.96627 253.367C 3.76605 253.145 4.54595 252.744 5.13642 252.32C 5.43155 252.108 5.70925 251.87 5.92486 251.617C 6.10107 251.411 6.39664 251.014 6.39664 250.507L 4.39664 250.507ZM 1 250.507L 1 130.893L -1 130.893L -1 250.507L 1 250.507ZM 1 130.893C 1 127.413 3.82499 124.587 7.28546 124.587L 7.28546 122.587C 2.71573 122.587 -1 126.313 -1 130.893L 1 130.893ZM 7.28546 124.587L 96.0026 124.587L 96.0026 122.587L 7.28546 122.587L 7.28546 124.587ZM 97.0026 123.587L 97.0026 17.9459L 95.0026 17.9459L 95.0026 123.587L 97.0026 123.587ZM 97.0026 17.9459C 97.0026 8.59921 104.587 1 113.901 1L 113.901 -1C 103.478 -1 95.0026 7.49945 95.0026 17.9459L 97.0026 17.9459ZM 113.901 1L 387.317 1L 387.317 -1L 113.901 -1L 113.901 1ZM 387.317 1C 396.631 1 404.216 8.59921 404.216 17.9459L 406.216 17.9459C 406.216 7.49945 397.74 -1 387.317 -1L 387.317 1ZM 404.216 17.9459L 404.216 93.4225L 406.216 93.4225L 406.216 17.9459L 404.216 17.9459ZM 405.216 92.4225L 399.819 92.4225L 399.819 94.4225L 405.216 94.4225L 405.216 92.4225ZM 400.819 93.4225L 400.819 17.9459L 398.819 17.9459L 398.819 93.4225L 400.819 93.4225ZM 400.819 17.9459C 400.819 10.4831 394.765 4.41192 387.317 4.41192L 387.317 6.41192C 393.655 6.41192 398.819 11.5831 398.819 17.9459L 400.819 17.9459ZM 387.317 4.41192L 113.901 4.41192L 113.901 6.41192L 387.317 6.41192L 387.317 4.41192ZM 113.901 4.41192C 106.454 4.41192 100.399 10.4831 100.399 17.9459L 102.399 17.9459C 102.399 11.5831 107.563 6.41192 113.901 6.41192L 113.901 4.41192ZM 100.399 17.9459L 100.399 123.587L 102.399 123.587L 102.399 17.9459L 100.399 17.9459ZM 101.399 124.587L 182.712 124.587L 182.712 122.587L 101.399 122.587L 101.399 124.587ZM 182.712 124.587C 186.176 124.587 188.998 127.412 188.998 130.893L 190.998 130.893C 190.998 126.313 187.286 122.587 182.712 122.587L 182.712 124.587ZM 188.998 130.893L 188.998 170.198L 190.998 170.198L 190.998 130.893L 188.998 130.893Z"/>
<path id="path41_fill" fill-rule="evenodd" d="M 6.35364 5.41187L 7.12356 10.1166C 7.61285 13.104 10.1565 15.2724 13.175 15.2724C 13.175 15.2724 99.4494 15.2724 142.587 15.2724C 142.549 10.2551 142.032 5.41187 142.032 5.41187L 117.762 5.41187L 114.308 10.012L 88.4761 10.012L 85.2813 5.41187L 6.35364 5.41187ZM 147.018 20.6844C 102.404 20.6844 13.175 20.6844 13.175 20.6844C 7.50133 20.6844 2.71631 16.6074 1.79888 10.9934L 0 0L 88.0983 0L 91.2931 4.60013L 111.617 4.60013L 115.071 0L 141.533 0C 141.533 0 143.249 14.8431 147.018 20.6844Z"/>
<path id="path42_fill" fill-rule="evenodd" d="M 31.7682 21.0336L 3.94314 37.1431C 2.19103 38.1569 0 36.8905 0 34.8592L 0 2.64025C 0 0.612588 2.19103 -0.65741 3.94314 0.356423L 31.7682 16.4659C 33.5203 17.4833 33.5203 20.0197 31.7682 21.0336Z"/>
<path id="path43_fill" fill-rule="evenodd" d="M 5.29236 5.41113L 5.39669 37.5688L 33.1138 21.4016L 34.4666 23.7431L 33.1174 21.3979L 5.29236 5.41113ZM 5.32828 42.9192C 4.41445 42.9192 3.49702 42.6775 2.66594 42.1976C 0.996579 41.2307 0 39.5025 0 37.5686L 0 5.34968C 0 3.41943 0.996579 1.69123 2.66594 0.720687C 4.3317 -0.239026 6.32846 -0.242634 7.99062 0.724295L 35.8157 16.8338C 37.4814 17.7971 38.478 19.5253 38.478 21.4592C 38.478 23.3894 37.485 25.1176 35.8157 26.0846L 35.8157 26.0882L 7.99062 42.194C 7.15954 42.6775 6.24211 42.9192 5.32828 42.9192Z"/>
<path id="path44_fill" fill-rule="evenodd" d="M 35.6106 133.999L 4.87496 133.999C 2.18024 133.999 0 131.809 0 129.11L 0 4.88516C 0 2.18642 2.18024 0 4.87496 0L 35.6106 0C 38.3017 0 40.4856 2.18642 40.4856 4.88877L 40.4856 129.11C 40.4856 131.809 38.3053 133.999 35.6106 133.999Z"/>
<path id="path45_fill" fill-rule="evenodd" d="M 17.7729 152.595L 4.87496 152.595C 2.18384 152.595 0 150.404 0 147.706L 0 4.88877C 0 2.18642 2.18384 0 4.87496 0L 17.7729 0C 20.4641 0 22.6479 2.18642 22.6479 4.88877L 22.6479 147.706C 22.6479 150.404 20.4641 152.595 17.7729 152.595Z"/>
<path id="path46_fill" fill-rule="evenodd" d="M 0 96.4224L 7.8719 96.4224L 7.8719 0L 0 0L 0 96.4224Z"/>
<path id="path47_fill" fill-rule="evenodd" d="M 30.1924 138.754L 4.87496 138.754C 2.18024 138.754 0 136.564 0 133.866L 0 4.88877C 0 2.19002 2.18024 0 4.87496 0L 30.1924 0C 32.8835 0 35.0674 2.19002 35.0674 4.88877L 35.0674 133.866C 35.0674 136.564 32.8835 138.754 30.1924 138.754Z"/>
<path id="path48_fill" fill-rule="evenodd" d="M 5.39664 103.337L 0 103.337L 0 9.9435C 0 4.46303 4.44683 0 9.91542 0L 35.9668 0C 41.4354 0 45.8822 4.46303 45.8822 9.9435L 45.8822 75.2079L 40.4856 75.2079L 40.4856 9.9435C 40.4856 7.4468 38.46 5.41192 35.9668 5.41192L 9.91542 5.41192C 7.42218 5.41192 5.39664 7.4468 5.39664 9.9435L 5.39664 95.174"/>
<path id="path49_stroke" d="M 0 103.337L -0.5 103.337L -0.5 103.837L 0 103.837L 0 103.337ZM 45.8822 75.2079L 45.8822 75.7079L 46.3822 75.7079L 46.3822 75.2079L 45.8822 75.2079ZM 40.4856 75.2079L 39.9856 75.2079L 39.9856 75.7079L 40.4856 75.7079L 40.4856 75.2079ZM 5.39664 102.837L 0 102.837L 0 103.837L 5.39664 103.837L 5.39664 102.837ZM 0.5 103.337L 0.5 9.9435L -0.5 9.9435L -0.5 103.337L 0.5 103.337ZM 0.5 9.9435C 0.5 4.73772 4.72442 0.5 9.91542 0.5L 9.91542 -0.5C 4.16924 -0.5 -0.5 4.18834 -0.5 9.9435L 0.5 9.9435ZM 9.91542 0.5L 35.9668 0.5L 35.9668 -0.5L 9.91542 -0.5L 9.91542 0.5ZM 35.9668 0.5C 41.1578 0.5 45.3822 4.73772 45.3822 9.9435L 46.3822 9.9435C 46.3822 4.18834 41.713 -0.5 35.9668 -0.5L 35.9668 0.5ZM 45.3822 9.9435L 45.3822 75.2079L 46.3822 75.2079L 46.3822 9.9435L 45.3822 9.9435ZM 45.8822 74.7079L 40.4856 74.7079L 40.4856 75.7079L 45.8822 75.7079L 45.8822 74.7079ZM 40.9856 75.2079L 40.9856 9.9435L 39.9856 9.9435L 39.9856 75.2079L 40.9856 75.2079ZM 40.9856 9.9435C 40.9856 7.17225 38.7378 4.91192 35.9668 4.91192L 35.9668 5.91192C 38.1823 5.91192 39.9856 7.72135 39.9856 9.9435L 40.9856 9.9435ZM 35.9668 4.91192L 9.91542 4.91192L 9.91542 5.91192L 35.9668 5.91192L 35.9668 4.91192ZM 9.91542 4.91192C 7.14444 4.91192 4.89664 7.17225 4.89664 9.9435L 5.89664 9.9435C 5.89664 7.72135 7.69991 5.91192 9.91542 5.91192L 9.91542 4.91192ZM 4.89664 9.9435L 4.89664 95.174L 5.89664 95.174L 5.89664 9.9435L 4.89664 9.9435Z"/>
<path id="path50_fill" fill-rule="evenodd" d="M 28.0409 90.069L 22.6443 90.069L 22.6443 10.5136C 22.6443 7.69936 20.3597 5.41192 17.5535 5.41192L 9.91182 5.41192C 7.42218 5.41192 5.39664 7.4432 5.39664 9.93989L 5.39664 90.069L 0 90.069L 0 9.93989C 0 4.45942 4.44323 0 9.91182 0L 17.5535 0C 23.3351 0 28.0409 4.71559 28.0409 10.5136L 28.0409 85.3352"/>
<path id="path51_stroke" d="M 22.6443 90.069L 22.1443 90.069L 22.1443 90.569L 22.6443 90.569L 22.6443 90.069ZM 5.39664 90.069L 5.39664 90.569L 5.89664 90.569L 5.89664 90.069L 5.39664 90.069ZM 0 90.069L -0.5 90.069L -0.5 90.569L 0 90.569L 0 90.069ZM 28.0409 89.569L 22.6443 89.569L 22.6443 90.569L 28.0409 90.569L 28.0409 89.569ZM 23.1443 90.069L 23.1443 10.5136L 22.1443 10.5136L 22.1443 90.069L 23.1443 90.069ZM 23.1443 10.5136C 23.1443 7.42409 20.6367 4.91192 17.5535 4.91192L 17.5535 5.91192C 20.0827 5.91192 22.1443 7.97463 22.1443 10.5136L 23.1443 10.5136ZM 17.5535 4.91192L 9.91182 4.91192L 9.91182 5.91192L 17.5535 5.91192L 17.5535 4.91192ZM 9.91182 4.91192C 7.1447 4.91192 4.89664 7.16839 4.89664 9.93989L 5.89664 9.93989C 5.89664 7.718 7.69965 5.91192 9.91182 5.91192L 9.91182 4.91192ZM 4.89664 9.93989L 4.89664 90.069L 5.89664 90.069L 5.89664 9.93989L 4.89664 9.93989ZM 5.39664 89.569L 0 89.569L 0 90.569L 5.39664 90.569L 5.39664 89.569ZM 0.5 90.069L 0.5 9.93989L -0.5 9.93989L -0.5 90.069L 0.5 90.069ZM 0.5 9.93989C 0.5 4.73411 4.72082 0.5 9.91182 0.5L 9.91182 -0.5C 4.16564 -0.5 -0.5 4.18473 -0.5 9.93989L 0.5 9.93989ZM 9.91182 0.5L 17.5535 0.5L 17.5535 -0.5L 9.91182 -0.5L 9.91182 0.5ZM 17.5535 0.5C 23.0578 0.5 27.5409 4.99062 27.5409 10.5136L 28.5409 10.5136C 28.5409 4.44055 23.6123 -0.5 17.5535 -0.5L 17.5535 0.5ZM 27.5409 10.5136L 27.5409 85.3352L 28.5409 85.3352L 28.5409 10.5136L 27.5409 10.5136Z"/>
<path id="path52_fill" fill-rule="evenodd" d="M 40.464 102.572L 35.0674 102.572L 35.0674 9.9435C 35.0674 7.4468 33.0382 5.41192 30.5486 5.41192L 9.91542 5.41192C 7.42218 5.41192 5.39664 7.4468 5.39664 9.9435L 5.39664 85.3405L 0 85.3405L 0 9.9435C 0 4.45942 4.44683 0 9.91542 0L 30.5486 0C 36.0136 0 40.464 4.45942 40.464 9.9435L 40.464 96.9888"/>
<path id="path53_stroke" d="M 35.0674 102.572L 34.5674 102.572L 34.5674 103.072L 35.0674 103.072L 35.0674 102.572ZM 5.39664 85.3405L 5.39664 85.8405L 5.89664 85.8405L 5.89664 85.3405L 5.39664 85.3405ZM 0 85.3405L -0.5 85.3405L -0.5 85.8405L 0 85.8405L 0 85.3405ZM 40.464 102.072L 35.0674 102.072L 35.0674 103.072L 40.464 103.072L 40.464 102.072ZM 35.5674 102.572L 35.5674 9.9435L 34.5674 9.9435L 34.5674 102.572L 35.5674 102.572ZM 35.5674 9.9435C 35.5674 7.17199 33.3157 4.91192 30.5486 4.91192L 30.5486 5.91192C 32.7607 5.91192 34.5674 7.72161 34.5674 9.9435L 35.5674 9.9435ZM 30.5486 4.91192L 9.91542 4.91192L 9.91542 5.91192L 30.5486 5.91192L 30.5486 4.91192ZM 9.91542 4.91192C 7.14444 4.91192 4.89664 7.17225 4.89664 9.9435L 5.89664 9.9435C 5.89664 7.72135 7.69991 5.91192 9.91542 5.91192L 9.91542 4.91192ZM 4.89664 9.9435L 4.89664 85.3405L 5.89664 85.3405L 5.89664 9.9435L 4.89664 9.9435ZM 5.39664 84.8405L 0 84.8405L 0 85.8405L 5.39664 85.8405L 5.39664 84.8405ZM 0.5 85.3405L 0.5 9.9435L -0.5 9.9435L -0.5 85.3405L 0.5 85.3405ZM 0.5 9.9435C 0.5 4.73423 4.7243 0.5 9.91542 0.5L 9.91542 -0.5C 4.16936 -0.5 -0.5 4.18461 -0.5 9.9435L 0.5 9.9435ZM 9.91542 0.5L 30.5486 0.5L 30.5486 -0.5L 9.91542 -0.5L 9.91542 0.5ZM 30.5486 0.5C 35.7362 0.5 39.964 4.73435 39.964 9.9435L 40.964 9.9435C 40.964 4.1845 36.2909 -0.5 30.5486 -0.5L 30.5486 0.5ZM 39.964 9.9435L 39.964 96.9888L 40.964 96.9888L 40.964 9.9435L 39.964 9.9435Z"/>
<path id="path54_fill" fill-rule="evenodd" d="M 0 5.41192L 20.7051 5.41192L 20.7051 0L 0 0L 0 5.41192Z"/>
<path id="path55_fill" fill-rule="evenodd" d="M 0 5.41192L 11.2538 5.41192L 11.2538 0L 0 0L 0 5.41192Z"/>
<path id="path56_fill" fill-rule="evenodd" d="M 24.8425 12.4582C 24.8425 19.3386 19.2804 24.9129 12.4195 24.9129C 5.55854 24.9129 0 19.3386 0 12.4582C 0 5.57789 5.55854 0 12.4195 0C 19.2804 0 24.8425 5.57789 24.8425 12.4582Z"/>
<path id="path57_fill" fill-rule="evenodd" d="M 24.8425 12.4582C 24.8425 19.335 19.2804 24.9129 12.4195 24.9129C 5.55854 24.9129 0 19.335 0 12.4582C 0 5.57789 5.55854 0 12.4195 0C 19.2804 0 24.8425 5.57789 24.8425 12.4582Z"/>
<path id="path58_fill" fill-rule="evenodd" d="M 165.968 46.1276L 165.231 46.1276C 162.003 34.9682 151.753 26.807 139.586 26.807C 134.272 26.807 129.336 28.3801 125.173 31.0608C 122.475 13.4757 107.368 0 89.0769 0C 72.6639 0 58.7766 10.8491 54.1499 25.7824C 52.0668 25.2232 49.8865 24.8948 47.6271 24.8948C 35.0997 24.8948 24.7418 34.1023 22.8458 46.1276L 18.7551 46.1276C 8.44034 46.1276 0 54.5918 0 64.9358L 0 66.3213C 0 76.6653 8.44034 85.1259 18.7551 85.1259L 165.968 85.1259C 176.279 85.1259 184.72 76.6653 184.72 66.3213L 184.72 64.9358C 184.72 54.5918 176.279 46.1276 165.968 46.1276Z"/>
<path id="path59_fill" fill-rule="evenodd" d="M 146.306 40.6652L 145.662 40.6652C 142.813 30.8263 133.779 23.6284 123.051 23.6284C 118.366 23.6284 114.017 25.0175 110.347 27.3771C 107.965 11.881 94.6498 0 78.5283 0C 64.0581 0 51.8149 9.56106 47.7351 22.7301C 45.9002 22.2322 43.979 21.9471 41.9858 21.9471C 30.9407 21.9471 21.8132 30.0614 20.1403 40.6652L 16.5317 40.6652C 7.44016 40.6652 0 48.1228 0 57.2437L 0 58.4632C 0 67.5805 7.44016 75.0417 16.5317 75.0417L 146.306 75.0417C 155.402 75.0417 162.838 67.5805 162.838 58.4632L 162.838 57.2437C 162.838 48.1228 155.402 40.6652 146.306 40.6652Z"/>
<path id="path60_fill" fill-rule="evenodd" d="M 40.1798 18.1083C 35.0314 10.16 26.3284 5.41192 16.9023 5.41192C 11.9122 5.41192 7.01563 6.75408 2.75229 9.29046L 0 4.63621C 5.09802 1.60554 10.9408 0 16.9023 0C 28.1669 0 38.5608 5.66809 44.7057 15.1642L 40.1798 18.1083Z"/>
<path id="path61_fill" fill-rule="evenodd" d="M 15.715 15.7595L 10.3184 15.7595C 10.3184 10.0553 5.68806 5.41192 0 5.41192L 0 0C 8.6634 0 15.715 7.07158 15.715 15.7595Z"/>
<path id="path62_fill" fill-rule="evenodd" d="M 21.4535 51.5431C 12.5994 51.5431 5.39673 58.7626 5.39673 67.6417L 5.39673 69.0272C 5.39673 77.9027 12.5994 85.1258 21.4535 85.1258L 168.663 85.1258C 177.517 85.1258 184.72 77.9027 184.72 69.0272L 184.72 67.6417C 184.72 58.7626 177.517 51.5431 168.663 51.5431L 165.904 51.5431L 165.339 49.5912C 162.378 39.3626 152.898 32.2189 142.281 32.2189C 137.693 32.2189 133.214 33.5394 129.332 36.0397L 125.839 38.2911L 125.206 34.178C 122.644 17.5093 108.588 5.41187 91.7753 5.41187C 76.8482 5.41187 63.8495 15.009 59.4279 29.2929L 58.6543 31.7787L 56.1467 31.1041C 42.8422 27.525 30.2393 36.3861 28.2101 49.2592L 27.8503 51.5431L 21.4535 51.5431ZM 168.663 90.5378L 21.4534 90.5378C 9.624 90.5378 0 80.8866 0 69.0272L 0 67.6418C 0 55.7789 9.624 46.1312 21.4534 46.1312L 23.3351 46.1312C 26.3464 33.6946 37.3519 24.8948 50.3254 24.8948C 51.8977 24.8948 53.4915 25.0392 55.0853 25.3242C 60.8633 10.077 75.3083 0 91.7752 0C 109.987 0 125.414 12.2454 129.786 29.6176C 133.686 27.7704 137.942 26.807 142.281 26.807C 154.61 26.807 165.691 34.6688 169.893 46.1637C 181.154 46.8059 190.116 56.1938 190.116 67.6418L 190.116 69.0272C 190.116 80.8866 180.492 90.5378 168.663 90.5378Z"/>
<path id="path63_stroke" d="M 165.904 51.5431L 165.423 51.6821L 165.528 52.0431L 165.904 52.0431L 165.904 51.5431ZM 165.339 49.5912L 165.819 49.4522L 165.819 49.4521L 165.339 49.5912ZM 129.332 36.0397L 129.062 35.6194L 129.061 35.6194L 129.332 36.0397ZM 125.839 38.2911L 125.345 38.3672L 125.462 39.1288L 126.11 38.7114L 125.839 38.2911ZM 125.206 34.178L 124.711 34.254L 124.712 34.2541L 125.206 34.178ZM 59.4279 29.2929L 59.9053 29.4414L 59.9055 29.4407L 59.4279 29.2929ZM 58.6543 31.7787L 58.5244 32.2616L 58.9889 32.3865L 59.1318 31.9273L 58.6543 31.7787ZM 56.1467 31.1041L 56.2766 30.6212L 56.2766 30.6212L 56.1467 31.1041ZM 28.2101 49.2592L 27.7162 49.1814L 27.7162 49.1814L 28.2101 49.2592ZM 27.8503 51.5431L 27.8503 52.0431L 28.2777 52.0431L 28.3442 51.6209L 27.8503 51.5431ZM 23.3351 46.1312L 23.3351 46.6312L 23.7284 46.6312L 23.821 46.2489L 23.3351 46.1312ZM 55.0853 25.3242L 54.9973 25.8164L 55.4058 25.8894L 55.5528 25.5014L 55.0853 25.3242ZM 129.786 29.6176L 129.301 29.7396L 129.449 30.3302L 130 30.0695L 129.786 29.6176ZM 169.893 46.1637L 169.424 46.3354L 169.537 46.6441L 169.865 46.6629L 169.893 46.1637ZM 21.4535 51.0431C 12.3221 51.0431 4.89673 58.4876 4.89673 67.6417L 5.89673 67.6417C 5.89673 59.0375 12.8768 52.0431 21.4535 52.0431L 21.4535 51.0431ZM 4.89673 67.6417L 4.89673 69.0272L 5.89673 69.0272L 5.89673 67.6417L 4.89673 67.6417ZM 4.89673 69.0272C 4.89673 78.1776 12.322 85.6258 21.4535 85.6258L 21.4535 84.6258C 12.8768 84.6258 5.89673 77.6279 5.89673 69.0272L 4.89673 69.0272ZM 21.4535 85.6258L 168.663 85.6258L 168.663 84.6258L 21.4535 84.6258L 21.4535 85.6258ZM 168.663 85.6258C 177.794 85.6258 185.22 78.1776 185.22 69.0272L 184.22 69.0272C 184.22 77.6279 177.24 84.6258 168.663 84.6258L 168.663 85.6258ZM 185.22 69.0272L 185.22 67.6417L 184.22 67.6417L 184.22 69.0272L 185.22 69.0272ZM 185.22 67.6417C 185.22 58.4876 177.794 51.0431 168.663 51.0431L 168.663 52.0431C 177.24 52.0431 184.22 59.0375 184.22 67.6417L 185.22 67.6417ZM 168.663 51.0431L 165.904 51.0431L 165.904 52.0431L 168.663 52.0431L 168.663 51.0431ZM 166.384 51.4041L 165.819 49.4522L 164.858 49.7302L 165.423 51.6821L 166.384 51.4041ZM 165.819 49.4521C 162.796 39.0108 153.121 31.7189 142.281 31.7189L 142.281 32.7189C 152.674 32.7189 161.959 39.7145 164.858 49.7302L 165.819 49.4521ZM 142.281 31.7189C 137.597 31.7189 133.024 33.0674 129.062 35.6194L 129.603 36.4601C 133.405 34.0115 137.79 32.7189 142.281 32.7189L 142.281 31.7189ZM 129.061 35.6194L 125.568 37.8708L 126.11 38.7114L 129.603 36.46L 129.061 35.6194ZM 126.333 38.215L 125.7 34.1019L 124.712 34.2541L 125.345 38.3672L 126.333 38.215ZM 125.7 34.1021C 123.101 17.1906 108.836 4.91187 91.7753 4.91187L 91.7753 5.91187C 108.34 5.91187 122.187 17.828 124.711 34.254L 125.7 34.1021ZM 91.7753 4.91187C 76.6285 4.91187 63.4365 14.6523 58.9502 29.145L 59.9055 29.4407C 64.2625 15.3657 77.0679 5.91187 91.7753 5.91187L 91.7753 4.91187ZM 58.9504 29.1443L 58.1769 31.6302L 59.1318 31.9273L 59.9053 29.4414L 58.9504 29.1443ZM 58.7843 31.2959L 56.2766 30.6212L 56.0168 31.5869L 58.5244 32.2616L 58.7843 31.2959ZM 56.2766 30.6212C 42.6736 26.9619 29.7897 36.0266 27.7162 49.1814L 28.704 49.3371C 30.6888 36.7456 43.0108 28.0881 56.0168 31.5869L 56.2766 30.6212ZM 27.7162 49.1814L 27.3564 51.4653L 28.3442 51.6209L 28.704 49.3371L 27.7162 49.1814ZM 27.8503 51.0431L 21.4535 51.0431L 21.4535 52.0431L 27.8503 52.0431L 27.8503 51.0431ZM 168.663 90.0378L 21.4534 90.0378L 21.4534 91.0378L 168.663 91.0378L 168.663 90.0378ZM 21.4534 90.0378C 9.90142 90.0378 0.5 80.6117 0.5 69.0272L -0.5 69.0272C -0.5 81.1614 9.34658 91.0378 21.4534 91.0378L 21.4534 90.0378ZM 0.5 69.0272L 0.5 67.6418L -0.5 67.6418L -0.5 69.0272L 0.5 69.0272ZM 0.5 67.6418C 0.5 56.0538 9.90137 46.6312 21.4534 46.6312L 21.4534 45.6312C 9.34664 45.6312 -0.5 55.5039 -0.5 67.6418L 0.5 67.6418ZM 21.4534 46.6312L 23.3351 46.6312L 23.3351 45.6312L 21.4534 45.6312L 21.4534 46.6312ZM 23.821 46.2489C 26.7785 34.0347 37.5847 25.3948 50.3254 25.3948L 50.3254 24.3948C 37.1192 24.3948 25.9143 33.3545 22.8491 46.0135L 23.821 46.2489ZM 50.3254 25.3948C 51.8671 25.3948 53.4315 25.5364 54.9973 25.8164L 55.1733 24.832C 53.5515 24.542 51.9282 24.3948 50.3254 24.3948L 50.3254 25.3948ZM 55.5528 25.5014C 61.2576 10.4475 75.5171 0.5 91.7752 0.5L 91.7752 -0.5C 75.0995 -0.5 60.469 9.70647 54.6177 25.147L 55.5528 25.5014ZM 91.7752 0.5C 109.756 0.5 124.985 12.5876 129.301 29.7396L 130.27 29.4956C 125.844 11.9031 110.218 -0.5 91.7752 -0.5L 91.7752 0.5ZM 130 30.0695C 133.833 28.2538 138.016 27.307 142.281 27.307L 142.281 26.307C 137.867 26.307 133.538 27.2869 129.572 29.1658L 130 30.0695ZM 142.281 27.307C 154.398 27.307 165.293 35.0354 169.424 46.3354L 170.363 45.992C 166.089 34.3021 154.822 26.307 142.281 26.307L 142.281 27.307ZM 169.865 46.6629C 180.862 47.29 189.616 56.4593 189.616 67.6418L 190.616 67.6418C 190.616 55.9282 181.447 46.3218 169.922 45.6645L 169.865 46.6629ZM 189.616 67.6418L 189.616 69.0272L 190.616 69.0272L 190.616 67.6418L 189.616 67.6418ZM 189.616 69.0272C 189.616 80.6117 180.215 90.0378 168.663 90.0378L 168.663 91.0378C 180.77 91.0378 190.616 81.1614 190.616 69.0272L 189.616 69.0272Z"/>
<path id="path64_fill" fill-rule="evenodd" d="M 0 24.0975L 5.39664 24.0975L 5.39664 0L 0 0L 0 24.0975Z"/>
<path id="path65_fill" fill-rule="evenodd" d="M 0 77.7909L 95.0888 77.7909L 95.0888 0L 0 0L 0 77.7909Z"/>
<path id="path66_fill" fill-rule="evenodd" d="M 6.0767 5.41187C 5.70254 5.41187 5.39673 5.71854 5.39673 6.09377C 5.39673 6.84422 6.75668 6.84422 6.75668 6.09377C 6.75668 5.71854 6.45087 5.41187 6.0767 5.41187ZM 6.07661 12.1876C 2.7271 12.1876 0 9.45282 0 6.09382C 0 2.73482 2.7271 0 6.07661 0C 9.42613 0 12.1532 2.73482 12.1532 6.09382C 12.1532 9.45282 9.42613 12.1876 6.07661 12.1876Z"/>
<path id="path67_fill" fill-rule="evenodd" d="M 26.4183 17.4924L 3.27756 30.8923C 1.82047 31.7366 0 30.6794 0 28.9909L 0 2.19471C 0 0.509794 1.82047 -0.547335 3.27756 0.296925L 26.4183 13.6968C 27.8754 14.5375 27.8754 16.6481 26.4183 17.4924Z"/>
<path id="path68_fill" fill-rule="evenodd" d="M 5.39661 5.79663L 5.39661 30.8141L 27.0047 18.3054L 5.39661 5.79663ZM 4.88576 36.6085C 4.04748 36.6085 3.2092 36.3884 2.44648 35.9446C 0.913831 35.0607 0 33.4732 0 31.7017L 0 4.90546C 0 3.13395 0.913831 1.55007 2.44648 0.66251C 3.97552 -0.221437 5.80318 -0.221437 7.33223 0.666118L 30.4694 14.0624C 32.0021 14.9464 32.9123 16.5339 32.9123 18.3054C 32.9123 20.0769 32.0021 21.6644 30.4694 22.5483L 7.32863 35.9446C 6.56591 36.3884 5.72763 36.6085 4.88576 36.6085Z"/>
<path id="path69_fill" fill-rule="evenodd" d="M 0 5.41192L 72.6423 5.41192L 72.6423 0L 0 0L 0 5.41192Z"/>
<path id="path70_fill" fill-rule="evenodd" d="M 0 11.5887L 5.39664 11.5887L 5.39664 0L 0 0L 0 11.5887Z"/>
<path id="path71_fill" fill-rule="evenodd" d="M 0 5.41192L 589.392 5.41192L 589.392 0L 0 0L 0 5.41192Z"/>
</defs>
</svg>
