<?xml version="1.0" encoding="UTF-8" standalone="no"?>
<svg width="237px" height="48px" viewBox="0 0 237 48" version="1.1" xmlns="http://www.w3.org/2000/svg" xmlns:xlink="http://www.w3.org/1999/xlink">
    <!-- Generator: sketchtool 49.1 (51147) - http://www.bohemiancoding.com/sketch -->
    <title>C396AEE8-1395-4BA8-ABB4-3071DA36F58D</title>
    <desc>Created with sketchtool.</desc>
    <defs></defs>
    <g id="Page-1" stroke="none" stroke-width="1" fill="none" fill-rule="evenodd" opacity="0.5">
        <g id="homepage@2x" transform="translate(-785.000000, -878.000000)" fill="#3D4367" fill-rule="nonzero">
            <g id="integrations" transform="translate(0.000000, 806.000000)">
                <g id="logos" transform="translate(73.000000, 64.000000)">
                    <g id="facebook" transform="translate(712.000000, 8.000000)">
                        <path d="M122.345516,23.5603636 C120.397092,23.5603636 118.992567,24.1985455 117.568382,24.8487273 L117.568382,39.5607273 C118.932498,39.6905455 119.714488,39.6905455 121.008705,39.6905455 C125.685359,39.6905455 126.326461,37.5512727 126.326461,34.5643636 L126.326461,27.5378182 C126.326461,25.332 125.593618,23.5603636 122.345516,23.5603636 Z M91.2865023,22.7574545 C88.0416774,22.7574545 87.3011889,24.5367273 87.3011889,26.7403636 L87.3011889,27.9785455 L95.267447,27.9785455 L95.267447,26.7403636 C95.267447,24.5367273 94.5269585,22.7574545 91.2865023,22.7574545 Z M31.1190829,38.0705455 C31.1190829,39.8138182 31.942576,40.7192727 33.7599401,40.7192727 C35.7094562,40.7192727 36.8638756,40.0843636 38.2869677,39.432 L38.2869677,35.9421818 L34.0242442,35.9421818 C32.0059217,35.9421818 31.1190829,36.3174545 31.1190829,38.0705455 Z M152.558101,23.5603636 C149.307816,23.5603636 148.181793,25.332 148.181793,27.5378182 L148.181793,35.5876364 C148.181793,37.7989091 149.307816,39.576 152.558101,39.576 C155.79965,39.576 156.93441,37.7989091 156.93441,35.5876364 L156.93441,27.5378182 C156.933318,25.332 155.798558,23.5603636 152.558101,23.5603636 Z M15.1909355,47.0967273 L5.6366682,47.0967273 L5.6366682,23.9978182 L0.86281106,23.9978182 L0.86281106,16.0385455 L5.63776037,16.0385455 L5.63776037,11.2581818 C5.63776037,4.764 8.33213364,0.903272727 15.9904009,0.903272727 L22.3664654,0.903272727 L22.3664654,8.86472727 L18.3811521,8.86472727 C15.3995392,8.86472727 15.2029493,9.97745455 15.2029493,12.0534545 L15.1909355,16.0374545 L22.4101521,16.0374545 L21.5659078,23.9967273 L15.1909355,23.9967273 L15.1909355,47.0967273 Z M47.8434194,47.1567273 L39.8804378,47.1567273 L39.5364055,45.1450909 C35.9005853,47.1567273 32.6557604,47.4829091 30.5151152,47.4829091 C24.6753041,47.4829091 21.567,43.5861818 21.567,38.1970909 C21.567,31.8392727 25.1940829,29.5701818 31.6826406,29.5701818 L38.2869677,29.5701818 L38.2869677,28.1956364 C38.2869677,24.9501818 37.9145392,23.9978182 32.9178802,23.9978182 L24.7484793,23.9978182 L25.5468525,16.0385455 L34.4764009,16.0385455 C45.4395622,16.0385455 47.8434194,19.4978182 47.8434194,28.26 L47.8434194,47.1567273 Z M74.9214885,24.5814545 C69.9663318,23.7327273 68.5432396,23.5461818 66.1590415,23.5461818 C61.876659,23.5461818 60.5824424,24.4898182 60.5824424,28.1225455 L60.5824424,34.9941818 C60.5824424,38.6269091 61.876659,39.5749091 66.1590415,39.5749091 C68.5432396,39.5749091 69.9663318,39.3850909 74.9214885,38.5330909 L74.9214885,46.2970909 C70.5812212,47.2690909 67.7536037,47.5243636 65.3639447,47.5243636 C55.1063226,47.5243636 51.0292673,42.1363636 51.0292673,34.3527273 L51.0292673,28.7770909 C51.0292673,20.9869091 55.1063226,15.5890909 65.3639447,15.5890909 C67.7536037,15.5890909 70.5812212,15.8454545 74.9214885,16.8218182 L74.9214885,24.5814545 Z M104.820622,34.3527273 L87.3000968,34.3527273 L87.3000968,34.9941818 C87.3000968,38.6269091 88.5954055,39.5749091 92.8766959,39.5749091 C96.7254885,39.5749091 99.0747373,39.3850909 104.021157,38.5330909 L104.021157,46.2970909 C99.250576,47.2690909 96.7648065,47.5243636 92.0848756,47.5243636 C81.8261613,47.5243636 77.7469217,42.1363636 77.7469217,34.3527273 L77.7469217,27.9774545 C77.7469217,21.1669091 80.7733134,15.5890909 91.2854101,15.5890909 C101.797507,15.5890909 104.820622,21.1025455 104.820622,27.9774545 L104.820622,34.3527273 Z M135.878544,34.5 C135.878544,42.0229091 133.725885,47.5101818 120.685424,47.5101818 C115.976005,47.5101818 113.213917,47.0967273 108.0163,46.2981818 L108.0163,3.29454545 L117.56729,1.70290909 L117.56729,16.7454545 C119.631484,15.9796364 122.302922,15.5901818 124.734083,15.5901818 C134.286166,15.5901818 135.877452,19.8676364 135.877452,26.7414545 L135.877452,34.5 L135.878544,34.5 Z M166.49523,34.6636364 C166.49523,41.1534545 163.812871,47.448 152.589774,47.448 C141.361217,47.448 138.628618,41.1534545 138.628618,34.6636364 L138.628618,28.3974545 C138.628618,21.9043636 141.361217,15.6087273 152.589774,15.6087273 C163.812871,15.6087273 166.49523,21.9043636 166.49523,28.3974545 L166.49523,34.6636364 Z M197.091166,34.6636364 C197.091166,41.1534545 194.40553,47.448 183.184618,47.448 C171.95606,47.448 169.223461,41.1534545 169.223461,34.6636364 L169.223461,28.3974545 C169.223461,21.9043636 171.95606,15.6087273 183.184618,15.6087273 C194.40553,15.6087273 197.091166,21.9043636 197.091166,28.3974545 L197.091166,34.6636364 Z M228.489843,47.0967273 L218.137203,47.0967273 L209.381309,32.4970909 L209.381309,47.0967273 L199.827041,47.0967273 L199.827041,3.29345455 L209.381309,1.70181818 L209.381309,29.9007273 L218.137203,16.0385455 L228.489843,16.0385455 L218.931207,31.1661818 L228.489843,47.0967273 Z M183.151853,23.5603636 C179.907028,23.5603636 178.781005,25.332 178.781005,27.5378182 L178.781005,35.5876364 C178.781005,37.7989091 179.907028,39.576 183.151853,39.576 C186.392309,39.576 187.539083,37.7989091 187.539083,35.5876364 L187.539083,27.5378182 C187.539083,25.332 186.392309,23.5603636 183.151853,23.5603636 Z M233.943028,41.6487273 C235.551788,41.6487273 236.832899,42.9589091 236.832899,44.5952727 C236.832899,46.2567273 235.550696,47.5527273 233.931014,47.5527273 C232.318977,47.5527273 231.011654,46.2567273 231.011654,44.5952727 C231.011654,42.9589091 232.318977,41.6487273 233.931014,41.6487273 L233.943028,41.6487273 Z M233.931014,42.1069091 C232.634613,42.1069091 231.57412,43.2207273 231.57412,44.5952727 C231.57412,45.9949091 232.635705,47.0945455 233.943028,47.0945455 C235.251442,47.1076364 236.296645,45.9949091 236.296645,44.6083636 C236.296645,43.2218182 235.251442,42.1069091 233.943028,42.1069091 L233.931014,42.1069091 Z M233.381654,46.3101818 L232.857415,46.3101818 L232.857415,43.0221818 C233.132641,42.984 233.39476,42.9458182 233.78794,42.9458182 C234.285968,42.9458182 234.611433,43.0505455 234.8113,43.1934545 C235.004613,43.3385455 235.108369,43.56 235.108369,43.8730909 C235.108369,44.3072727 234.822221,44.568 234.469452,44.6738182 L234.469452,44.6989091 C234.756691,44.7523636 234.952189,45.012 235.018811,45.4952727 C235.095263,46.0069091 235.174991,46.2021818 235.226323,46.3090909 L234.676963,46.3090909 C234.599419,46.2021818 234.519691,45.9021818 234.454161,45.4690909 C234.37771,45.0512727 234.165829,44.8941818 233.746438,44.8941818 L233.382747,44.8941818 L233.382747,46.3101818 L233.381654,46.3101818 Z M233.381654,44.4905455 L233.761728,44.4905455 C234.192041,44.4905455 234.557917,44.3323636 234.557917,43.9254545 C234.557917,43.6374545 234.350406,43.3505455 233.761728,43.3505455 C233.590258,43.3505455 233.471212,43.3636364 233.381654,43.3756364 L233.381654,44.4905455 Z" id="Shape"></path>
                    </g>
                </g>
            </g>
        </g>
    </g>
</svg>