<?xml version="1.0" encoding="UTF-8" standalone="no"?>
<svg width="48px" height="50px" viewBox="0 0 48 50" version="1.1" xmlns="http://www.w3.org/2000/svg" xmlns:xlink="http://www.w3.org/1999/xlink">
    <!-- Generator: sketchtool 49.1 (51147) - http://www.bohemiancoding.com/sketch -->
    <title>25B80A8F-3002-4672-8F77-B80FDC589D6D</title>
    <desc>Created with sketchtool.</desc>
    <defs></defs>
    <g id="Page-1" stroke="none" stroke-width="1" fill="none" fill-rule="evenodd" stroke-linecap="round" stroke-linejoin="round">
        <g id="homepage@2x" transform="translate(-1029.000000, -1994.000000)" stroke="#505070" stroke-width="2">
            <g id="setps" transform="translate(232.000000, 1985.000000)">
                <g id="generate-icon" transform="translate(798.000000, 10.000000)">
                    <g id="Group-17">
                        <polygon id="Stroke-1" points="0 48 46 48 46 0 0 0"></polygon>
                        <path d="M8,0 L8,48" id="Stroke-3"></path>
                        <path d="M0,36 L46,36" id="Stroke-4"></path>
                        <path d="M0,12 L46,12" id="Stroke-5"></path>
                        <path d="M0,42 L8,42" id="Stroke-6"></path>
                        <path d="M38,0 L38,48" id="Stroke-7"></path>
                        <path d="M46,42 L38,42" id="Stroke-8"></path>
                        <path d="M0,24 L8,24" id="Stroke-9"></path>
                        <path d="M46,24 L38,24" id="Stroke-10"></path>
                        <path d="M0,18 L8,18" id="Stroke-11"></path>
                        <path d="M46,18 L38,18" id="Stroke-12"></path>
                        <path d="M0,6 L8,6" id="Stroke-13"></path>
                        <path d="M46,6 L38,6" id="Stroke-14"></path>
                        <path d="M0,30 L8,30" id="Stroke-15"></path>
                        <path d="M46,30 L38,30" id="Stroke-16"></path>
                    </g>
                    <polygon id="Stroke-18" points="19 30 19 18 29 24"></polygon>
                </g>
            </g>
        </g>
    </g>
</svg>