<?xml version="1.0" encoding="UTF-8" standalone="no"?>
<svg width="153px" height="48px" viewBox="0 0 153 48" version="1.1" xmlns="http://www.w3.org/2000/svg" xmlns:xlink="http://www.w3.org/1999/xlink">
    <!-- Generator: sketchtool 49.1 (51147) - http://www.bohemiancoding.com/sketch -->
    <title>7320E57D-6604-41A7-BF7D-52EAA857E652</title>
    <desc>Created with sketchtool.</desc>
    <defs></defs>
    <g id="Page-1" stroke="none" stroke-width="1" fill="none" fill-rule="evenodd" opacity="0.5">
        <g id="homepage@2x" transform="translate(-1214.000000, -882.000000)" fill="#3D4367" fill-rule="nonzero">
            <g id="integrations" transform="translate(0.000000, 806.000000)">
                <g id="logos" transform="translate(73.000000, 64.000000)">
                    <g id="google" transform="translate(1141.000000, 12.000000)">
                        <path d="M19.2291892,17.0921739 L19.2291892,22.226087 L31.4659459,22.226087 C31.0913514,25.106087 30.1340541,27.213913 28.6772973,28.6956522 C26.8875676,30.4904348 24.0989189,32.4521739 19.2291892,32.4521739 C11.6956757,32.4521739 5.80621622,26.3582609 5.80621622,18.8034783 C5.80621622,11.2486957 11.6956757,5.15478261 19.2291892,5.15478261 C23.2872973,5.15478261 26.2632432,6.76173913 28.4483784,8.82782609 L32.0486486,5.2173913 C29.0102703,2.25391304 24.9313514,0 19.2291892,0 C8.90702703,0 0.228918919,8.43130435 0.228918919,18.7826087 C0.228918919,29.133913 8.90702703,37.5652174 19.2291892,37.5652174 C24.8064865,37.5652174 29.0102703,35.7286957 32.2983784,32.306087 C35.6697297,28.9252174 36.7310811,24.146087 36.7310811,20.306087 C36.7310811,19.1165217 36.6478378,18.0104348 36.4605405,17.0921739 L19.2291892,17.0921739 Z" id="Shape"></path>
                        <path d="M52.027027,12.9182609 C45.3467568,12.9182609 39.8943243,18.0104348 39.8943243,25.0434783 C39.8943243,32.013913 45.3467568,37.1686957 52.027027,37.1686957 C58.7072973,37.1686957 64.1597297,32.0347826 64.1597297,25.0434783 C64.1597297,18.0104348 58.7072973,12.9182609 52.027027,12.9182609 Z M52.027027,32.3895652 C48.3643243,32.3895652 45.2010811,29.3634783 45.2010811,25.0434783 C45.2010811,20.6817391 48.3643243,17.6973913 52.027027,17.6973913 C55.6897297,17.6973913 58.852973,20.6817391 58.852973,25.0434783 C58.852973,29.3634783 55.6897297,32.3895652 52.027027,32.3895652 Z" id="Shape"></path>
                        <path d="M111.504324,15.6313043 L111.317027,15.6313043 C110.130811,14.2121739 107.841622,12.9182609 104.948919,12.9182609 C98.9137838,12.9182609 93.6486486,18.1982609 93.6486486,25.0434783 C93.6486486,31.8469565 98.9137838,37.1686957 104.948919,37.1686957 C107.841622,37.1686957 110.130811,35.8747826 111.317027,34.413913 L111.504324,34.413913 L111.504324,36.1043478 C111.504324,40.7373913 109.027838,43.2208696 105.052973,43.2208696 C101.806486,43.2208696 99.7878378,40.8834783 98.9554054,38.9008696 L94.3354054,40.8208696 C95.6672973,44.0347826 99.1843243,47.9791304 105.052973,47.9791304 C111.275405,47.9791304 116.540541,44.306087 116.540541,35.3530435 L116.540541,13.5443478 L111.504324,13.5443478 L111.504324,15.6313043 Z M105.406757,32.3895652 C101.744054,32.3895652 98.9554054,29.2591304 98.9554054,25.0434783 C98.9554054,20.7652174 101.744054,17.6973913 105.406757,17.6973913 C109.027838,17.6973913 111.858108,20.8278261 111.858108,25.0852174 C111.878919,29.3217391 109.027838,32.3895652 105.406757,32.3895652 Z" id="Shape"></path>
                        <path d="M79.0810811,12.9182609 C72.4008108,12.9182609 66.9483784,18.0104348 66.9483784,25.0434783 C66.9483784,32.013913 72.4008108,37.1686957 79.0810811,37.1686957 C85.7613514,37.1686957 91.2137838,32.0347826 91.2137838,25.0434783 C91.2137838,18.0104348 85.7613514,12.9182609 79.0810811,12.9182609 Z M79.0810811,32.3895652 C75.4183784,32.3895652 72.2551351,29.3634783 72.2551351,25.0434783 C72.2551351,20.6817391 75.4183784,17.6973913 79.0810811,17.6973913 C82.7437838,17.6973913 85.907027,20.6817391 85.907027,25.0434783 C85.907027,29.3634783 82.7437838,32.3895652 79.0810811,32.3895652 Z" id="Shape"></path>
                        <polygon id="Shape" points="120.702703 0.500869565 125.926216 0.500869565 125.926216 37.1686957 120.702703 37.1686957"></polygon>
                        <path d="M142.054595,32.3895652 C139.349189,32.3895652 137.434595,31.1582609 136.185946,28.7165217 L152.355946,22.0173913 L151.814865,20.64 C150.815946,17.9269565 147.735946,12.9182609 141.471892,12.9182609 C135.249459,12.9182609 130.067568,17.8226087 130.067568,25.0434783 C130.067568,31.8469565 135.187027,37.1686957 142.054595,37.1686957 C147.59027,37.1686957 150.795135,33.7669565 152.127027,31.8052174 L148.006486,29.0504348 C146.632973,31.053913 144.76,32.3895652 142.054595,32.3895652 Z M141.68,17.4678261 C143.823514,17.4678261 145.654865,18.573913 146.258378,20.1391304 L135.332703,24.6678261 C135.332703,19.5756522 138.932973,17.4678261 141.68,17.4678261 Z" id="Shape"></path>
                    </g>
                </g>
            </g>
        </g>
    </g>
</svg>