<?xml version="1.0" encoding="UTF-8" standalone="no"?>
<svg width="56px" height="56px" viewBox="0 0 56 56" version="1.1" xmlns="http://www.w3.org/2000/svg" xmlns:xlink="http://www.w3.org/1999/xlink">
    <!-- Generator: sketchtool 49.1 (51147) - http://www.bohemiancoding.com/sketch -->
    <title>C492DF3D-0E04-4866-829E-3486B3A91839</title>
    <desc>Created with sketchtool.</desc>
    <defs></defs>
    <g id="Page-1" stroke="none" stroke-width="1" fill="none" fill-rule="evenodd" stroke-linecap="round" stroke-linejoin="round">
        <g id="homepage@2x" transform="translate(-691.000000, -1082.000000)" stroke="#0EBAED" stroke-width="2">
            <g id="value-props" transform="translate(230.000000, 1078.000000)">
                <g id="grow-icon" transform="translate(462.000000, 5.000000)">
                    <path d="M13.4331,37 L40.4251,37" id="Stroke-1"></path>
                    <path d="M54,27 C54,41.912 41.912,54 27,54 C12.088,54 0,41.912 0,27 C0,12.088 12.088,0 27,0 C41.912,0 54,12.088 54,27 Z" id="Stroke-2"></path>
                    <path d="M44,27 C44,36.389 36.389,44 27,44 C17.611,44 10,36.389 10,27 C10,17.611 17.611,10 27,10 C36.389,10 44,17.611 44,27 Z" id="Stroke-4"></path>
                    <path d="M27,0 L27,9.89" id="Stroke-6"></path>
                    <path d="M3.6172,40.5 L12.1632,35.565" id="Stroke-8"></path>
                    <path d="M50.3828,40.5 L41.8138,35.553" id="Stroke-10"></path>
                    <path d="M26.9614,6.2886 L21.3364,0.6636" id="Stroke-12"></path>
                    <path d="M25.0151,10.0474 L16.9841,2.0164" id="Stroke-14"></path>
                    <path d="M20.4644,11.2021 L13.1314,3.8691" id="Stroke-16"></path>
                    <path d="M16.7788,13.2212 L9.7788,6.2212" id="Stroke-18"></path>
                    <path d="M13.8428,15.9902 L6.9258,9.0732" id="Stroke-20"></path>
                    <path d="M11.6987,19.5513 L4.4487,12.3013" id="Stroke-22"></path>
                    <path d="M10.1797,23.7373 L2.5127,16.0703" id="Stroke-24"></path>
                    <path d="M10.0874,29.3496 L1.0354,20.2976" id="Stroke-26"></path>
                    <path d="M11.1411,36.1084 L0.1831,25.1504" id="Stroke-28"></path>
                    <path d="M7.4971,38.1699 L0.4551,31.1279" id="Stroke-30"></path>
                    <path d="M28,4 L40.813,4" id="Stroke-32" stroke-dasharray="0,4"></path>
                    <path d="M30,8 L46,8" id="Stroke-34" stroke-dasharray="0,4"></path>
                    <path d="M36,12 L49.325,12" id="Stroke-36" stroke-dasharray="0,4"></path>
                    <path d="M42,16 L51.466,16" id="Stroke-38" stroke-dasharray="0,4"></path>
                    <path d="M44,20 L53,20" id="Stroke-40" stroke-dasharray="0,4"></path>
                    <path d="M46,24 L53.687,24" id="Stroke-42" stroke-dasharray="0,4"></path>
                    <path d="M44,28 L53.813,28" id="Stroke-44" stroke-dasharray="0,4"></path>
                    <path d="M46,32 L53.433,32" id="Stroke-46" stroke-dasharray="0,4"></path>
                    <path d="M44,36 L52.425,36" id="Stroke-48" stroke-dasharray="0,4"></path>
                    <path d="M24,37 L18,37 L18,29 C18,28.447 18.448,28 19,28 L23,28 C23.552,28 24,28.447 24,29 L24,37 Z" id="Stroke-50"></path>
                    <path d="M36,37 L30,37 L30,19 C30,18.448 30.448,18 31,18 L35,18 C35.552,18 36,18.448 36,19 L36,37 Z" id="Stroke-52"></path>
                    <path d="M30,37 L24,37 L24,24 C24,23.448 24.448,23 25,23 L29,23 C29.552,23 30,23.448 30,24 L30,37 Z" id="Stroke-54"></path>
                </g>
            </g>
        </g>
    </g>
</svg>