<svg width="763" height="474" viewBox="0 0 763 474" version="1.1" xmlns="http://www.w3.org/2000/svg" xmlns:xlink="http://www.w3.org/1999/xlink">
<title>hero-devices</title>
<desc>Created using Figma</desc>
<g id="Canvas" transform="translate(-2155 1937)">
<g id="hero-devices">
<g id="imac">
<g id="imac-bg">
<use xlink:href="#path0_fill" transform="translate(2375.43 -1935)" fill="#FFFFFF"/>
</g>
<g id="Fill 50">
<use xlink:href="#path1_fill" transform="translate(2375.43 -1935)" fill="#828282"/>
</g>
<g id="Fill 51">
<use xlink:href="#path2_fill" transform="translate(2561.24 -1546.19)" fill="#828282"/>
</g>
<g id="Fill 52">
<use xlink:href="#path3_fill" transform="translate(2636.8 -1927.11)" fill="#828282"/>
</g>
<g id="Fill 53">
<use xlink:href="#path4_fill" transform="translate(2641.68 -1928.61)" fill="#828282"/>
</g>
<g id="Fill 358">
<use xlink:href="#path5_fill" transform="translate(2405.8 -1900.85)" fill="#FFFFFF"/>
</g>
<g id="Fill 56">
<use xlink:href="#path6_fill" transform="translate(2405.8 -1900.85)" fill="#828282"/>
</g>
<g id="Fill 93">
<use xlink:href="#path7_fill" transform="translate(2375.43 -1596.85)" fill="#828282"/>
</g>
<g id="Fill 94">
<use xlink:href="#path8_fill" transform="translate(2643.37 -1926.92)" fill="#828282"/>
</g>
</g>
<g id="macbook-pro">
<g id="macbook-bg">
<use xlink:href="#path9_fill" transform="translate(2155 -1749.15)" fill="#FFFFFF"/>
<mask id="mask0_outline_ins">
<use xlink:href="#path9_fill" fill="white" transform="translate(2155 -1749.15)"/>
</mask>
<g mask="url(#mask0_outline_ins)">
<use xlink:href="#path10_stroke_2x" transform="translate(2155 -1749.15)" fill="#828282"/>
</g>
</g>
<g id="Fill 602">
<use xlink:href="#path11_fill" transform="translate(2155 -1486.19)" fill="#828282"/>
</g>
<g id="Fill 603">
<use xlink:href="#path12_fill" transform="translate(2200.24 -1749.15)" fill="#828282"/>
</g>
<g id="Fill 604">
<use xlink:href="#path13_fill" transform="translate(2155 -1494.01)" fill="#828282"/>
</g>
<g id="Fill 605">
<use xlink:href="#path14_fill" transform="translate(2314.7 -1483.01)" fill="#828282"/>
</g>
<g id="Fill 606">
<use xlink:href="#path15_fill" transform="translate(2238.14 -1499.77)" fill="#828282"/>
</g>
<g id="Fill 607">
<use xlink:href="#path16_fill" transform="translate(2358.43 -1494.01)" fill="#828282"/>
</g>
<g id="Fill 841">
<use xlink:href="#path17_fill" transform="translate(2211.48 -1734.89)" fill="#FFFFFF"/>
</g>
<g id="Fill 608">
<use xlink:href="#path18_fill" transform="translate(2211.48 -1734.89)" fill="#828282"/>
</g>
<g id="Fill 609">
<use xlink:href="#path19_fill" transform="translate(2389.67 -1743.65)" fill="#828282"/>
</g>
<g id="Fill 610">
<use xlink:href="#path20_fill" transform="translate(2390.92 -1742.4)" fill="#828282"/>
</g>
<g id="Fill 612">
<use xlink:href="#path21_fill" transform="translate(2462.65 -1483.01)" fill="#828282"/>
</g>
</g>
<g id="iphone">
<g id="Fill 2730" opacity="0.1">
<use xlink:href="#path22_fill" transform="translate(2171.61 -1639.06)" fill="#828282"/>
</g>
<g id="Path">
<use xlink:href="#path23_fill" transform="translate(2168.44 -1655.02)" fill="#FFFFFF"/>
</g>
<g id="Fill 2731">
<use xlink:href="#path24_fill" transform="translate(2166 -1656)" fill="#828282"/>
<use xlink:href="#path25_stroke" transform="translate(2166 -1656)" fill="#828282"/>
</g>
<g id="Fill 3856">
<use xlink:href="#path26_fill" transform="translate(2206.97 -1486.36)" fill="#828282"/>
</g>
<g id="Fill 3857">
<use xlink:href="#path27_fill" transform="translate(2208.18 -1485.13)" fill="#828282"/>
</g>
<g id="Fill 2732">
<use xlink:href="#path28_fill" transform="translate(2171.61 -1639.06)" fill="#828282"/>
</g>
<g id="Fill 2737">
<use xlink:href="#path29_fill" transform="translate(2206.72 -1646.67)" fill="#828282"/>
</g>
<g id="Fill 2749">
<use xlink:href="#path30_fill" transform="translate(2213.31 -1652.32)" fill="#828282"/>
</g>
<g id="Fill 2752">
<use xlink:href="#path31_fill" transform="translate(2214.28 -1651.34)" fill="#828282"/>
</g>
</g>
</g>
</g>
<defs>
<path id="path0_fill" fill-rule="evenodd" d="M 327.456 429.691C 327.486 430.031 328.199 437.659 330.653 442.496C 332.019 445.191 335.313 446.398 335.598 446.498L 352.132 451.158L 353.222 452.708C 353.12 454.149 351.347 454.443 350.394 454.6C 348.246 454.956 344.524 455.137 339.333 455.137L 199.969 455.137C 194.798 455.137 191.083 454.956 188.927 454.601C 187.925 454.435 186.247 454.158 186.087 452.777L 187.17 451.158L 203.705 446.498C 203.987 446.398 207.29 445.177 208.649 442.496C 211.099 437.668 211.816 430.027 211.846 429.691L 214.495 390.316L 13.3525 390.316C 5.97804 390.316 0 384.034 0 376.285L 0 14.0307C 0 6.28184 5.97804 0 13.3525 0L 526.219 0C 533.594 0 539.573 6.28184 539.573 14.0307L 539.573 376.285C 539.573 384.034 533.594 390.316 526.219 390.316L 324.807 390.316L 327.456 429.691Z"/>
<path id="path1_fill" fill-rule="evenodd" d="M 526.219 1.50122C 532.755 1.50122 538.073 7.12177 538.073 14.0307L 538.073 376.285C 538.073 383.194 532.755 388.815 526.219 388.815L 13.3524 388.815C 6.81711 388.815 1.49976 383.194 1.49976 376.285L 1.49976 14.0307C 1.49976 7.12177 6.81711 1.50122 13.3524 1.50122L 526.219 1.50122ZM 528.512 -2L 10.4868 -2C 3.03818 -2 -3 4.34113 -3 12.1632L -3 377.836C -3 385.658 3.03818 392 10.4868 392L 528.512 392C 535.961 392 542 385.658 542 377.836L 542 12.1632C 542 4.34113 535.961 -2 528.512 -2Z"/>
<path id="path2_fill" fill-rule="evenodd" d="M 137.357 1.50122L 140.021 41.0995C 140.021 41.0995 140.718 49.2264 143.377 54.4679C 145.112 57.8884 149.214 59.2237 149.214 59.2237L 165.787 63.8951C 165.787 63.8951 165.714 64.9276 153.394 64.9276C 115.3 64.9276 44.7523 64.9276 14.03 64.9276C 1.75781 64.9276 1.63745 63.8951 1.63745 63.8951L 18.2108 59.2237C 18.2108 59.2237 22.3137 57.8884 24.0479 54.4679C 26.7064 49.2264 27.4027 41.0995 27.4027 41.0995L 30.0672 1.50122L 137.357 1.50122ZM 138.76 0L 28.6648 0L 25.9074 40.9824C 25.877 41.3187 25.1597 48.9595 22.7104 53.7882C 21.3515 56.4686 18.0485 57.6898 17.7658 57.7897L 1.23101 62.4502L 0 62.797L 0.147736 64.0689C 0.308595 65.4504 1.98581 65.7274 2.98771 65.8925C 5.14375 66.2483 8.85889 66.4288 14.03 66.4288L 153.394 66.4288C 158.586 66.4288 162.307 66.2483 164.455 65.8921C 165.408 65.7345 167.182 65.441 167.283 64.0002L 167.368 62.7812L 166.193 62.4502L 149.659 57.7897C 149.375 57.6898 146.081 56.4825 144.714 53.7882C 142.26 48.9505 141.547 41.3225 141.517 40.9824L 138.76 0Z"/>
<path id="path3_fill" fill-rule="evenodd" d="M 1.49955 0.750244C 1.91351 0.750244 2.24985 1.08539 2.24985 1.50048C 2.24985 1.91519 1.91351 2.25184 1.49955 2.25184C 1.08559 2.25184 0.75 1.91519 0.75 1.50048C 0.75 1.08539 1.08559 0.750244 1.49955 0.750244ZM 1.49948 0C 0.672685 0 0 0.67292 0 1.50047C 0 2.32876 0.672685 3.00206 1.49948 3.00206C 2.32665 3.00206 2.99971 2.32876 2.99971 1.50047C 2.99971 0.67292 2.32665 0 1.49948 0Z"/>
<path id="path4_fill" fill-rule="evenodd" d="M 2.99978 0.750977C 4.24204 0.750977 5.24956 1.75904 5.24956 3.0028C 5.24956 4.24656 4.24204 5.25462 2.99978 5.25462C 1.75715 5.25462 0.75 4.24656 0.75 3.0028C 0.75 1.75904 1.75715 0.750977 2.99978 0.750977ZM 2.99971 0C 1.34574 0 0 1.34734 0 3.00281C 0 4.65827 1.34574 6.00524 2.99971 6.00524C 4.65367 6.00524 5.99942 4.65827 5.99942 3.00281C 5.99942 1.34734 4.65367 0 2.99971 0Z"/>
<path id="path5_fill" fill-rule="evenodd" d="M 0 270.219L 479.953 270.219L 479.953 0L 0 0L 0 270.219Z"/>
<path id="path6_fill" fill-rule="evenodd" d="M 0.75 0.75061L 479.203 0.75061L 479.203 269.468L 0.75 269.468L 0.75 0.75061ZM 0 270.219L 479.953 270.219L 479.953 0L 0 0L 0 270.219Z"/>
<path id="path7_fill" fill-rule="evenodd" d="M 0 0L 539.573 0L 539.573 1.50122L 0 1.50122L 0 0Z"/>
<path id="path8_fill" fill-rule="evenodd" d="M 1.31237 2.6275C 0.588693 2.6275 0 2.03828 0 1.31394C 0 0.589603 0.588693 0 1.31237 0C 2.03605 0 2.62474 0.589603 2.62474 1.31394C 2.62474 2.03828 2.03605 2.6275 1.31237 2.6275ZM 1.31241 0.375732C 0.795334 0.375732 0.375 0.796448 0.375 1.31399C 0.375 1.83116 0.795334 2.25188 1.31241 2.25188C 1.82911 2.25188 2.24982 1.83116 2.24982 1.31399C 2.24982 0.796448 1.82911 0.375732 1.31241 0.375732Z"/>
<path id="path9_fill" fill-rule="evenodd" d="M 472.345 255.137C 472.621 255.137 472.844 263.141 472.844 263.141C 472.659 263.681 468.24 266.672 462.582 268.053C 457.237 269.358 450.774 269.394 450.095 269.394L 22.7895 269.394C 22.727 269.389 16.2024 269.408 10.6378 268.05C 4.93513 266.658 0.198685 263.689 0 263.574C 0.100211 263.487 0 255.637 0 255.637C 0 255.361 45.8643 255.137 45.8643 255.137C 45.4565 253.162 45.2351 250.754 45.2351 249.383L 45.2351 12.5067C 45.2351 5.59925 50.8295 0 57.731 0L 415.613 0C 422.515 0 428.109 5.59925 428.109 12.5067L 428.109 249.383C 428.109 250.754 427.888 253.162 427.48 255.137L 472.345 255.137Z"/>
<path id="path10_stroke_2x" d="M 472.844 263.141L 475.682 264.114L 475.858 263.6L 475.843 263.057L 472.844 263.141ZM 462.582 268.053L 463.294 270.967L 463.294 270.967L 462.582 268.053ZM 22.7895 269.394L 22.5739 272.386L 22.6815 272.394L 22.7895 272.394L 22.7895 269.394ZM 10.6378 268.05L 9.92623 270.964L 9.92639 270.964L 10.6378 268.05ZM 0 263.574L -1.96177 261.304L -5.14881 264.059L -1.50344 266.17L 0 263.574ZM 0 255.637L -3 255.637L -3 255.656L -2.99976 255.675L 0 255.637ZM 45.8643 255.137L 45.8789 258.137L 49.5435 258.119L 48.8023 254.53L 45.8643 255.137ZM 427.48 255.137L 424.542 254.53L 423.797 258.137L 427.48 258.137L 427.48 255.137ZM 472.345 258.137C 471.38 258.137 470.701 257.687 470.353 257.375C 470.02 257.076 469.836 256.772 469.755 256.63C 469.592 256.34 469.525 256.098 469.512 256.053C 469.473 255.917 469.467 255.845 469.478 255.922C 469.495 256.036 469.52 256.266 469.549 256.626C 469.604 257.323 469.656 258.281 469.701 259.274C 469.746 260.259 469.782 261.247 469.807 261.991C 469.819 262.363 469.829 262.672 469.836 262.888C 469.839 262.996 469.841 263.081 469.843 263.138C 469.844 263.167 469.845 263.189 469.845 263.203C 469.845 263.211 469.845 263.216 469.845 263.22C 469.846 263.222 469.846 263.223 469.846 263.224C 469.846 263.224 469.846 263.224 469.846 263.225C 469.846 263.225 469.846 263.225 469.846 263.225C 469.846 263.225 469.846 263.225 472.844 263.141C 475.843 263.057 475.843 263.057 475.843 263.057C 475.843 263.057 475.843 263.057 475.843 263.056C 475.843 263.056 475.843 263.056 475.843 263.055C 475.843 263.054 475.843 263.052 475.843 263.05C 475.843 263.046 475.843 263.04 475.843 263.032C 475.842 263.017 475.841 262.994 475.841 262.964C 475.839 262.904 475.836 262.816 475.833 262.706C 475.826 262.484 475.816 262.168 475.803 261.789C 475.778 261.032 475.741 260.019 475.695 259.003C 475.649 257.995 475.594 256.953 475.53 256.149C 475.499 255.758 475.461 255.363 475.413 255.04C 475.392 254.897 475.352 254.654 475.28 254.4C 475.25 254.296 475.165 254.01 474.985 253.689C 474.897 253.531 474.703 253.217 474.362 252.91C 474.005 252.59 473.318 252.137 472.345 252.137L 472.345 258.137ZM 470.007 262.168C 470.182 261.657 470.453 261.353 470.471 261.332C 470.54 261.25 470.581 261.215 470.563 261.232C 470.531 261.261 470.423 261.352 470.214 261.501C 469.807 261.792 469.172 262.194 468.344 262.64C 466.686 263.532 464.406 264.52 461.871 265.139L 463.294 270.967C 466.416 270.205 469.174 269.007 471.187 267.923C 472.195 267.381 473.052 266.848 473.703 266.383C 474.023 266.154 474.335 265.912 474.602 265.669C 474.733 265.55 474.894 265.393 475.051 265.208C 475.157 265.083 475.484 264.692 475.682 264.114L 470.007 262.168ZM 461.871 265.139C 456.907 266.35 450.762 266.394 450.095 266.394L 450.095 272.394C 450.787 272.394 457.568 272.365 463.294 270.967L 461.871 265.139ZM 450.095 266.394L 22.7895 266.394L 22.7895 272.394L 450.095 272.394L 450.095 266.394ZM 23.0051 266.402C 22.5992 266.372 16.5877 266.414 11.3491 265.135L 9.92639 270.964C 15.8172 272.402 22.8548 272.406 22.5739 272.386L 23.0051 266.402ZM 11.3493 265.135C 6.1296 263.861 1.7524 261.122 1.50344 260.978L -1.50344 266.17C -1.59089 266.119 -1.0719 266.433 -0.528971 266.739C 0.0769842 267.081 0.921552 267.536 1.94745 268.033C 3.98561 269.02 6.80228 270.201 9.92623 270.964L 11.3493 265.135ZM 1.96177 265.844C 2.43454 265.435 2.65181 264.986 2.71829 264.845C 2.80989 264.649 2.86132 264.485 2.88667 264.397C 2.93821 264.218 2.9625 264.072 2.97203 264.012C 2.9936 263.875 3.00336 263.757 3.00774 263.7C 3.01786 263.568 3.02355 263.424 3.02736 263.3C 3.03536 263.039 3.03983 262.696 3.04222 262.316C 3.04704 261.548 3.0438 260.544 3.03752 259.554C 3.03122 258.561 3.02178 257.573 3.01392 256.833C 3.00999 256.463 3.00646 256.155 3.0039 255.939C 3.00262 255.831 3.00159 255.746 3.00087 255.688C 3.00052 255.659 3.00024 255.637 3.00005 255.622C 2.99995 255.614 2.99988 255.608 2.99983 255.605C 2.99981 255.603 2.99979 255.601 2.99978 255.6C 2.99977 255.6 2.99976 255.599 2.99976 255.599C 2.99976 255.599 2.99976 255.599 2.99976 255.599C 2.99976 255.599 2.99976 255.599 0 255.637C -2.99976 255.675 -2.99976 255.675 -2.99975 255.675C -2.99975 255.675 -2.99975 255.675 -2.99975 255.675C -2.99975 255.676 -2.99975 255.676 -2.99974 255.676C -2.99973 255.677 -2.99971 255.679 -2.99969 255.681C -2.99964 255.684 -2.99957 255.69 -2.99948 255.697C -2.9993 255.712 -2.99902 255.734 -2.99867 255.762C -2.99797 255.819 -2.99695 255.903 -2.99568 256.01C -2.99315 256.224 -2.98964 256.529 -2.98574 256.897C -2.97794 257.632 -2.96859 258.611 -2.96236 259.592C -2.95612 260.576 -2.95309 261.55 -2.95766 262.278C -2.95997 262.646 -2.96412 262.931 -2.96981 263.116C -2.97285 263.215 -2.97529 263.249 -2.97472 263.241C -2.97433 263.236 -2.97313 263.221 -2.97073 263.198C -2.96861 263.178 -2.96368 263.134 -2.9544 263.075C -2.94762 263.032 -2.92617 262.9 -2.87757 262.731C -2.85369 262.649 -2.80374 262.488 -2.71366 262.296C -2.64871 262.158 -2.43298 261.711 -1.96177 261.304L 1.96177 265.844ZM 3 255.637C 3 257.028 2.10306 257.801 1.83619 258.008C 1.50455 258.264 1.1986 258.387 1.09163 258.428C 0.844513 258.524 0.643712 258.561 0.606144 258.569C 0.534117 258.583 0.481137 258.59 0.462094 258.592C 0.438821 258.595 0.425113 258.597 0.424794 258.597C 0.423498 258.597 0.428305 258.596 0.440582 258.595C 0.452544 258.594 0.46907 258.593 0.490749 258.592C 0.534593 258.589 0.592148 258.586 0.665022 258.582C 0.963592 258.567 1.4269 258.551 2.04859 258.535C 3.28397 258.503 5.06083 258.472 7.20805 258.442C 11.4985 258.382 17.2241 258.328 22.9558 258.283C 28.6861 258.238 34.417 258.201 38.7157 258.176C 40.8649 258.163 42.6559 258.153 43.9095 258.147C 44.5363 258.143 45.0288 258.141 45.3645 258.139C 45.5323 258.138 45.661 258.138 45.7477 258.137C 45.791 258.137 45.8238 258.137 45.8458 258.137C 45.8568 258.137 45.8651 258.137 45.8707 258.137C 45.8734 258.137 45.8755 258.137 45.8769 258.137C 45.8776 258.137 45.8781 258.137 45.8784 258.137C 45.8788 258.137 45.8789 258.137 45.8643 255.137C 45.8496 252.137 45.8494 252.137 45.8491 252.137C 45.8487 252.137 45.8482 252.137 45.8475 252.137C 45.8461 252.137 45.844 252.137 45.8412 252.137C 45.8356 252.137 45.8273 252.137 45.8162 252.137C 45.7941 252.137 45.7612 252.137 45.7178 252.137C 45.6309 252.138 45.502 252.138 45.3339 252.139C 44.9978 252.141 44.5049 252.143 43.8776 252.147C 42.623 252.153 40.8309 252.163 38.6803 252.176C 34.3794 252.201 28.6442 252.238 22.9085 252.283C 17.1741 252.329 11.4337 252.383 7.12454 252.442C 4.97198 252.472 3.16569 252.504 1.89288 252.537C 1.26046 252.553 0.738403 252.571 0.365133 252.589C 0.186356 252.598 -0.000815675 252.61 -0.161656 252.625C -0.227315 252.632 -0.374358 252.647 -0.539659 252.679C -0.599273 252.691 -0.816694 252.733 -1.07493 252.833C -1.18745 252.876 -1.49758 253.001 -1.832 253.26C -2.10166 253.468 -3 254.244 -3 255.637L 3 255.637ZM 48.8023 254.53C 48.4341 252.747 48.2351 250.542 48.2351 249.383L 42.2351 249.383C 42.2351 250.966 42.479 253.578 42.9263 255.743L 48.8023 254.53ZM 48.2351 249.383L 48.2351 12.5067L 42.2351 12.5067L 42.2351 249.383L 48.2351 249.383ZM 48.2351 12.5067C 48.2351 7.25366 52.4888 3 57.731 3L 57.731 -3C 49.1702 -3 42.2351 3.94484 42.2351 12.5067L 48.2351 12.5067ZM 57.731 3L 415.613 3L 415.613 -3L 57.731 -3L 57.731 3ZM 415.613 3C 420.855 3 425.109 7.25369 425.109 12.5067L 431.109 12.5067C 431.109 3.9448 424.174 -3 415.613 -3L 415.613 3ZM 425.109 12.5067L 425.109 249.383L 431.109 249.383L 431.109 12.5067L 425.109 12.5067ZM 425.109 249.383C 425.109 250.542 424.91 252.747 424.542 254.53L 430.418 255.743C 430.865 253.578 431.109 250.966 431.109 249.383L 425.109 249.383ZM 427.48 258.137L 472.345 258.137L 472.345 252.137L 427.48 252.137L 427.48 258.137Z"/>
<path id="path11_fill" fill-rule="evenodd" d="M 450.095 6.43595C 450.06 6.43595 450.04 6.43595 450.037 6.43595L 22.7895 6.43595C 22.727 6.43144 16.2024 6.44995 10.6378 5.09173C 4.93513 3.69948 0.198685 0.981025 0 0.865964L 0.500085 0C 0.54757 0.0272646 5.31625 2.76248 10.8747 4.11946C 16.3174 5.44817 22.7243 5.44266 22.7873 5.43541L 450.04 5.43541C 450.111 5.43416 456.846 5.46543 462.345 4.12271C 467.848 2.77949 472.27 0.0362694 472.315 0.00900482L 472.844 0.857209C 472.659 0.973021 468.24 3.71349 462.582 5.09498C 457.237 6.39968 450.774 6.43595 450.095 6.43595Z"/>
<path id="path12_fill" fill-rule="evenodd" d="M 370.378 1.00049C 376.717 1.00049 381.874 6.162 381.874 12.5066L 381.874 243.38C 381.874 246.69 379.184 249.383 375.876 249.383L 6.99778 249.383C 3.69037 249.383 0.999756 246.69 0.999756 243.38L 0.999756 12.5066C 0.999756 6.162 6.15681 1.00049 12.496 1.00049L 370.378 1.00049ZM 370.378 0L 12.4959 0C 5.59441 0 0 5.59925 0 12.5067L 0 243.38C 0 247.248 3.13297 250.384 6.9977 250.384L 375.876 250.384C 379.741 250.384 382.874 247.248 382.874 243.38L 382.874 12.5067C 382.874 5.59925 377.279 0 370.378 0Z"/>
<path id="path13_fill" fill-rule="evenodd" d="M 0.999756 1.00049L 471.845 1.00049L 471.845 7.50397L 0.999756 7.50397L 0.999756 1.00049ZM 472.345 0L 0.499836 0C 0.223676 0 0 0.22412 0 0.500268L 0 8.00428C 0 8.28043 0.223676 8.50455 0.499836 8.50455L 472.345 8.50455C 472.621 8.50455 472.844 8.28043 472.844 8.00428L 472.844 0.500268C 472.844 0.22412 472.621 0 472.345 0Z"/>
<path id="path14_fill" fill-rule="evenodd" d="M 2.49918 1.5008C 1.91262 1.5008 0 1.44652 0 0.750402C 0 0.0540289 1.91262 0 2.49918 0C 3.08524 0 4.99836 0.0540289 4.99836 0.750402C 4.99836 1.44652 3.08524 1.5008 2.49918 1.5008ZM 0.595459 0.750378C 0.856623 0.860437 1.51191 1.00051 2.49908 1.00051C 3.48601 1.00051 4.14129 0.860437 4.40246 0.750378C 4.14129 0.640069 3.48601 0.500244 2.49908 0.500244C 1.51191 0.500244 0.856623 0.640069 0.595459 0.750378Z"/>
<path id="path15_fill" fill-rule="evenodd" d="M 303.613 1.00049L 303.98 5.75303L 1.08008 5.75303L 1.44771 1.00049L 303.613 1.00049ZM 304.538 0L 0.522578 0L 0 6.75362L 305.06 6.75362L 304.538 0Z"/>
<path id="path16_fill" fill-rule="evenodd" d="M 64.8579 1.00049C 64.4126 2.72191 62.7858 4.0021 60.8527 4.0021L 5.12555 4.0021C 3.19244 4.0021 1.56572 2.72191 1.12012 1.00049L 64.8579 1.00049ZM 65.9783 0L 0 0L 0 0.0500268C 0 2.78524 2.29475 5.00268 5.12556 5.00268L 60.8527 5.00268C 63.6836 5.00268 65.9783 2.78524 65.9783 0.0500268L 65.9783 0Z"/>
<path id="path17_fill" fill-rule="evenodd" d="M 0 225.121L 359.882 225.121L 359.882 0L 0 0L 0 225.121Z"/>
<path id="path18_fill" fill-rule="evenodd" d="M 0.499756 0.500244L 359.382 0.500244L 359.382 224.62L 0.499756 224.62L 0.499756 0.500244ZM 0 225.121L 359.882 225.121L 359.882 0L 0 0L 0 225.121Z"/>
<path id="path19_fill" fill-rule="evenodd" d="M 2.1243 4.25228C 0.952937 4.25228 0 3.29852 0 2.12614C 0 0.953761 0.952937 0 2.1243 0C 3.29567 0 4.2486 0.953761 4.2486 2.12614C 4.2486 3.29852 3.29567 4.25228 2.1243 4.25228ZM 2.12422 0.500244C 1.22852 0.500244 0.499756 1.22963 0.499756 2.12611C 0.499756 3.02259 1.22852 3.75198 2.12422 3.75198C 3.01993 3.75198 3.74869 3.02259 3.74869 2.12611C 3.74869 1.22963 3.01993 0.500244 2.12422 0.500244Z"/>
<path id="path20_fill" fill-rule="evenodd" d="M 0.874794 0.250122C 1.21918 0.250122 1.49959 0.530772 1.49959 0.875457C 1.49959 1.22014 1.21918 1.50079 0.874794 1.50079C 0.530408 1.50079 0.25 1.22014 0.25 0.875457C 0.25 0.530772 0.530408 0.250122 0.874794 0.250122ZM 0.874712 0C 0.391621 0 0 0.39171 0 0.875469C 0 1.35898 0.391621 1.75094 0.874712 1.75094C 1.3578 1.75094 1.74942 1.35898 1.74942 0.875469C 1.74942 0.39171 1.3578 0 0.874712 0Z"/>
<path id="path21_fill" fill-rule="evenodd" d="M 2.49918 1.5008C 1.91287 1.5008 0 1.44652 0 0.750402C 0 0.0540289 1.91287 0 2.49918 0C 3.08548 0 4.99836 0.0540289 4.99836 0.750402C 4.99836 1.44652 3.08548 1.5008 2.49918 1.5008ZM 0.595459 0.750378C 0.856623 0.860437 1.51191 1.00051 2.49908 1.00051C 3.48601 1.00051 4.14154 0.860437 4.40246 0.750378C 4.14154 0.640069 3.48601 0.500244 2.49908 0.500244C 1.51191 0.500244 0.856623 0.640069 0.595459 0.750378Z"/>
<path id="path22_fill" fill-rule="evenodd" d="M 85.8325 0L 1.95074 0C 0.873443 0 0 0.832436 0 1.85967L 0 146.914C 0 147.941 0.873443 148.774 1.95074 148.774L 85.8325 148.774C 86.9098 148.774 87.7832 147.941 87.7832 146.914L 87.7832 1.85967C 87.7832 0.832436 86.9098 0 85.8325 0Z"/>
<path id="path23_fill" fill-rule="evenodd" d="M 94.1232 177.743C 94.1232 183.97 89.0915 189.036 82.9064 189.036L 11.2167 189.036C 5.03193 189.036 0 183.97 0 177.743L 0 11.2931C 0 5.06592 5.03193 0 11.2167 0L 82.9064 0C 89.0915 0 94.1232 5.06592 94.1232 11.2931L 94.1232 177.743Z"/>
<path id="path24_fill" fill-rule="evenodd" d="M 98.5123 42.9627L 97.5369 42.9627L 97.5369 12.2751C 97.5369 5.49579 92.0785 0 85.3448 0L 13.6552 0C 6.92171 0 1.46305 5.49579 1.46305 12.2751L 1.46305 25.2866L 0.487685 25.2866C 0.218483 25.2866 0 25.5066 0 25.7776L 0 54.2558C 0 54.5268 0.218483 54.7468 0.487685 54.7468L 1.46305 54.7468L 1.46305 178.725C 1.46305 185.504 6.92171 191 13.6552 191L 85.3448 191C 92.0785 191 97.5369 185.504 97.5369 178.725L 97.5369 59.1658L 98.5123 59.1658C 98.7815 59.1658 99 58.9458 99 58.6748L 99 43.4537C 99 43.1827 98.7815 42.9627 98.5123 42.9627ZM 96.5616 178.725C 96.5616 184.952 91.5299 190.018 85.3449 190.018L 13.6552 190.018C 7.47041 190.018 2.43848 184.952 2.43848 178.725L 2.43848 12.2751C 2.43848 6.04798 7.47041 0.982056 13.6552 0.982056L 85.3449 0.982056C 91.5299 0.982056 96.5616 6.04798 96.5616 12.2751L 96.5616 178.725Z"/>
<path id="path25_stroke" d="M 97.5369 42.9627L 96.0369 42.9627L 96.0369 44.4627L 97.5369 44.4627L 97.5369 42.9627ZM 1.46305 25.2866L 1.46305 26.7866L 2.96305 26.7866L 2.96305 25.2866L 1.46305 25.2866ZM 1.46305 54.7468L 2.96305 54.7468L 2.96305 53.2468L 1.46305 53.2468L 1.46305 54.7468ZM 97.5369 59.1658L 97.5369 57.6658L 96.0369 57.6658L 96.0369 59.1658L 97.5369 59.1658ZM 98.5123 41.4627L 97.5369 41.4627L 97.5369 44.4627L 98.5123 44.4627L 98.5123 41.4627ZM 99.0369 42.9627L 99.0369 12.2751L 96.0369 12.2751L 96.0369 42.9627L 99.0369 42.9627ZM 99.0369 12.2751C 99.0369 4.67699 92.9165 -1.5 85.3448 -1.5L 85.3448 1.5C 91.2405 1.5 96.0369 6.3146 96.0369 12.2751L 99.0369 12.2751ZM 85.3448 -1.5L 13.6552 -1.5L 13.6552 1.5L 85.3448 1.5L 85.3448 -1.5ZM 13.6552 -1.5C 6.08371 -1.5 -0.0369458 4.67697 -0.0369458 12.2751L 2.96305 12.2751C 2.96305 6.31461 7.75971 1.5 13.6552 1.5L 13.6552 -1.5ZM -0.0369458 12.2751L -0.0369458 25.2866L 2.96305 25.2866L 2.96305 12.2751L -0.0369458 12.2751ZM 1.46305 23.7866L 0.487685 23.7866L 0.487685 26.7866L 1.46305 26.7866L 1.46305 23.7866ZM 0.487685 23.7866C -0.619519 23.7866 -1.5 24.6878 -1.5 25.7776L 1.5 25.7776C 1.5 26.3254 1.05648 26.7866 0.487685 26.7866L 0.487685 23.7866ZM -1.5 25.7776L -1.5 54.2558L 1.5 54.2558L 1.5 25.7776L -1.5 25.7776ZM -1.5 54.2558C -1.5 55.3456 -0.619526 56.2468 0.487685 56.2468L 0.487685 53.2468C 1.05649 53.2468 1.5 53.708 1.5 54.2558L -1.5 54.2558ZM 0.487685 56.2468L 1.46305 56.2468L 1.46305 53.2468L 0.487685 53.2468L 0.487685 56.2468ZM -0.0369458 54.7468L -0.0369458 178.725L 2.96305 178.725L 2.96305 54.7468L -0.0369458 54.7468ZM -0.0369458 178.725C -0.0369458 186.323 6.08371 192.5 13.6552 192.5L 13.6552 189.5C 7.75971 189.5 2.96305 184.685 2.96305 178.725L -0.0369458 178.725ZM 13.6552 192.5L 85.3448 192.5L 85.3448 189.5L 13.6552 189.5L 13.6552 192.5ZM 85.3448 192.5C 92.9165 192.5 99.0369 186.323 99.0369 178.725L 96.0369 178.725C 96.0369 184.685 91.2405 189.5 85.3448 189.5L 85.3448 192.5ZM 99.0369 178.725L 99.0369 59.1658L 96.0369 59.1658L 96.0369 178.725L 99.0369 178.725ZM 97.5369 60.6658L 98.5123 60.6658L 98.5123 57.6658L 97.5369 57.6658L 97.5369 60.6658ZM 98.5123 60.6658C 99.6195 60.6658 100.5 59.7647 100.5 58.6748L 97.5 58.6748C 97.5 58.127 97.9435 57.6658 98.5123 57.6658L 98.5123 60.6658ZM 100.5 58.6748L 100.5 43.4537L 97.5 43.4537L 97.5 58.6748L 100.5 58.6748ZM 100.5 43.4537C 100.5 42.3639 99.6195 41.4627 98.5123 41.4627L 98.5123 44.4627C 97.9435 44.4627 97.5 44.0015 97.5 43.4537L 100.5 43.4537ZM 95.0616 178.725C 95.0616 184.133 90.6919 188.518 85.3449 188.518L 85.3449 191.518C 92.368 191.518 98.0616 185.771 98.0616 178.725L 95.0616 178.725ZM 85.3449 188.518L 13.6552 188.518L 13.6552 191.518L 85.3449 191.518L 85.3449 188.518ZM 13.6552 188.518C 8.30841 188.518 3.93848 184.133 3.93848 178.725L 0.938477 178.725C 0.938477 185.771 6.63241 191.518 13.6552 191.518L 13.6552 188.518ZM 3.93848 178.725L 3.93848 12.2751L 0.938477 12.2751L 0.938477 178.725L 3.93848 178.725ZM 3.93848 12.2751C 3.93848 6.86682 8.30839 2.48206 13.6552 2.48206L 13.6552 -0.517944C 6.63243 -0.517944 0.938477 5.22913 0.938477 12.2751L 3.93848 12.2751ZM 13.6552 2.48206L 85.3449 2.48206L 85.3449 -0.517944L 13.6552 -0.517944L 13.6552 2.48206ZM 85.3449 2.48206C 90.6919 2.48206 95.0616 6.8668 95.0616 12.2751L 98.0616 12.2751C 98.0616 5.22915 92.3679 -0.517944 85.3449 -0.517944L 85.3449 2.48206ZM 95.0616 12.2751L 95.0616 178.725L 98.0616 178.725L 98.0616 12.2751L 95.0616 12.2751Z"/>
<path id="path26_fill" fill-rule="evenodd" d="M 8.53448 0C 3.82101 0 0 3.847 0 8.59254C 0 13.3381 3.82101 17.1851 8.53448 17.1851C 13.248 17.1851 17.069 13.3381 17.069 8.59254C 17.069 3.847 13.248 0 8.53448 0ZM 8.53459 16.6941C 4.09764 16.6941 0.487793 13.0597 0.487793 8.59251C 0.487793 4.12537 4.09764 0.490967 8.53459 0.490967C 12.9718 0.490967 16.5814 4.12537 16.5814 8.59251C 16.5814 13.0597 12.9718 16.6941 8.53459 16.6941Z"/>
<path id="path27_fill" fill-rule="evenodd" d="M 7.31527 0C 3.27529 0 0 3.29733 0 7.36504C 0 11.4325 3.27529 14.7301 7.31527 14.7301C 11.3555 14.7301 14.6305 11.4325 14.6305 7.36504C 14.6305 3.29733 11.3555 0 7.31527 0ZM 7.31538 14.239C 3.5507 14.239 0.487793 11.1553 0.487793 7.365C 0.487793 3.57471 3.5507 0.490967 7.31538 0.490967C 11.0801 0.490967 14.143 3.57471 14.143 7.365C 14.143 11.1553 11.0801 14.239 7.31538 14.239Z"/>
<path id="path28_fill" fill-rule="evenodd" d="M 85.8326 0.464966C 86.6393 0.464966 87.2957 1.09051 87.2957 1.85972L 87.2957 146.914C 87.2957 147.683 86.6393 148.309 85.8326 148.309L 1.95085 148.309C 1.14422 148.309 0.487793 147.683 0.487793 146.914L 0.487793 1.85972C 0.487793 1.09051 1.14422 0.464966 1.95085 0.464966L 85.8326 0.464966ZM 85.8325 0L 1.95074 0C 0.873443 0 0 0.832436 0 1.85967L 0 146.914C 0 147.941 0.873443 148.774 1.95074 148.774L 85.8325 148.774C 86.9098 148.774 87.7832 147.941 87.7832 146.914L 87.7832 1.85967C 87.7832 0.832436 86.9098 0 85.8325 0Z"/>
<path id="path29_fill" fill-rule="evenodd" d="M 16.1058 0L 1.45086 0C 0.650815 0 0 0.655243 0 1.48528C 0 2.29077 0.650815 2.94602 1.45086 2.94602L 16.1058 2.94602C 16.9058 2.94602 17.5567 2.29077 17.5567 1.46073C 17.5567 0.655243 16.9058 0 16.1058 0ZM 16.1059 2.45498L 1.45097 2.45498C 0.919882 2.45498 0.487793 2.0197 0.487793 1.4607C 0.487793 0.925995 0.919882 0.490967 1.45097 0.490967L 16.1059 0.490967C 16.637 0.490967 17.0691 0.925995 17.0691 1.48525C 17.0691 2.0197 16.637 2.45498 16.1059 2.45498Z"/>
<path id="path30_fill" fill-rule="evenodd" d="M 2.19458 0C 0.984392 0 0 0.991089 0 2.20951C 0 3.42793 0.984392 4.41902 2.19458 4.41902C 3.40477 4.41902 4.38916 3.42793 4.38916 2.20951C 4.38916 0.991089 3.40477 0 2.19458 0ZM 2.19469 3.92798C 1.2537 3.92798 0.487793 3.15687 0.487793 2.20948C 0.487793 1.26209 1.2537 0.490967 2.19469 0.490967C 3.13568 0.490967 3.90159 1.26209 3.90159 2.20948C 3.90159 3.15687 3.13568 3.92798 2.19469 3.92798Z"/>
<path id="path31_fill" fill-rule="evenodd" d="M 1.21921 0C 0.545963 0 0 0.549432 0 1.22751C 0 1.90534 0.545963 2.45501 1.21921 2.45501C 1.8927 2.45501 2.43842 1.90534 2.43842 1.22751C 2.43842 0.549432 1.8927 0 1.21921 0ZM 1.21927 2.20949C 0.68135 2.20949 0.243896 1.76906 0.243896 1.22749C 0.243896 0.685913 0.68135 0.245483 1.21927 0.245483C 1.75718 0.245483 2.19464 0.685913 2.19464 1.22749C 2.19464 1.76906 1.75718 2.20949 1.21927 2.20949Z"/>
</defs>
</svg>
