<?xml version="1.0" encoding="UTF-8" standalone="no"?>
<svg width="56px" height="54px" viewBox="0 0 56 54" version="1.1" xmlns="http://www.w3.org/2000/svg" xmlns:xlink="http://www.w3.org/1999/xlink">
    <!-- Generator: sketchtool 49.1 (51147) - http://www.bohemiancoding.com/sketch -->
    <title>02014387-C8DB-46F2-81FA-8670F494ADD4</title>
    <desc>Created with sketchtool.</desc>
    <defs></defs>
    <g id="Page-1" stroke="none" stroke-width="1" fill="none" fill-rule="evenodd" stroke-linecap="round" stroke-linejoin="round">
        <g id="homepage@2x" transform="translate(-575.000000, -3448.000000)" stroke="#505070" stroke-width="2">
            <g id="new-rules-new-tools" transform="translate(241.000000, 3108.000000)">
                <g id="features" transform="translate(0.000000, 217.000000)">
                    <g id="feature" transform="translate(335.000000, 121.000000)">
                        <g id="import-icon" transform="translate(0.000000, 3.000000)">
                            <path d="M50,24 L50,14 C50,12.896 49.104,12 48,12 L2,12 C0.896,12 0,12.896 0,14 L0,44 C0,45.104 0.896,46 2,46 L24,46" id="Stroke-1"></path>
                            <path d="M50,20 L50,8 C50,6.896 49.104,6 48,6 L26,6 C24.896,6 24,5.104 24,4 L24,2 C24,0.896 23.104,0 22,0 L8,0 C6.896,0 6,0.896 6,2 L6,4 C6,5.104 5.104,6 4,6 L2,6 C0.896,6 0,6.896 0,8 L0,20" id="Stroke-3"></path>
                            <path d="M54,40 C54,46.627 48.627,52 42,52 C35.373,52 30,46.627 30,40 C30,33.373 35.373,28 42,28 C48.627,28 54,33.373 54,40 Z" id="Stroke-5"></path>
                            <polyline id="Stroke-7" points="37 41 40.667 44.5 47 35.5"></polyline>
                        </g>
                    </g>
                </g>
            </g>
        </g>
    </g>
</svg>