<?xml version="1.0" encoding="UTF-8" standalone="no"?>
<svg width="64px" height="64px" viewBox="0 0 64 64" version="1.1" xmlns="http://www.w3.org/2000/svg" xmlns:xlink="http://www.w3.org/1999/xlink">
    <!-- Generator: sketchtool 49.1 (51147) - http://www.bohemiancoding.com/sketch -->
    <title>5712BE44-3F34-4696-AAE1-528731CB1349</title>
    <desc>Created with sketchtool.</desc>
    <defs></defs>
    <g id="Page-1" stroke="none" stroke-width="1" fill="none" fill-rule="evenodd" opacity="0.5">
        <g id="homepage@2x" transform="translate(-1086.000000, -870.000000)" fill="#3D4367">
            <g id="integrations" transform="translate(0.000000, 806.000000)">
                <g id="logos" transform="translate(73.000000, 64.000000)">
                    <path d="M1045.00006,0 C1053.69068,0 1054.78042,0.036837018 1058.19356,0.192568687 C1061.59959,0.347919284 1063.92578,0.888915352 1065.96122,1.68002207 C1068.0655,2.49767685 1069.85006,3.59186331 1071.62916,5.37083723 C1073.40814,7.14993817 1074.50232,8.93450116 1075.3201,11.0387841 C1076.11108,13.0742198 1076.65208,15.400414 1076.80743,18.8064409 C1076.96316,22.2195812 1077,23.3093218 1077,32.0000635 C1077,40.6906782 1076.96316,41.7804188 1076.80743,45.1935591 C1076.65208,48.599586 1076.11108,50.9257802 1075.3201,52.9612159 C1074.50232,55.0654988 1073.40814,56.8500618 1071.62916,58.6291628 C1069.85006,60.4081367 1068.0655,61.5023232 1065.96122,62.320105 C1063.92578,63.1110846 1061.59959,63.6520807 1058.19356,63.8074313 C1054.78042,63.963163 1053.69068,64 1045.00006,64 C1036.30932,64 1035.21958,63.963163 1031.80644,63.8074313 C1028.40041,63.6520807 1026.07422,63.1110846 1024.03878,62.320105 C1021.9345,61.5023232 1020.14994,60.4081367 1018.37084,58.6291628 C1016.59186,56.8500618 1015.49768,55.0654988 1014.68002,52.9612159 C1013.88892,50.9257802 1013.34792,48.599586 1013.19257,45.1935591 C1013.03684,41.7804188 1013,40.6906782 1013,32.0000635 C1013,23.3093218 1013.03684,22.2195812 1013.19257,18.8064409 C1013.34792,15.400414 1013.88892,13.0742198 1014.68002,11.0387841 C1015.49768,8.93450116 1016.59186,7.14993817 1018.37084,5.37083723 C1020.14994,3.59186331 1021.9345,2.49767685 1024.03878,1.68002207 C1026.07422,0.888915352 1028.40041,0.347919284 1031.80644,0.192568687 C1035.21958,0.036837018 1036.30932,0 1045.00006,0 Z M1045.00006,5.76575547 C1036.45565,5.76575547 1035.44352,5.79840069 1032.06925,5.95235402 C1028.94929,6.09462112 1027.25491,6.61592844 1026.12732,7.05416193 C1024.63364,7.63466252 1023.56765,8.32808763 1022.44793,9.44793298 C1021.32809,10.5676513 1020.63466,11.6336384 1020.05416,13.127316 C1019.61593,14.2549098 1019.09462,15.9492856 1018.95235,19.069254 C1018.7984,22.4435248 1018.76576,23.4556537 1018.76576,32.0000635 C1018.76576,40.5443463 1018.7984,41.5564752 1018.95235,44.930746 C1019.09462,48.0507144 1019.61593,49.7450902 1020.05416,50.872684 C1020.63466,52.3663616 1021.32821,53.4323487 1022.44793,54.552067 C1023.56765,55.6719124 1024.63364,56.3653375 1026.12732,56.9458381 C1027.25491,57.3840716 1028.94929,57.9053789 1032.06925,58.047646 C1035.44314,58.2015993 1036.45502,58.2342445 1045.00006,58.2342445 C1053.54498,58.2342445 1054.55698,58.2015993 1057.93075,58.047646 C1061.05071,57.9053789 1062.74509,57.3840716 1063.87268,56.9458381 C1065.36636,56.3653375 1066.43235,55.6719124 1067.55207,54.552067 C1068.67191,53.4323487 1069.36534,52.3663616 1069.94584,50.872684 C1070.38407,49.7450902 1070.90538,48.0507144 1071.04765,44.930746 C1071.2016,41.5564752 1071.23424,40.5443463 1071.23424,32.0000635 C1071.23424,23.4556537 1071.2016,22.4435248 1071.04765,19.069254 C1070.90538,15.9492856 1070.38407,14.2549098 1069.94584,13.127316 C1069.36534,11.6336384 1068.67191,10.5676513 1067.55207,9.44793298 C1066.43235,8.32808763 1065.36636,7.63466252 1063.87268,7.05416193 C1062.74509,6.61592844 1061.05071,6.09462112 1057.93075,5.95235402 C1054.55648,5.79840069 1053.54435,5.76575547 1045.00006,5.76575547 Z M1045.00006,15.5675779 C1054.07543,15.5675779 1061.43242,22.9245655 1061.43242,32.0000635 C1061.43242,41.0754345 1054.07543,48.4324221 1045.00006,48.4324221 C1035.92457,48.4324221 1028.56758,41.0754345 1028.56758,32.0000635 C1028.56758,22.9245655 1035.92457,15.5675779 1045.00006,15.5675779 Z M1045.00006,42.6666667 C1050.89106,42.6666667 1055.66667,37.8910648 1055.66667,32.0000635 C1055.66667,26.1089352 1050.89106,21.3333333 1045.00006,21.3333333 C1039.10894,21.3333333 1034.33333,26.1089352 1034.33333,32.0000635 C1034.33333,37.8910648 1039.10894,42.6666667 1045.00006,42.6666667 Z M1065.92171,14.9183572 C1065.92171,17.0391532 1064.20244,18.7582987 1062.08164,18.7582987 C1059.96097,18.7582987 1058.2417,17.0391532 1058.2417,14.9183572 C1058.2417,12.7975611 1059.96097,11.0782886 1062.08164,11.0782886 C1064.20244,11.0782886 1065.92171,12.7975611 1065.92171,14.9183572 Z" id="Instagram"></path>
                </g>
            </g>
        </g>
    </g>
</svg>