<?xml version="1.0" encoding="UTF-8" standalone="no"?>
<svg width="68px" height="58px" viewBox="0 0 68 58" version="1.1" xmlns="http://www.w3.org/2000/svg" xmlns:xlink="http://www.w3.org/1999/xlink">
    <!-- Generator: sketchtool 49.1 (51147) - http://www.bohemiancoding.com/sketch -->
    <title>0AE434A1-9FB9-4D31-83CE-03C2C67DD988</title>
    <desc>Created with sketchtool.</desc>
    <defs></defs>
    <g id="Page-1" stroke="none" stroke-width="1" fill="none" fill-rule="evenodd" stroke-linecap="round" stroke-linejoin="round">
        <g id="homepage@2x" transform="translate(-905.000000, -3567.000000)" stroke="#505070" stroke-width="2">
            <g id="new-rules-new-tools" transform="translate(241.000000, 3108.000000)">
                <g id="features" transform="translate(0.000000, 217.000000)">
                    <g id="feature" transform="translate(665.000000, 243.000000)">
                        <g id="integrations-icon" transform="translate(0.000000, 0.000000)">
                            <g id="Group-29" transform="translate(36.000000, 34.000000)">
                                <path d="M23.793,8.7997 C27.221,8.7997 30,11.7547 30,15.4007" id="Stroke-11"></path>
                                <path d="M0,15.4003 C0,11.7543 2.779,8.7993 6.207,8.7993" id="Stroke-13"></path>
                                <path d="M8.2759,4.4003 C9.8689,4.4003 11.2529,5.3573 11.9439,6.7613" id="Stroke-15"></path>
                                <path d="M25.812,9.164 C25.843,8.863 25.862,8.56 25.862,8.25 C25.862,3.693 22.388,0 18.104,0 C14.778,0 11.949,2.228 10.846,5.355 C10.14,4.759 9.248,4.4 8.276,4.4 C5.991,4.4 4.138,6.37 4.138,8.8 C4.138,8.927 4.146,9.052 4.156,9.177 C1.737,10.078 0,12.52 0,15.4 C0,19.045 2.779,22 6.207,22 L23.793,22 C27.221,22 30,19.045 30,15.4 C30,12.508 28.248,10.056 25.812,9.164 Z" id="Stroke-17"></path>
                            </g>
                            <g id="Group-29">
                                <path d="M23.793,8.7997 C27.221,8.7997 30,11.7547 30,15.4007" id="Stroke-11"></path>
                                <path d="M0,15.4003 C0,11.7543 2.779,8.7993 6.207,8.7993" id="Stroke-13"></path>
                                <path d="M8.2759,4.4003 C9.8689,4.4003 11.2529,5.3573 11.9439,6.7613" id="Stroke-15"></path>
                                <path d="M25.812,9.164 C25.843,8.863 25.862,8.56 25.862,8.25 C25.862,3.693 22.388,0 18.104,0 C14.778,0 11.949,2.228 10.846,5.355 C10.14,4.759 9.248,4.4 8.276,4.4 C5.991,4.4 4.138,6.37 4.138,8.8 C4.138,8.927 4.146,9.052 4.156,9.177 C1.737,10.078 0,12.52 0,15.4 C0,19.045 2.779,22 6.207,22 L23.793,22 C27.221,22 30,19.045 30,15.4 C30,12.508 28.248,10.056 25.812,9.164 Z" id="Stroke-17"></path>
                            </g>
                            <polyline id="Stroke-27" points="34 12 49 12 49 30"></polyline>
                            <polyline id="Stroke-29" points="54 25 49 30 44 25"></polyline>
                            <polyline id="Stroke-31" points="32 47 17 47 17 26"></polyline>
                            <polyline id="Stroke-33" points="12 31 17 26 22 31"></polyline>
                        </g>
                    </g>
                </g>
            </g>
        </g>
    </g>
</svg>