<?xml version="1.0" encoding="UTF-8" standalone="no"?>
<svg width="60px" height="48px" viewBox="0 0 60 48" version="1.1" xmlns="http://www.w3.org/2000/svg" xmlns:xlink="http://www.w3.org/1999/xlink">
    <!-- Generator: sketchtool 49.1 (51147) - http://www.bohemiancoding.com/sketch -->
    <title>9926F2B4-7D7B-4EF7-B29E-AEC4284C2C0A</title>
    <desc>Created with sketchtool.</desc>
    <defs>
        <polygon id="path-1" points="0 48 60 48 60 0 0 0"></polygon>
    </defs>
    <g id="Page-1" stroke="none" stroke-width="1" fill="none" fill-rule="evenodd">
        <g id="homepage@2x" transform="translate(-573.000000, -3330.000000)">
            <g id="new-rules-new-tools" transform="translate(241.000000, 3108.000000)">
                <g id="features" transform="translate(0.000000, 217.000000)">
                    <g id="feature" transform="translate(332.000000, 0.000000)">
                        <g id="layouts-icon" transform="translate(0.000000, 5.000000)">
                            <path d="M3,47 L57,47 C58.104,47 59,46.104 59,45 L59,3 C59,1.896 58.104,1 57,1 L3,1 C1.896,1 1,1.896 1,3 L1,45 C1,46.104 1.896,47 3,47 Z" id="Stroke-1" stroke="#505070" stroke-width="2" stroke-linecap="round" stroke-linejoin="round"></path>
                            <mask id="mask-2" fill="white">
                                <use xlink:href="#path-1"></use>
                            </mask>
                            <g id="Clip-4"></g>
                            <polygon id="Stroke-3" stroke="#505070" stroke-width="2" stroke-linejoin="round" mask="url(#mask-2)" points="1.042 31 11 31 11 11 1.042 11"></polygon>
                            <polygon id="Stroke-5" stroke="#505070" stroke-width="2" stroke-linejoin="round" mask="url(#mask-2)" points="49 31 59 31 59 11 49 11"></polygon>
                            <polygon id="Stroke-6" stroke="#505070" stroke-width="2" stroke-linejoin="round" mask="url(#mask-2)" points="17 31 42.958 31 42.958 11 17 11"></polygon>
                            <path d="M17,38 L16.958,38" id="Stroke-7" stroke="#505070" stroke-width="2" stroke-linecap="round" stroke-linejoin="round" mask="url(#mask-2)"></path>
                            <path d="M11,38 L10.958,38" id="Stroke-8" stroke="#505070" stroke-width="2" stroke-linecap="round" stroke-linejoin="round" mask="url(#mask-2)"></path>
                            <path d="M23,38 L22.958,38" id="Stroke-9" stroke="#505070" stroke-width="2" stroke-linecap="round" stroke-linejoin="round" mask="url(#mask-2)"></path>
                            <path d="M43,38 L42.958,38" id="Stroke-10" stroke="#505070" stroke-width="2" stroke-linecap="round" stroke-linejoin="round" mask="url(#mask-2)"></path>
                            <path d="M37,38 L36.958,38" id="Stroke-11" stroke="#505070" stroke-width="2" stroke-linecap="round" stroke-linejoin="round" mask="url(#mask-2)"></path>
                            <path d="M49,38 L48.958,38" id="Stroke-12" stroke="#505070" stroke-width="2" stroke-linecap="round" stroke-linejoin="round" mask="url(#mask-2)"></path>
                            <path d="M31,38 C31,38.552 30.553,39 30,39 C29.447,39 29,38.552 29,38 C29,37.448 29.447,37 30,37 C30.553,37 31,37.448 31,38 Z" id="Stroke-13" stroke="#505070" stroke-width="2" stroke-linejoin="round" mask="url(#mask-2)"></path>
                            <path d="M23,16 C23,16.552 22.553,17 22,17 C21.447,17 21,16.552 21,16 C21,15.448 21.447,15 22,15 C22.553,15 23,15.448 23,16 Z" id="Stroke-14" stroke="#505070" stroke-width="2" stroke-linejoin="round" mask="url(#mask-2)"></path>
                            <polygon id="Stroke-15" stroke="#505070" stroke-width="2" stroke-linejoin="round" mask="url(#mask-2)" points="43 31 17 31 24 23 29 27 36 17"></polygon>
                        </g>
                    </g>
                </g>
            </g>
        </g>
    </g>
</svg>