<svg width="146" height="40" viewBox="0 0 146 40" version="1.1" xmlns="http://www.w3.org/2000/svg" xmlns:xlink="http://www.w3.org/1999/xlink">
<title>Page 1</title>
<desc>Created using Figma</desc>
<g id="Canvas" transform="translate(-1681 2153)">
<g id="Page 1">
<use xlink:href="#path0_fill" transform="translate(1681 -2153)" fill="#00ADEE"/>
</g>
</g>
<defs>
<path id="path0_fill" fill-rule="evenodd" d="M 132.246 33.9746C 131.546 32.7966 132.81 31.5437 135.321 31.8359C 134.07 34.2691 133.095 34.9931 132.246 33.9746ZM 86.0555 18.4999C 86.1592 17.4669 86.7901 13.897 84.8224 14.745C 83.7801 15.1942 83.1993 16.5262 82.8362 18.2823C 81.9447 23.1619 82.165 25.7156 83.516 25.9755C 84.1393 26.0656 84.7758 25.0843 85.4101 22.9756C 85.7267 21.5076 85.8706 20.3674 86.0555 18.4999ZM 8.04626 26.3882C 6.618 27.2723 1.53787 30.0207 2.25993 32.005C 2.82516 33.5641 5.05471 33.0239 5.97287 31.6418C 6.7537 30.467 7.93005 26.8477 8.04626 26.3882ZM 16.0014 20.4696C 15.7548 19.0407 15.838 19.0659 15.7697 17.9363C 15.735 15.8735 15.8043 13.9111 16.0047 12.0818C 14.6339 15.6756 13.8693 17.5853 12.8778 21.0709C 14.0802 20.7745 14.664 20.5959 16.0014 20.4696ZM 57.8455 39.7636C 54.7526 41.1124 50.5094 36.339 57.452 34.3534C 68.5703 31.1739 79.2093 32.3655 89.1864 37.291C 90.6001 38.5207 90.2042 38.8936 87.9981 38.408C 77.4542 34.8817 67.4036 35.3312 57.8455 39.7636ZM 59.9381 2.80535C 60.8156 2.75368 61.6925 2.70492 62.5701 2.65971C 70.9495 2.15595 79.1357 2.15208 85.8372 2.17178C 95.7849 2.20052 101.647 3.13214 104.784 3.57777C 111.913 4.58851 111.579 9.73908 104.987 9.19173C 89.6327 7.91878 74.5637 6.71429 59.4167 6.57931C 58.2272 12.3993 57.2265 20.379 57.4163 25.8347C 57.4546 26.9517 58.178 26.8803 58.8383 26.3927C 60.6707 24.9079 62.4179 20.0589 62.7877 18.5283C 62.9679 17.7782 63.5345 16.2943 62.9342 15.1305C 62.3274 13.9577 60.9873 13.216 61.5 11.8636C 62.5935 10.0836 64.2843 12.2549 67.5607 12.16C 69.9395 12.2388 71.0693 12.275 71.0693 12.265C 74.4775 12.1103 75.7126 13.2308 74.8523 15.6081C 74.3725 17.0112 70.5906 26.7863 72.7663 26.9158C 73.8255 26.6869 74.8648 25.5195 75.782 23.4341C 75.5037 20.7652 75.781 18.5189 76.5919 16.7296C 77.4139 14.919 78.8313 13.5999 80.8212 12.7028C 83.4925 11.8723 85.8406 12.0024 87.805 13.0848C 88.9199 12.2727 90.1336 11.9094 91.3964 12.2197C 94.3966 12.9605 93.4728 14.7866 92.6854 17.9374C 92.2334 19.6824 91.8507 21.7233 91.541 24.0554C 91.3182 26.3904 91.5869 27.6279 92.3876 27.7767C 93.5332 27.8184 94.6006 26.817 95.5624 24.7916C 95.2424 21.7294 95.664 19.2426 96.8711 17.3383C 101.348 10.2855 112.557 13.7804 111.048 21.0671C 110.16 25.3545 105.536 23.7515 106.045 20.316C 106.405 18.7311 106.791 15.613 105.048 15.0695C 103.756 15.0314 102.949 17.2208 102.525 19.6947C 102.099 22.1715 102.03 24.9505 102.254 26.105C 103.185 30.2658 106.229 30.6291 111.461 27.2384C 111.689 24.3115 112.045 21.2899 112.294 18.5309C 112.543 15.7777 112.769 13.2915 112.9 11.4825C 113.162 7.87744 114.229 5.67255 115.568 4.80906C 117.716 3.4218 122.695 3.24452 120.751 9.70065C 119.687 13.2389 117.254 15.2013 116.885 22.9749C 120.127 17.9868 124.427 15.1367 127.623 16.5659C 129.802 18.3494 130.214 19.9692 128.898 22.9607C 127.531 24.8378 126.397 25.7559 124.676 26.5577C 124.628 26.5809 124.58 26.6026 124.532 26.6245C 124.02 26.9197 123.891 27.7406 124.142 29.0839C 124.579 31.2626 125.144 31.8555 125.927 31.9634C 127.22 32.0073 128.041 31.4222 129.201 29.9329C 130.477 28.295 131.785 26.4744 132.474 23.7567C 130.922 21.7165 130.897 20.0554 131.747 18.6349C 132.638 17.6464 138.725 18.3471 138.728 20.5727C 138.008 22.3772 136.944 21.6716 137.735 22.7812C 140.51 25.7284 142.19 26.9649 142.138 30.0885C 143.09 30.1027 143.988 29.619 144.788 28.6202C 144.821 28.3696 144.946 28.1542 145.166 28.0631C 145.363 27.9834 145.613 28.0589 145.789 28.2514C 145.95 28.4332 146.065 28.7261 145.959 28.956C 145.027 30.9449 144.059 32.1881 142.184 32.4232C 140.496 36.8149 137.422 37.5974 133.551 36.6825C 130.162 35.3763 129.603 33.547 131.951 31.2174C 133.239 30.4518 134.583 30.0972 135.921 30.1815C 136.731 28.4377 136.281 27.3314 134.523 25.2198C 132.831 28.5905 131.264 30.4867 129.616 32.1539C 127.907 33.8851 126.615 34.6681 125.186 34.725C 122.342 34.7905 120.391 33.0707 119.171 29.5718C 118.488 27.4079 118.701 26.1124 119.809 25.6858C 121.258 25.2405 122.44 24.5795 123.358 23.665C 124.568 21.9667 124.657 20.6777 123.612 19.8416C 122.637 19.2378 121.591 19.7215 120.441 21.2486C 119.444 22.57 118.607 24.0874 117.754 25.816C 116.794 31.4079 114.555 33.3355 111.214 31.6769C 111.246 30.1595 111.271 29.4155 111.271 29.4155C 109.092 31.1945 106.258 31.8555 102.77 31.4189C 100.041 30.7615 97.8735 29.1453 96.2692 26.5118C 94.5877 29.0655 92.7445 30.2274 90.6797 30.0194C 88.1282 29.5873 86.6045 27.571 86.0542 23.9792C 85.1773 27.5817 83.4624 29.2001 80.9968 28.9179C 78.828 28.656 77.3099 27.4625 76.4743 25.3161C 74.6835 28.2472 72.7809 29.4604 70.688 29.0393C 66.6185 28.2995 66.9361 22.5871 67.6139 19.479C 68.0362 17.5418 68.3455 17.0965 66.464 17.0006C 66.1592 16.9844 66.2206 16.9763 65.908 16.9741C 65.7112 18.5212 65.1196 20.4151 64.5216 21.875C 63.7369 24.0315 61.8157 27.2242 59.7198 28.4384C 57.0984 29.9965 55.0653 29.7033 53.7397 27.3424C 51.9942 24.2372 51.8713 13.4982 52.5026 6.65035C 51.4629 6.68135 50.4249 6.72365 49.3846 6.77596C 49.1033 8.25817 48.8626 12.2427 48.7045 13.6858C 48.5209 15.3679 48.3812 17.0593 48.3486 18.5632C 48.3056 20.904 48.4113 23.21 48.6361 25.4788C 49.1568 27.9986 49.9571 28.1823 51.1585 26.0404C 52.0262 25.5973 52.2428 26.1595 51.7175 27.7447C 49.1624 31.2174 46.4789 30.4331 43.6702 25.3729C 42.6745 29.0523 40.9709 30.8738 38.4732 30.8948C 36.5854 30.7637 35.1928 29.7669 34.3595 27.9233C 33.5133 26.0546 33.9322 23.0217 34.3621 19.3937C 34.5199 18.6513 33.2799 18.787 32.0104 19.2116C 31.6509 23.0753 30.979 26.0991 30.1902 28.3292C 29.4091 30.5361 28.3173 31.9582 26.8675 32.5469C 20.5054 34.6168 17.6865 28.8346 16.5049 23.2875C 14.9499 23.6882 13.3228 24.2698 11.8111 24.9321C 11.2131 27.2568 10.4607 31.7722 8.52665 34.6759C 6.9792 36.9964 3.80573 37.7582 1.56297 36.2404C -0.704545 34.7079 -0.870614 29.41 3.53566 25.9002C 4.93619 24.7833 6.94289 23.1893 9.13645 22.1014C 12.4611 10.2131 18.4439 -4.19814 25.8629 1.19301C 25.2323 2.89835 24.6476 4.59077 24.1497 6.28642C 23.6548 7.97464 23.2177 9.67611 22.8697 11.3653C 22.523 13.0503 22.2556 14.7388 22.0799 16.4177C 21.9848 17.3209 21.7735 18.0265 21.8792 20.1361C 23.492 20.1361 24.8932 20.3496 26.6959 20.4096C 28.5147 20.4742 28.2737 22.5787 27.1029 22.5587C 25.2227 22.4779 23.8314 22.3895 22.1067 22.4098C 22.4807 27.6563 24.4429 33.2208 27.5298 28.3554C 28.4388 26.9242 28.8138 25.5163 29.1321 23.8161C 29.318 22.8247 29.5372 21.7197 29.6419 20.6098C 29.7525 19.4496 30.1037 18.5654 28.3658 17.2641C 26.7992 16.0919 26.6579 14.5503 27.1528 13.9642C 28.0541 12.8976 29.796 14.2083 33.7408 13.8789C 35.7666 13.7084 37.4484 13.5427 38.8328 13.4333C 40.958 13.5185 41.584 14.6962 40.7672 17.019C 40.7672 17.019 40.3139 18.8451 39.4954 22.5141C 38.8321 25.8063 38.8823 27.7864 39.5878 28.4145C 40.7995 29.1036 41.862 27.4002 42.833 23.3072C 42.442 21.2021 42.5474 18.8079 42.4084 16.7881C 42.3328 15.1858 42.311 10.0856 42.8491 7.27068C 42.7362 7.2823 42.6236 7.29264 42.5107 7.30394C 36.0931 7.98013 30.9338 9.1181 26.6483 10.4715C 24.185 11.2723 23.879 8.79518 25.4485 8.16581C 30.2553 6.23992 36.2189 5.35383 42.8815 4.21327L 43.102 4.18906C 43.8188 1.87178 45.2514 0.0705392 47.3789 0.00208025C 49.7223 -0.0718683 50.0093 1.83949 49.7861 3.53773C 50.7643 3.45118 51.7436 3.37078 52.7235 3.29425L 59.9381 2.80535Z"/>
</defs>
</svg>
