<?xml version="1.0" encoding="UTF-8" standalone="no"?>
<svg width="60px" height="52px" viewBox="0 0 60 52" version="1.1" xmlns="http://www.w3.org/2000/svg" xmlns:xlink="http://www.w3.org/1999/xlink">
    <!-- Generator: sketchtool 49.1 (51147) - http://www.bohemiancoding.com/sketch -->
    <title>0880242E-3987-4208-901B-0F352B35001F</title>
    <desc>Created with sketchtool.</desc>
    <defs></defs>
    <g id="Page-1" stroke="none" stroke-width="1" fill="none" fill-rule="evenodd" stroke-linecap="round" stroke-linejoin="round">
        <g id="homepage@2x" transform="translate(-241.000000, -3571.000000)" stroke="#505070" stroke-width="2">
            <g id="new-rules-new-tools" transform="translate(241.000000, 3108.000000)">
                <g id="features" transform="translate(0.000000, 217.000000)">
                    <g id="feature" transform="translate(1.000000, 243.000000)">
                        <g id="metadata-icon" transform="translate(0.000000, 4.000000)">
                            <path d="M40.3027,34 C38.6537,29.342 34.2227,26 28.9997,26 C23.7777,26 19.3467,29.342 17.6977,34" id="Stroke-1"></path>
                            <path d="M17.6973,42 C19.3463,46.658 23.7773,50 29.0003,50 C34.2223,50 38.6533,46.658 40.3023,42" id="Stroke-3"></path>
                            <path d="M41,28 L41,34" id="Stroke-5"></path>
                            <path d="M35,34 L41,34" id="Stroke-7"></path>
                            <path d="M17,48 L17,42" id="Stroke-9"></path>
                            <path d="M23,42 L17,42" id="Stroke-11"></path>
                            <path d="M46,16 C52.627,16 58,21.373 58,28" id="Stroke-13"></path>
                            <path d="M0,28 C0,21.373 5.373,16 12,16" id="Stroke-15"></path>
                            <path d="M16,8 C19.081,8 21.755,9.741 23.091,12.293" id="Stroke-17"></path>
                            <path d="M46,40 C52.627,40 58,34.627 58,28 C58,22.741 54.612,18.283 49.903,16.662 C49.963,16.116 50,15.563 50,15 C50,6.716 43.284,0 35,0 C28.571,0 23.102,4.053 20.968,9.737 C19.603,8.652 17.879,8 16,8 C11.582,8 8,11.582 8,16 C8,16.231 8.016,16.458 8.035,16.685 C3.359,18.324 0,22.764 0,28 C0,34.627 5.373,40 12,40" id="Stroke-19"></path>
                        </g>
                    </g>
                </g>
            </g>
        </g>
    </g>
</svg>