<?xml version="1.0" encoding="UTF-8" standalone="no"?>
<svg width="58px" height="59px" viewBox="0 0 58 59" version="1.1" xmlns="http://www.w3.org/2000/svg" xmlns:xlink="http://www.w3.org/1999/xlink">
    <!-- Generator: sketchtool 49.1 (51147) - http://www.bohemiancoding.com/sketch -->
    <title>68EA2C22-5B71-441F-8653-770E1113DF7B</title>
    <desc>Created with sketchtool.</desc>
    <defs>
        <polygon id="path-1" points="0 59.0004 57.469 59.0004 57.469 0.0004 0 0.0004"></polygon>
    </defs>
    <g id="Page-1" stroke="none" stroke-width="1" fill="none" fill-rule="evenodd">
        <g id="homepage@2x" transform="translate(-1022.000000, -1078.000000)">
            <g id="value-props" transform="translate(230.000000, 1078.000000)">
                <g id="monetize-icon" transform="translate(792.000000, 0.000000)">
                    <path d="M31.9393,31.9893 C30.1523,26.9763 35.9393,21.3833 31.9393,17.0003" id="Stroke-1" stroke="#0EBAED" stroke-width="2" stroke-linecap="round" stroke-linejoin="round"></path>
                    <path d="M28.4647,24.7656 C27.0927,23.3606 27.0327,21.0106 27.1227,21.1026 C27.1227,21.1026 29.4877,21.1176 30.8607,22.5216 C32.2327,23.9256 32.0917,26.1876 32.0917,26.1876 C32.0917,26.1876 29.8367,26.1686 28.4647,24.7656 Z" id="Stroke-3" stroke="#0EBAED" stroke-width="2" stroke-linecap="round" stroke-linejoin="round"></path>
                    <path d="M36.4442,25.1875 C38.3752,23.9035 39.3942,21.0665 39.2682,21.1505 C39.2682,21.1505 36.5342,20.5835 34.6032,21.8675 C32.6732,23.1515 32.2792,25.7975 32.2792,25.7975 C32.2792,25.7975 34.5142,26.4705 36.4442,25.1875 Z" id="Stroke-5" stroke="#0EBAED" stroke-width="2" stroke-linecap="round" stroke-linejoin="round"></path>
                    <path d="M20.9393,34.3008 C26.9813,33.7588 30.8563,35.5838 32.6893,36.2498 C34.6063,36.4168 35.9603,36.2128 36.5233,35.9998 C38.6483,35.1968 40.3623,34.8318 41.7153,34.7898 C41.6853,34.7098 41.6403,34.6338 41.6043,34.5558 L41.4393,34.6248 C41.4593,34.6228 41.5013,34.5698 41.5683,34.4788 C40.3323,31.9038 36.0483,29.9998 30.9393,29.9998 C25.9033,29.9998 21.6683,31.8478 20.3623,34.3668 C20.5543,34.3438 20.7473,34.3188 20.9393,34.3008 Z" id="Stroke-7" stroke="#0EBAED" stroke-width="2" stroke-linecap="round" stroke-linejoin="round"></path>
                    <path d="M12.9393,36.917 C16.2023,37.204 18.0843,34.747 23.0643,34.301 C29.1053,33.759 30.8553,35.584 32.6893,36.25 C34.6053,36.417 35.9603,36.213 36.5223,36 C43.3553,33.417 45.9393,35.363 45.9393,38 C45.9393,39.274 45.3203,40.163 43.9393,41.084 C41.7523,42.541 39.3553,43.084 37.4393,43.167 C35.8343,43.236 34.1053,43.334 32.1053,43.75 C32.1053,43.75 30.2723,45.584 27.7723,46.084 M35.9393,43.25 C42.0223,42.667 44.0483,43.113 43.9393,43 C46.9393,39 49.6893,36.25 52.0883,34.192 C54.4763,32.144 58.0643,34.25 55.6893,37.334 C52.8923,40.965 46.9393,49.438 45.9393,50 C44.9873,50.535 29.9393,54.994 25.9393,54.998 C23.9393,55 17.9393,52.167 15.9393,51 L12.9393,51" id="Stroke-9" stroke="#0EBAED" stroke-width="2" stroke-linecap="round" stroke-linejoin="round"></path>
                    <path d="M45.2518,35.9668 C45.9388,34.9168 47.8558,32.9168 50.5228,30.9998 C53.5348,28.8348 56.2728,30.4168 55.1058,33.0838" id="Stroke-11" stroke="#0EBAED" stroke-width="2" stroke-linecap="round" stroke-linejoin="round"></path>
                    <path d="M41.4393,34.625 C41.5793,34.607 42.9393,32 46.4393,29.75 C48.9833,28.114 50.3903,29.086 50.8933,30.614" id="Stroke-13" stroke="#0EBAED" stroke-width="2" stroke-linecap="round" stroke-linejoin="round"></path>
                    <path d="M10.9393,58 L4.6063,58 C3.6253,58 2.7943,57.288 2.6303,56.319 C1.0323,46.902 0.9653,39.702 1.0083,34.984 C1.0183,33.886 1.9103,33 3.0073,33 L10.9393,33 C12.0433,33 12.9393,33.896 12.9393,35 L12.9393,56 C12.9393,57.105 12.0433,58 10.9393,58 Z" id="Stroke-15" stroke="#0EBAED" stroke-width="2" stroke-linecap="round" stroke-linejoin="round"></path>
                    <mask id="mask-2" fill="white">
                        <use xlink:href="#path-1"></use>
                    </mask>
                    <g id="Clip-20"></g>
                    <polygon id="Stroke-19" stroke="#0EBAED" stroke-width="2" stroke-linecap="round" stroke-linejoin="round" mask="url(#mask-2)" points="16.939 17.0004 46.939 17.0004 46.939 1.0004 16.939 1.0004"></polygon>
                    <path d="M43.9393,12 C42.8353,12 41.9393,12.896 41.9393,14 L21.9393,14 C21.9393,12.896 21.0433,12 19.9393,12 L19.9393,6 C21.0433,6 21.9393,5.104 21.9393,4 L41.9393,4 C41.9393,5.104 42.8353,6 43.9393,6 L43.9393,12 Z" id="Stroke-21" stroke="#0EBAED" stroke-width="2" stroke-linecap="round" stroke-linejoin="round" mask="url(#mask-2)"></path>
                    <path d="M36.1063,9 C36.1063,11.762 34.2403,14 31.9393,14 C29.6383,14 27.7723,11.762 27.7723,9 C27.7723,6.238 29.6383,4 31.9393,4 C34.2403,4 36.1063,6.238 36.1063,9 Z" id="Stroke-22" stroke="#0EBAED" stroke-width="2" stroke-linecap="round" stroke-linejoin="round" mask="url(#mask-2)"></path>
                    <path d="M24.4393,9 C24.4393,9.276 24.2153,9.5 23.9393,9.5 C23.6633,9.5 23.4393,9.276 23.4393,9 C23.4393,8.724 23.6633,8.5 23.9393,8.5 C24.2153,8.5 24.4393,8.724 24.4393,9 Z" id="Stroke-23" stroke="#0EBAED" stroke-width="2" stroke-linecap="round" stroke-linejoin="round" mask="url(#mask-2)"></path>
                    <path d="M40.4393,9 C40.4393,9.276 40.2153,9.5 39.9393,9.5 C39.6633,9.5 39.4393,9.276 39.4393,9 C39.4393,8.724 39.6633,8.5 39.9393,8.5 C40.2153,8.5 40.4393,8.724 40.4393,9 Z" id="Stroke-24" stroke="#0EBAED" stroke-width="2" stroke-linecap="round" stroke-linejoin="round" mask="url(#mask-2)"></path>
                </g>
            </g>
        </g>
    </g>
</svg>