<svg width="688" height="370" viewBox="0 0 688 370" version="1.1" xmlns="http://www.w3.org/2000/svg" xmlns:xlink="http://www.w3.org/1999/xlink">
<title>popular-shapes</title>
<desc>Created using Figma</desc>
<g id="Canvas" transform="translate(-2277 -2497)">
<g id="popular-shapes">
<g id="Group 18">
<g id="Fill 259">
<use xlink:href="#path0_fill" transform="translate(2371.54 2661.91)" fill="#FFFFFE"/>
</g>
<g id="Fill 260">
<use xlink:href="#path1_fill" transform="translate(2368.84 2659.21)" fill="#0EBAED"/>
<mask id="mask0_outline_out">
<rect id="mask0_outline_inv" fill="white" x="-1" y="-1" width="114" height="206" transform="translate(2368.84 2659.21)"/>
<use xlink:href="#path1_fill" fill="black" transform="translate(2368.84 2659.21)"/>
</mask>
<g mask="url(#mask0_outline_out)">
<use xlink:href="#path2_stroke_2x" transform="translate(2368.84 2659.21)" fill="#0EBAED"/>
</g>
</g>
<g id="Fill 261">
<use xlink:href="#path3_fill" transform="translate(2505.55 2659.21)" fill="#0EBAED"/>
<use xlink:href="#path4_stroke" transform="translate(2505.55 2659.21)" fill="#0EBAED"/>
</g>
<g id="Fill 262">
<use xlink:href="#path5_fill" transform="translate(2432.93 2674.34)" fill="#0EBAED"/>
</g>
<g id="Fill 263">
<use xlink:href="#path6_fill" transform="translate(2442.83 2837.63)" fill="#0EBAED"/>
</g>
<g id="Fill 264">
<use xlink:href="#path7_fill" transform="translate(2384.14 2690.9)" fill="#86DCF6"/>
</g>
<g id="Fill 265">
<use xlink:href="#path8_fill" transform="translate(2434.7 2743.45)" fill="#FFFFFE"/>
<use xlink:href="#path9_stroke" transform="translate(2434.7 2743.45)" fill="#FFFFFF"/>
</g>
<g id="Fill 266">
<use xlink:href="#path10_fill" transform="translate(2473.55 2659.21)" fill="#A4C3D4"/>
</g>
<g id="Fill 267">
<use xlink:href="#path11_fill" transform="translate(2473.29 2664.61)" fill="#86DCF6"/>
</g>
<g id="Fill 268">
<use xlink:href="#path12_fill" transform="translate(2473.29 2659.21)" fill="#2871AB"/>
</g>
<g id="Fill 269">
<use xlink:href="#path13_fill" transform="translate(2528.92 2816.86)" fill="#0EBAED"/>
</g>
<g id="Fill 270">
<use xlink:href="#path14_fill" transform="translate(2473.29 2690.9)" fill="#4BCCF2"/>
</g>
<g id="Fill 271">
<use xlink:href="#path15_fill" transform="translate(2483.19 2596.94)" fill="#4BCCF2"/>
</g>
<g id="Fill 272">
<use xlink:href="#path16_fill" transform="translate(2480.49 2594.24)" fill="#0EBAED"/>
<mask id="mask1_outline_out">
<rect id="mask1_outline_inv" fill="white" x="-1" y="-1" width="314" height="190" transform="translate(2480.49 2594.24)"/>
<use xlink:href="#path16_fill" fill="black" transform="translate(2480.49 2594.24)"/>
</mask>
<g mask="url(#mask1_outline_out)">
<use xlink:href="#path17_stroke_2x" transform="translate(2480.49 2594.24)" fill="#0EBAED"/>
</g>
</g>
<g id="Fill 274">
<use xlink:href="#path18_fill" transform="translate(2499.81 2614.78)" fill="#FFFFFE"/>
</g>
<g id="Fill 275">
<use xlink:href="#path19_fill" transform="translate(2590.2 2807.08)" fill="#C3EEFA"/>
</g>
<g id="Fill 276">
<use xlink:href="#path20_fill" transform="translate(2590.2 2807.08)" fill="#86DCF6"/>
</g>
<g id="Fill 277">
<use xlink:href="#path21_fill" transform="translate(2587.5 2804.38)" fill="#0EBAED"/>
<use xlink:href="#path22_stroke" transform="translate(2587.5 2804.38)" fill="#0EBAED"/>
</g>
<g id="Fill 278">
<use xlink:href="#path23_fill" transform="translate(2483.19 2772.73)" fill="#FFFFFE"/>
</g>
<g id="Fill 279">
<use xlink:href="#path24_fill" transform="translate(2480.49 2770.02)" fill="#0EBAED"/>
</g>
<g id="Fill 280">
<use xlink:href="#path25_fill" transform="translate(2572.26 2860.12)" fill="#3378B0"/>
</g>
<g id="Fill 281">
<use xlink:href="#path26_fill" transform="translate(2510.05 2626.04)" fill="#4BCCF2"/>
</g>
<g id="Fill 282">
<use xlink:href="#path27_fill" transform="translate(2567.94 2649.82)" fill="#FFFFFE"/>
</g>
<g id="Fill 283">
<use xlink:href="#path28_fill" transform="translate(2662.21 2626.04)" fill="#86DCF6"/>
</g>
<g id="Fill 284">
<use xlink:href="#path28_fill" transform="translate(2662.21 2671.76)" fill="#86DCF6"/>
</g>
<g id="Fill 285">
<use xlink:href="#path29_fill" transform="translate(2662.21 2717.49)" fill="#86DCF6"/>
</g>
<g id="Fill 286">
<use xlink:href="#path30_fill" transform="translate(2513.78 2718.1)" fill="#0EBAED"/>
</g>
<g id="Fill 287">
<use xlink:href="#path31_fill" transform="translate(2710.68 2632.9)" fill="#0EBAED"/>
</g>
<g id="Fill 288">
<use xlink:href="#path31_fill" transform="translate(2710.68 2647.09)" fill="#0EBAED"/>
</g>
<g id="Fill 289">
<use xlink:href="#path31_fill" transform="translate(2710.68 2677.05)" fill="#0EBAED"/>
</g>
<g id="Fill 290">
<use xlink:href="#path31_fill" transform="translate(2710.68 2691.25)" fill="#0EBAED"/>
</g>
<g id="Fill 291">
<use xlink:href="#path31_fill" transform="translate(2710.68 2724.87)" fill="#0EBAED"/>
</g>
<g id="Fill 292">
<use xlink:href="#path32_fill" transform="translate(2710.68 2739.07)" fill="#0EBAED"/>
</g>
<g id="Fill 293">
<use xlink:href="#path33_fill" transform="translate(2513.78 2734.88)" fill="#0EBAED"/>
</g>
<g id="Fill 310">
<use xlink:href="#path34_fill" transform="translate(2442.22 2504.82)" fill="#0EBAED"/>
</g>
<g id="Fill 311">
<use xlink:href="#path35_fill" transform="translate(2449.91 2497.12)" fill="#0EBAED"/>
</g>
<g id="Fill 312">
<use xlink:href="#path36_fill" transform="translate(2356.46 2640.79)" fill="#0EBAED"/>
</g>
<g id="Fill 313">
<use xlink:href="#path37_fill" transform="translate(2364.15 2633.08)" fill="#0EBAED"/>
</g>
<g id="Fill 314">
<use xlink:href="#path38_fill" transform="translate(2948.45 2602.76)" fill="#0EBAED"/>
</g>
<g id="Fill 315">
<use xlink:href="#path39_fill" transform="translate(2948.45 2602.77)" fill="#0EBAED"/>
</g>
<g id="Fill 316">
<use xlink:href="#path40_fill" transform="translate(2329.81 2536.91)" fill="#0EBAED"/>
</g>
<g id="Fill 317">
<use xlink:href="#path41_fill" transform="translate(2329.81 2536.91)" fill="#0EBAED"/>
</g>
<g id="Fill 318">
<use xlink:href="#path42_fill" transform="translate(2875.72 2705.67)" fill="#0EBAED"/>
</g>
<g id="Fill 320">
<use xlink:href="#path42_fill" transform="translate(2548.98 2530.04)" fill="#0EBAED"/>
</g>
<g id="Fill 321">
<use xlink:href="#path43_fill" transform="translate(2655.63 2530.04)" fill="#0EBAED"/>
</g>
<g id="Fill 322">
<use xlink:href="#path44_fill" transform="translate(2277.11 2638.86)" fill="#0EBAED"/>
</g>
<g id="Fill 323">
<use xlink:href="#path45_fill" transform="translate(2481.21 2504.86)" fill="#0EBAED"/>
</g>
<g id="Fill 325">
<use xlink:href="#path46_fill" transform="translate(2890.54 2552.62)" fill="#0EBAED"/>
</g>
<g id="Fill 326">
<use xlink:href="#path46_fill" transform="translate(2312.81 2676.46)" fill="#0EBAED"/>
</g>
<g id="Fill 327">
<use xlink:href="#path47_fill" transform="translate(2912.01 2796.1)" fill="#0EBAED"/>
</g>
<g id="Fill 328">
<use xlink:href="#path48_fill" transform="translate(2693.3 2698.42)" fill="#0EBAED"/>
</g>
<g id="Fill 329">
<use xlink:href="#path49_fill" transform="translate(2786.79 2698.42)" fill="#2871AB"/>
</g>
<g id="Fill 330">
<use xlink:href="#path50_fill" transform="translate(2695.9 2698.42)" fill="#C3EEFA"/>
</g>
<g id="Fill 331">
<use xlink:href="#path51_fill" transform="translate(2693.3 2775.43)" fill="#C3EEFA"/>
</g>
<g id="Fill 332">
<use xlink:href="#path52_fill" transform="translate(2693.3 2770.02)" fill="#0EBAED"/>
</g>
<g id="Fill 333">
<use xlink:href="#path53_fill" transform="translate(2697.75 2755)" fill="#6EA6C8"/>
</g>
<g id="Fill 334">
<use xlink:href="#path54_fill" transform="translate(2718.48 2724.87)" fill="#0EBAED"/>
</g>
<g id="Fill 335">
<use xlink:href="#path55_fill" transform="translate(2718.48 2739.07)" fill="#0EBAED"/>
</g>
<g id="Fill 336">
<use xlink:href="#path56_fill" transform="translate(2703.83 2761.83)" fill="#4BCCF2"/>
</g>
<g id="Fill 337">
<use xlink:href="#path57_fill" transform="translate(2703.52 2711.33)" fill="#C3EEFA"/>
</g>
<g id="Fill 338">
<use xlink:href="#path58_fill" transform="translate(2728.38 2701.12)" fill="#4BCCF2"/>
</g>
<g id="Fill 340">
<use xlink:href="#path59_fill" transform="translate(2725.68 2698.42)" fill="#0EBAED"/>
</g>
<g id="Fill 341">
<use xlink:href="#path60_fill" transform="translate(2703.2 2761.83)" fill="#C3EEFA"/>
</g>
<g id="Fill 342">
<use xlink:href="#path61_fill" transform="translate(2789.81 2762.72)" fill="#C3EEFA"/>
</g>
<g id="Fill 343">
<use xlink:href="#path62_fill" transform="translate(2703.2 2812.33)" fill="#86DCF6"/>
</g>
<g id="Fill 344">
<use xlink:href="#path63_fill" transform="translate(2700.5 2745.07)" fill="#0EBAED"/>
<mask id="mask2_outline_out">
<rect id="mask2_outline_inv" fill="white" x="-1" y="-2" width="181" height="124" transform="translate(2700.5 2745.07)"/>
<use xlink:href="#path63_fill" fill="black" transform="translate(2700.5 2745.07)"/>
</mask>
<g mask="url(#mask2_outline_out)">
<use xlink:href="#path64_stroke_2x" transform="translate(2700.5 2745.07)" fill="#0EBAED"/>
</g>
</g>
<g id="Fill 346">
<use xlink:href="#path65_fill" transform="translate(2702.47 2759.5)" fill="#0EBAED"/>
</g>
<g id="Fill 347">
<use xlink:href="#path66_fill" transform="translate(2702.47 2759.5)" fill="#0EBAED"/>
</g>
<g id="Fill 348">
<use xlink:href="#path67_fill" transform="translate(2335.8 2860.12)" fill="#0EBAED"/>
</g>
<g id="Fill 351">
<use xlink:href="#path68_fill" transform="translate(2800.47 2586.04)" fill="#FFFFFE"/>
<use xlink:href="#path69_stroke" transform="translate(2800.47 2586.04)" fill="#0EBAED"/>
</g>
<g id="Fill 352">
<use xlink:href="#path70_fill" transform="translate(2797.78 2583.38)" fill="#0EBAED"/>
<use xlink:href="#path71_stroke" transform="translate(2797.78 2583.38)" fill="#0EBAED"/>
</g>
<g id="Fill 354">
<use xlink:href="#path72_fill" transform="translate(2827.26 2600.38)" fill="#4BCCF2"/>
</g>
<g id="Fill 355">
<use xlink:href="#path73_fill" transform="translate(2849.82 2620.49)" fill="#FFFFFE"/>
</g>
<g id="Fill 345">
<use xlink:href="#path74_fill" transform="translate(2772.7 2731.11)" fill="#FFFFFE"/>
<use xlink:href="#path75_stroke" transform="translate(2772.7 2731.11)" fill="#FFFFFF"/>
</g>
</g>
</g>
</g>
<defs>
<path id="path0_fill" fill-rule="evenodd" d="M 152.935 200.917L 7.1532 200.917C 3.2004 200.917 0 197.708 0 193.752L 0 7.1648C 0 3.2092 3.2004 0 7.1532 0L 152.935 0C 156.884 0 160.088 3.2092 160.088 7.1648L 160.088 193.752C 160.088 197.708 156.884 200.917 152.935 200.917Z"/>
<path id="path1_fill" fill-rule="evenodd" d="M 0 203.146L 0 13.9979C 0 6.27776 6.2676 0 13.9752 0L 111.831 0L 111.831 5.40876L 13.9752 5.40876C 9.2448 5.40876 5.4 9.25979 5.4 13.9979L 5.4 203.146L 0 203.146Z"/>
<path id="path2_stroke_2x" d="M 0 203.146L -1 203.146L -1 204.146L 0 204.146L 0 203.146ZM 111.831 0L 112.831 0L 112.831 -1L 111.831 -1L 111.831 0ZM 111.831 5.40876L 111.831 6.40876L 112.831 6.40876L 112.831 5.40876L 111.831 5.40876ZM 5.4 203.146L 5.4 204.146L 6.4 204.146L 6.4 203.146L 5.4 203.146ZM 1 203.146L 1 13.9979L -1 13.9979L -1 203.146L 1 203.146ZM 1 13.9979C 1 6.82852 6.82141 1 13.9752 1L 13.9752 -1C 5.71379 -1 -1 5.72701 -1 13.9979L 1 13.9979ZM 13.9752 1L 111.831 1L 111.831 -1L 13.9752 -1L 13.9752 1ZM 110.831 0L 110.831 5.40876L 112.831 5.40876L 112.831 0L 110.831 0ZM 111.831 4.40876L 13.9752 4.40876L 13.9752 6.40876L 111.831 6.40876L 111.831 4.40876ZM 13.9752 4.40876C 8.69099 4.40876 4.4 8.70904 4.4 13.9979L 6.4 13.9979C 6.4 9.81055 9.79861 6.40876 13.9752 6.40876L 13.9752 4.40876ZM 4.4 13.9979L 4.4 203.146L 6.4 203.146L 6.4 13.9979L 4.4 13.9979ZM 5.4 202.146L 0 202.146L 0 204.146L 5.4 204.146L 5.4 202.146Z"/>
<path id="path3_fill" fill-rule="evenodd" d="M 28.7748 203.146L 23.3784 203.146L 23.3784 13.9979C 23.3784 9.25979 19.53 5.40876 14.8032 5.40876L 0 5.40876L 0 0L 14.8032 0C 22.5072 0 28.7748 6.27776 28.7748 13.9979L 28.7748 203.146Z"/>
<path id="path4_stroke" d="M 23.3784 203.146L 22.8784 203.146L 22.8784 203.646L 23.3784 203.646L 23.3784 203.146ZM 0 5.40876L -0.5 5.40876L -0.5 5.90876L 0 5.90876L 0 5.40876ZM 0 0L 0 -0.5L -0.5 -0.5L -0.5 0L 0 0ZM 28.7748 202.646L 23.3784 202.646L 23.3784 203.646L 28.7748 203.646L 28.7748 202.646ZM 23.8784 203.146L 23.8784 13.9979L 22.8784 13.9979L 22.8784 203.146L 23.8784 203.146ZM 23.8784 13.9979C 23.8784 8.98428 19.8068 4.90876 14.8032 4.90876L 14.8032 5.90876C 19.2532 5.90876 22.8784 9.53531 22.8784 13.9979L 23.8784 13.9979ZM 14.8032 4.90876L 0 4.90876L 0 5.90876L 14.8032 5.90876L 14.8032 4.90876ZM 0.5 5.40876L 0.5 0L -0.5 0L -0.5 5.40876L 0.5 5.40876ZM 0 0.5L 14.8032 0.5L 14.8032 -0.5L 0 -0.5L 0 0.5ZM 14.8032 0.5C 22.2302 0.5 28.2748 6.55306 28.2748 13.9979L 29.2748 13.9979C 29.2748 6.00247 22.7842 -0.5 14.8032 -0.5L 14.8032 0.5ZM 28.2748 13.9979L 28.2748 203.146L 29.2748 203.146L 29.2748 13.9979L 28.2748 13.9979Z"/>
<path id="path5_fill" fill-rule="evenodd" d="M 0 5.40876L 37.3068 5.40876L 37.3068 0L 0 0L 0 5.40876Z"/>
<path id="path6_fill" fill-rule="evenodd" d="M 8.7479 5.40869C 6.9011 5.40869 5.3999 6.91233 5.3999 8.76212C 5.3999 10.6119 6.9011 12.1192 8.7479 12.1192C 10.5947 12.1192 12.0995 10.6119 12.0995 8.76212C 12.0995 6.91233 10.5947 5.40869 8.7479 5.40869ZM 8.748 17.528C 3.924 17.528 0 13.594 0 8.76219C 0 3.93036 3.924 0 8.748 0C 13.572 0 17.4996 3.93036 17.4996 8.76219C 17.4996 13.594 13.572 17.528 8.748 17.528Z"/>
<path id="path7_fill" fill-rule="evenodd" d="M 0 142.322L 134.881 142.322L 134.881 0L 0 0L 0 142.322Z"/>
<path id="path8_fill" fill-rule="evenodd" d="M 35.7984 20.7011L 0 0L 0 41.4022L 35.7984 20.7011L 0 0L 0 41.4022L 35.7984 20.7011Z"/>
<path id="path9_stroke" d="M 0 0L 1.40167 -2.42391L -2.8 -4.8536L -2.8 0L 0 0ZM 0 41.4022L -2.8 41.4022L -2.8 46.2558L 1.40167 43.8261L 0 41.4022ZM 35.7984 20.7011L 37.2001 23.125L 41.3917 20.7011L 37.2001 18.2772L 35.7984 20.7011ZM 0 0L 1.40167 -2.42391L -2.8 -4.8536L -2.8 0L 0 0ZM 0 41.4022L -2.8 41.4022L -2.8 46.2558L 1.40167 43.8261L 0 41.4022ZM 37.2001 18.2772L 1.40167 -2.42391L -1.40167 2.42391L 34.3967 23.125L 37.2001 18.2772ZM -2.8 0L -2.8 41.4022L 2.8 41.4022L 2.8 0L -2.8 0ZM 1.40167 43.8261L 37.2001 23.125L 34.3967 18.2772L -1.40167 38.9783L 1.40167 43.8261ZM 37.2001 18.2772L 1.40167 -2.42391L -1.40167 2.42391L 34.3967 23.125L 37.2001 18.2772ZM -2.8 0L -2.8 41.4022L 2.8 41.4022L 2.8 0L -2.8 0ZM 1.40167 43.8261L 37.2001 23.125L 34.3967 18.2772L -1.40167 38.9783L 1.40167 43.8261Z"/>
<path id="path10_fill" fill-rule="evenodd" d="M 6.9336 2.70438L 0 2.70438L 0 0L 0 2.70438L 6.9336 2.70438Z"/>
<path id="path11_fill" fill-rule="evenodd" d="M 45.7344 157.658L 55.638 157.658L 55.638 152.341L 45.7344 152.341L 45.7344 157.658ZM 7.2 28.5056L 0 28.5056L 0 2.65877L 0.2664 2.65877L 0.2664 0L 7.2 0L 7.2 28.5056Z"/>
<path id="path12_fill" fill-rule="evenodd" d="M 0 5.40876L 0.2664 5.40876L 0.2664 0L 0 0L 0 5.40876Z"/>
<path id="path13_fill" fill-rule="evenodd" d="M 0 5.40876L 5.3964 5.40876L 5.3964 0L 0 0L 0 5.40876Z"/>
<path id="path14_fill" fill-rule="evenodd" d="M 45.7344 131.368L 9.9 131.368C 4.4424 131.368 0 126.918 0 121.455L 0 0L 7.2 0L 7.2 116.047C 7.2 121.51 11.6424 125.959 17.1 125.959L 45.7344 125.959L 45.7344 131.368Z"/>
<path id="path15_fill" fill-rule="evenodd" d="M 306.306 182.484L 0 182.484L 0 7.11432C 0 3.18396 3.1824 0 7.1028 0L 299.2 0C 303.124 0 306.306 3.18396 306.306 7.11432L 306.306 182.484Z"/>
<path id="path16_fill" fill-rule="evenodd" d="M 0 187.9L 0 9.8223C 0 4.40633 4.3992 0 9.8064 0L 67.4496 0L 67.4496 5.41236L 9.8064 5.41236C 7.3764 5.41236 5.4 7.38836 5.4 9.8223L 5.4 182.491L 306.306 182.491L 306.306 9.8223C 306.306 7.38836 304.33 5.41236 301.903 5.41236L 67.4496 5.41236L 67.4496 0L 301.903 0C 307.31 0 311.706 4.40633 311.706 9.8223L 311.706 187.9L 0 187.9Z"/>
<path id="path17_stroke_2x" d="M 0 187.9L -1 187.9L -1 188.9L 0 188.9L 0 187.9ZM 67.4496 0L 68.4496 0L 68.4496 -1L 67.4496 -1L 67.4496 0ZM 67.4496 5.41236L 67.4496 6.41236L 68.4496 6.41236L 68.4496 5.41236L 67.4496 5.41236ZM 5.4 182.491L 4.4 182.491L 4.4 183.491L 5.4 183.491L 5.4 182.491ZM 306.306 182.491L 306.306 183.491L 307.306 183.491L 307.306 182.491L 306.306 182.491ZM 67.4496 5.41236L 66.4496 5.41236L 66.4496 6.41236L 67.4496 6.41236L 67.4496 5.41236ZM 67.4496 0L 67.4496 -1L 66.4496 -1L 66.4496 0L 67.4496 0ZM 311.706 187.9L 311.706 188.9L 312.706 188.9L 312.706 187.9L 311.706 187.9ZM 1 187.9L 1 9.8223L -1 9.8223L -1 187.9L 1 187.9ZM 1 9.8223C 1 4.95709 4.95301 1 9.8064 1L 9.8064 -1C 3.84539 -1 -1 3.85558 -1 9.8223L 1 9.8223ZM 9.8064 1L 67.4496 1L 67.4496 -1L 9.8064 -1L 9.8064 1ZM 66.4496 0L 66.4496 5.41236L 68.4496 5.41236L 68.4496 0L 66.4496 0ZM 67.4496 4.41236L 9.8064 4.41236L 9.8064 6.41236L 67.4496 6.41236L 67.4496 4.41236ZM 9.8064 4.41236C 6.82365 4.41236 4.4 6.83654 4.4 9.8223L 6.4 9.8223C 6.4 7.94018 7.92915 6.41236 9.8064 6.41236L 9.8064 4.41236ZM 4.4 9.8223L 4.4 182.491L 6.4 182.491L 6.4 9.8223L 4.4 9.8223ZM 5.4 183.491L 306.306 183.491L 306.306 181.491L 5.4 181.491L 5.4 183.491ZM 307.306 182.491L 307.306 9.8223L 305.306 9.8223L 305.306 182.491L 307.306 182.491ZM 307.306 9.8223C 307.306 6.83707 304.883 4.41236 301.903 4.41236L 301.903 6.41236C 303.776 6.41236 305.306 7.93965 305.306 9.8223L 307.306 9.8223ZM 301.903 4.41236L 67.4496 4.41236L 67.4496 6.41236L 301.903 6.41236L 301.903 4.41236ZM 68.4496 5.41236L 68.4496 0L 66.4496 0L 66.4496 5.41236L 68.4496 5.41236ZM 67.4496 1L 301.903 1L 301.903 -1L 67.4496 -1L 67.4496 1ZM 301.903 1C 306.756 1 310.706 4.95661 310.706 9.8223L 312.706 9.8223C 312.706 3.85606 307.865 -1 301.903 -1L 301.903 1ZM 310.706 9.8223L 310.706 187.9L 312.706 187.9L 312.706 9.8223L 310.706 9.8223ZM 311.706 186.9L 0 186.9L 0 188.9L 311.706 188.9L 311.706 186.9Z"/>
<path id="path18_fill" fill-rule="evenodd" d="M 0 144.136L 273.406 144.136L 273.406 0L 0 0L 0 144.136Z"/>
<path id="path19_fill" fill-rule="evenodd" d="M 0 54.7186L 92.2824 54.7186L 92.2824 0L 0 0L 0 54.7186Z"/>
<path id="path20_fill" fill-rule="evenodd" d="M 0 27.3611L 92.2824 27.3611L 92.2824 0L 0 0L 0 27.3611Z"/>
<path id="path21_fill" fill-rule="evenodd" d="M 5.3999 54.7185L 92.2859 54.7185L 92.2859 5.40869L 5.3999 5.40869L 5.3999 54.7185ZM 0 60.1273L 97.686 60.1273L 97.686 0L 0 0L 0 60.1273Z"/>
<path id="path22_stroke" d="M 5.3999 54.7185L 4.8999 54.7185L 4.8999 55.2185L 5.3999 55.2185L 5.3999 54.7185ZM 92.2859 54.7185L 92.2859 55.2185L 92.7859 55.2185L 92.7859 54.7185L 92.2859 54.7185ZM 92.2859 5.40869L 92.7859 5.40869L 92.7859 4.90869L 92.2859 4.90869L 92.2859 5.40869ZM 5.3999 5.40869L 5.3999 4.90869L 4.8999 4.90869L 4.8999 5.40869L 5.3999 5.40869ZM 0 60.1273L -0.5 60.1273L -0.5 60.6273L 0 60.6273L 0 60.1273ZM 97.686 60.1273L 97.686 60.6273L 98.186 60.6273L 98.186 60.1273L 97.686 60.1273ZM 97.686 0L 98.186 0L 98.186 -0.5L 97.686 -0.5L 97.686 0ZM 0 0L 0 -0.5L -0.5 -0.5L -0.5 0L 0 0ZM 5.3999 55.2185L 92.2859 55.2185L 92.2859 54.2185L 5.3999 54.2185L 5.3999 55.2185ZM 92.7859 54.7185L 92.7859 5.40869L 91.7859 5.40869L 91.7859 54.7185L 92.7859 54.7185ZM 92.2859 4.90869L 5.3999 4.90869L 5.3999 5.90869L 92.2859 5.90869L 92.2859 4.90869ZM 4.8999 5.40869L 4.8999 54.7185L 5.8999 54.7185L 5.8999 5.40869L 4.8999 5.40869ZM 0 60.6273L 97.686 60.6273L 97.686 59.6273L 0 59.6273L 0 60.6273ZM 98.186 60.1273L 98.186 0L 97.186 0L 97.186 60.1273L 98.186 60.1273ZM 97.686 -0.5L 0 -0.5L 0 0.5L 97.686 0.5L 97.686 -0.5ZM -0.5 0L -0.5 60.1273L 0.5 60.1273L 0.5 0L -0.5 0Z"/>
<path id="path23_fill" fill-rule="evenodd" d="M 306.306 0L 0 0L 0 34.2194C 0 38.2039 3.222 41.4311 7.2 41.4311L 299.106 41.4311C 303.08 41.4311 306.306 38.2039 306.306 34.2194L 306.306 0Z"/>
<path id="path24_fill" fill-rule="evenodd" d="M 5.3999 5.40869L 5.3999 36.9309C 5.3999 39.4117 7.4195 41.4346 9.8999 41.4346L 301.81 41.4346C 304.29 41.4346 306.306 39.4117 306.306 36.9309L 306.306 5.40869L 5.3999 5.40869ZM 301.81 46.8434L 9.9 46.8434C 4.4424 46.8434 0 42.3938 0 36.931L 0 0L 311.706 0L 311.706 36.931C 311.706 42.3938 307.267 46.8434 301.81 46.8434Z"/>
<path id="path25_fill" fill-rule="evenodd" d="M 0 5.40876L 129.37 5.40876L 129.37 0L 0 0L 0 5.40876Z"/>
<path id="path26_fill" fill-rule="evenodd" d="M 0 86.1687L 144.072 86.1687L 144.072 0L 0 0L 0 86.1687Z"/>
<path id="path27_fill" fill-rule="evenodd" d="M 28.2816 16.3525L 0 0L 0 32.7086L 28.2816 16.3525Z"/>
<path id="path28_fill" fill-rule="evenodd" d="M 0 40.1871L 40.122 40.1871L 40.122 0L 0 0L 0 40.1871Z"/>
<path id="path29_fill" fill-rule="evenodd" d="M 0 40.1907L 40.122 40.1907L 40.122 0L 0 0L 0 40.1907Z"/>
<path id="path30_fill" fill-rule="evenodd" d="M 0 5.40876L 50.4684 5.40876L 50.4684 0L 0 0L 0 5.40876Z"/>
<path id="path31_fill" fill-rule="evenodd" d="M 0 5.40876L 50.4612 5.40876L 50.4612 0L 0 0L 0 5.40876Z"/>
<path id="path32_fill" fill-rule="evenodd" d="M 0 5.40515L 50.4612 5.40515L 50.4612 0L 0 0L 0 5.40515Z"/>
<path id="path33_fill" fill-rule="evenodd" d="M 0 5.40876L 118.84 5.40876L 118.84 0L 0 0L 0 5.40876Z"/>
<path id="path34_fill" fill-rule="evenodd" d="M 18.0864 5.40876L 2.7 5.40876C 1.206 5.40876 0 4.1972 0 2.70438C 0 1.21156 1.206 0 2.7 0L 18.0864 0C 19.5768 0 20.7864 1.21156 20.7864 2.70438C 20.7864 4.1972 19.5768 5.40876 18.0864 5.40876Z"/>
<path id="path35_fill" fill-rule="evenodd" d="M 2.7 20.8165C 1.2096 20.8165 0 19.6049 0 18.1121L 0 2.70438C 0 1.21156 1.2096 0 2.7 0C 4.1904 0 5.4 1.21156 5.4 2.70438L 5.4 18.1121C 5.4 19.6049 4.1904 20.8165 2.7 20.8165Z"/>
<path id="path36_fill" fill-rule="evenodd" d="M 18.09 5.40876L 2.7 5.40876C 1.2096 5.40876 0 4.1972 0 2.70438C 0 1.21156 1.2096 0 2.7 0L 18.09 0C 19.5804 0 20.79 1.21156 20.79 2.70438C 20.79 4.1972 19.5804 5.40876 18.09 5.40876Z"/>
<path id="path37_fill" fill-rule="evenodd" d="M 2.7 20.8201C 1.2096 20.8201 0 19.6085 0 18.1157L 0 2.70438C 0 1.21156 1.2096 0 2.7 0C 4.1904 0 5.4 1.21156 5.4 2.70438L 5.4 18.1157C 5.4 19.6085 4.1904 20.8201 2.7 20.8201Z"/>
<path id="path38_fill" fill-rule="evenodd" d="M 2.7027 16.3083C 2.0079 16.3083 1.3203 16.0451 0.7911 15.515C -0.2637 14.4621 -0.2637 12.7493 0.7911 11.6928L 11.6703 0.792383C 12.7251 -0.264128 14.4315 -0.264128 15.4863 0.792383C 16.5411 1.84889 16.5411 3.56167 15.4863 4.61818L 4.6107 15.515C 4.0815 16.0451 3.3939 16.3083 2.7027 16.3083Z"/>
<path id="path39_fill" fill-rule="evenodd" d="M 13.5783 16.307C 12.8871 16.307 12.1959 16.0437 11.6703 15.5137L 0.7911 4.61683C -0.2637 3.56031 -0.2637 1.84754 0.7911 0.791031C 1.8495 -0.265479 3.5595 -0.261873 4.6107 0.791031L 15.4863 11.6915C 16.5411 12.748 16.5411 14.4608 15.4863 15.5137C 14.9607 16.0437 14.2695 16.307 13.5783 16.307Z"/>
<path id="path40_fill" fill-rule="evenodd" d="M 2.6991 16.3083C 2.0079 16.3083 1.3167 16.0415 0.7911 15.515C -0.2637 14.4585 -0.2637 12.7457 0.7911 11.6892L 11.6703 0.792383C 12.7251 -0.264128 14.4351 -0.264128 15.4899 0.792383C 16.5447 1.84889 16.5447 3.55806 15.4899 4.61457L 4.6071 15.515C 4.0815 16.0415 3.3903 16.3083 2.6991 16.3083Z"/>
<path id="path41_fill" fill-rule="evenodd" d="M 13.5783 16.3083C 12.8871 16.3083 12.1995 16.0415 11.6703 15.515L 0.7911 4.61457C -0.2637 3.55806 -0.2637 1.84889 0.7911 0.792383C 1.8459 -0.264128 3.5523 -0.264128 4.6071 0.792383L 15.4899 11.6892C 16.5447 12.7457 16.5447 14.4585 15.4899 15.515C 14.9607 16.0415 14.2731 16.3083 13.5783 16.3083Z"/>
<path id="path42_fill" fill-rule="evenodd" d="M 0 5.40876L 62.6256 5.40876L 62.6256 0L 0 0L 0 5.40876Z"/>
<path id="path43_fill" fill-rule="evenodd" d="M 0 5.40876L 196.556 5.40876L 196.556 0L 0 0L 0 5.40876Z"/>
<path id="path44_fill" fill-rule="evenodd" d="M 0 5.40876L 71.2836 5.40876L 71.2836 0L 0 0L 0 5.40876Z"/>
<path id="path45_fill" fill-rule="evenodd" d="M 0 5.40876L 256.352 5.40876L 256.352 0L 0 0L 0 5.40876Z"/>
<path id="path46_fill" fill-rule="evenodd" d="M 9.6984 4.85706C 9.6984 7.5362 7.5276 9.71052 4.8492 9.71052C 2.1708 9.71052 0 7.5362 0 4.85706C 0 2.17432 2.1708 0 4.8492 0C 7.5276 0 9.6984 2.17432 9.6984 4.85706Z"/>
<path id="path47_fill" fill-rule="evenodd" d="M 9.6984 4.85706C 9.6984 7.53981 7.5276 9.71413 4.8492 9.71413C 2.1708 9.71413 0 7.53981 0 4.85706C 0 2.17432 2.1708 0 4.8492 0C 7.5276 0 9.6984 2.17432 9.6984 4.85706Z"/>
<path id="path48_fill" fill-rule="evenodd" d="M 93.4884 71.6047L 0 71.6047L 0 66.2104C 0 64.0108 0.9648 61.9267 2.592 60.506L 79.9128 60.506L 79.9128 0L 93.4884 0L 93.4884 71.6047Z"/>
<path id="path49_fill" fill-rule="evenodd" d="M 0 71.6047L 5.4 71.6047L 5.4 0L 0 0L 0 71.6047Z"/>
<path id="path50_fill" fill-rule="evenodd" d="M 0 60.506C 0.3528 60.1922 0.7416 59.911 1.1592 59.6694L 1.8504 59.2656L 6.4332 59.2656L 6.4332 56.5828L 18.5112 49.5154L 22.5828 46.0574L 65.25 46.0574L 65.25 40.6522L 22.5828 40.6522L 22.5828 31.8648L 65.25 31.8648L 65.25 26.456L 22.5828 26.456L 22.5828 8.08429C 22.5828 3.62747 26.2044 0 30.654 0L 35.6868 0L 35.6868 2.70438L 39.0708 2.70438L 39.0708 0L 50.9976 0L 50.9976 2.70438L 54.7848 2.70438L 54.7848 0L 77.3208 0L 77.3208 60.506L 0 60.506Z"/>
<path id="path51_fill" fill-rule="evenodd" d="M 88.992 36.0259L 0 36.0259L 0 0L 93.4884 0L 93.4884 31.5222C 93.4884 34.0031 91.4724 36.0259 88.992 36.0259Z"/>
<path id="path52_fill" fill-rule="evenodd" d="M 88.992 46.8434L 0 46.8434L 0 41.4347L 88.992 41.4347C 91.4724 41.4347 93.4884 39.4118 93.4884 36.931L 93.4884 5.40876L 0 5.40876L 0 0L 98.8884 0L 98.8884 36.931C 98.8884 42.3938 94.4496 46.8434 88.992 46.8434Z"/>
<path id="path53_fill" fill-rule="evenodd" d="M 4.5828 2.68274L 0 2.68274L 4.5828 0L 4.5828 2.68274Z"/>
<path id="path54_fill" fill-rule="evenodd" d="M 0 5.40876L 42.6672 5.40876L 42.6672 0L 0 0L 0 5.40876Z"/>
<path id="path55_fill" fill-rule="evenodd" d="M 0 5.40515L 42.6672 5.40515L 42.6672 0L 0 0L 0 5.40515Z"/>
<path id="path56_fill" fill-rule="evenodd" d="M 172.58 0.894248L 172.58 0L 0 0L 85.9788 50.4998L 172.58 0.894248Z"/>
<path id="path57_fill" fill-rule="evenodd" d="M 172.58 49.6055L 172.58 50.4962L 0 50.4962L 85.9752 0L 172.58 49.6055Z"/>
<path id="path58_fill" fill-rule="evenodd" d="M 124.927 121.419L 0 121.419L 0 6.69604C 0 2.99645 2.9916 0 6.6852 0L 118.242 0C 121.932 0 124.927 2.99645 124.927 6.69604L 124.927 121.419Z"/>
<path id="path59_fill" fill-rule="evenodd" d="M 0 126.828L 0 8.08429C 0 3.62747 3.6216 0 8.0712 0L 13.104 0L 13.104 5.40876L 8.0712 5.40876C 6.5988 5.40876 5.4 6.6095 5.4 8.08429L 5.4 121.419L 124.927 121.419L 124.927 8.08429C 124.927 6.6095 123.728 5.40876 122.252 5.40876L 13.104 5.40876L 13.104 0L 122.252 0C 126.706 0 130.327 3.62747 130.327 8.08429L 130.327 126.828L 0 126.828Z"/>
<path id="path60_fill" fill-rule="evenodd" d="M 0.6264 0L 0 0L 0 100.105L 86.6052 50.4998L 0.6264 0Z"/>
<path id="path61_fill" fill-rule="evenodd" d="M 86.6016 0L 0 49.6055L 85.9752 100.105L 86.6016 100.105L 86.6016 0Z"/>
<path id="path62_fill" fill-rule="evenodd" d="M 0 49.6055L 0 50.4998L 172.58 50.4998L 86.6052 0L 0 49.6055Z"/>
<path id="path63_fill" fill-rule="evenodd" d="M 5.6808 120.456C 2.5488 120.456 0 117.903 0 114.766L 0 19.5504C 0 16.8677 1.4364 14.3616 3.7512 13.0094L 25.5017 0L 28.2233 4.66595L 6.4728 17.679C 5.8104 18.0648 5.4 18.786 5.4 19.5504L 5.4 114.766L 172.926 115.047L 173.207 19.5576C 173.207 18.7896 172.793 18.0684 172.127 17.6826L 152.68 6.13474L 155.394 1.45797L 174.841 13.0058C 177.163 14.358 178.607 16.8677 178.607 19.5576L 178.607 114.766C 178.607 117.903 176.058 120.456 172.926 120.456L 5.6808 120.456Z"/>
<path id="path64_stroke_2x" d="M 3.7512 13.0094L 4.25562 13.8729L 4.26451 13.8676L 3.7512 13.0094ZM 25.5017 0L 26.3655 -0.503842L 25.8561 -1.37719L 24.9884 -0.858204L 25.5017 0ZM 28.2233 4.66595L 28.7368 5.5241L 29.5854 5.01636L 29.0871 4.16211L 28.2233 4.66595ZM 6.4728 17.679L 6.97615 18.5431L 6.98621 18.5371L 6.4728 17.679ZM 5.4 114.766L 4.4 114.766L 4.4 115.764L 5.39832 115.766L 5.4 114.766ZM 172.926 115.047L 172.924 116.047L 173.923 116.049L 173.926 115.05L 172.926 115.047ZM 173.207 19.5576L 174.207 19.5606L 174.207 19.5576L 173.207 19.5576ZM 172.127 17.6826L 171.616 18.5425L 171.626 18.5479L 172.127 17.6826ZM 152.68 6.13474L 151.815 5.63276L 151.318 6.48906L 152.169 6.99457L 152.68 6.13474ZM 155.394 1.45797L 155.905 0.598132L 155.036 0.0824426L 154.529 0.955988L 155.394 1.45797ZM 174.841 13.0058L 174.331 13.8657L 174.338 13.87L 174.841 13.0058ZM 5.6808 119.456C 3.10261 119.456 1 117.352 1 114.766L -1 114.766C -1 118.454 1.99499 121.456 5.6808 121.456L 5.6808 119.456ZM 1 114.766L 1 19.5504L -1 19.5504L -1 114.766L 1 114.766ZM 1 19.5504C 1 17.2225 2.24828 15.0455 4.2556 13.8729L 3.2468 12.1459C 0.62452 13.6778 -1 16.5129 -1 19.5504L 1 19.5504ZM 4.26451 13.8676L 26.0151 0.858204L 24.9884 -0.858204L 3.23789 12.1512L 4.26451 13.8676ZM 24.6379 0.503842L 27.3595 5.1698L 29.0871 4.16211L 26.3655 -0.503842L 24.6379 0.503842ZM 27.7099 3.80781L 5.95939 16.8208L 6.98621 18.5371L 28.7368 5.5241L 27.7099 3.80781ZM 5.96949 16.8149C 4.99685 17.3814 4.4 18.4332 4.4 19.5504L 6.4 19.5504C 6.4 19.1387 6.62395 18.7482 6.97611 18.5431L 5.96949 16.8149ZM 4.4 19.5504L 4.4 114.766L 6.4 114.766L 6.4 19.5504L 4.4 19.5504ZM 5.39832 115.766L 172.924 116.047L 172.928 114.047L 5.40168 113.766L 5.39832 115.766ZM 173.926 115.05L 174.207 19.5606L 172.207 19.5547L 171.926 115.044L 173.926 115.05ZM 174.207 19.5576C 174.207 18.4339 173.604 17.3825 172.628 16.8173L 171.626 18.5479C 171.982 18.7543 172.207 19.1453 172.207 19.5576L 174.207 19.5576ZM 172.637 16.8228L 153.19 5.2749L 152.169 6.99457L 171.616 18.5424L 172.637 16.8228ZM 153.544 6.63671L 156.259 1.95994L 154.529 0.955988L 151.815 5.63276L 153.544 6.63671ZM 154.883 2.3178L 174.331 13.8656L 175.352 12.146L 155.905 0.598132L 154.883 2.3178ZM 174.338 13.87C 176.352 15.043 177.607 17.2236 177.607 19.5576L 179.607 19.5576C 179.607 16.5117 177.974 13.673 175.344 12.1417L 174.338 13.87ZM 177.607 19.5576L 177.607 114.766L 179.607 114.766L 179.607 19.5576L 177.607 19.5576ZM 177.607 114.766C 177.607 117.352 175.504 119.456 172.926 119.456L 172.926 121.456C 176.612 121.456 179.607 118.454 179.607 114.766L 177.607 114.766ZM 172.926 119.456L 5.6808 119.456L 5.6808 121.456L 172.926 121.456L 172.926 119.456Z"/>
<path id="path65_fill" fill-rule="evenodd" d="M 171.954 105.658L 0 4.66595L 2.7252 0L 174.683 100.992L 171.954 105.658Z"/>
<path id="path66_fill" fill-rule="evenodd" d="M 2.7252 105.658L 0 100.992L 171.954 0L 174.683 4.66595L 2.7252 105.658Z"/>
<path id="path67_fill" fill-rule="evenodd" d="M 0 5.40876L 589.756 5.40876L 589.756 0L 0 0L 0 5.40876Z"/>
<path id="path68_fill" fill-rule="evenodd" d="M 90.7811 86.7008C 111.877 70.2906 115.697 39.861 99.3167 18.7308C 82.9367 -2.39583 52.5563 -6.22523 31.4603 10.1813C 13.2443 24.3487 7.92347 48.9657 17.3483 69.0286L 0.143873 95.564C -0.306127 96.2563 0.374273 97.1217 1.15187 96.8476L 30.9707 86.3114C 48.0275 99.9559 72.7811 100.699 90.7811 86.7008Z"/>
<path id="path69_stroke" d="M 99.3167 18.7308L 101.53 17.0153L 101.529 17.0151L 99.3167 18.7308ZM 31.4603 10.1813L 29.7413 7.97108L 29.7413 7.97111L 31.4603 10.1813ZM 17.3483 69.0286L 19.6977 70.5519L 20.5441 69.2463L 19.8826 67.8381L 17.3483 69.0286ZM 0.143873 95.564L 2.49153 97.0899L 2.49328 97.0872L 0.143873 95.564ZM 1.15187 96.8476L 2.08255 99.4884L 2.08471 99.4877L 1.15187 96.8476ZM 30.9707 86.3114L 32.7197 84.1249L 31.5048 83.153L 30.0378 83.6714L 30.9707 86.3114ZM 92.5003 88.9109C 114.816 71.5517 118.855 39.3653 101.53 17.0153L 97.1037 20.4462C 112.538 40.3566 108.938 69.0296 89.0619 84.4907L 92.5003 88.9109ZM 101.529 17.0151C 84.2016 -5.33399 52.0602 -9.38651 29.7413 7.97108L 33.1792 12.3916C 53.0524 -3.06395 81.6717 0.542342 97.1039 20.4464L 101.529 17.0151ZM 29.7413 7.97111C 10.4674 22.9612 4.84597 48.9999 14.814 70.2191L 19.8826 67.8381C 11.001 48.9315 16.0212 25.7361 33.1793 12.3916L 29.7413 7.97111ZM 14.9989 67.5054L -2.20553 94.0407L 2.49328 97.0872L 19.6977 70.5519L 14.9989 67.5054ZM -2.20378 94.038C -4.10644 96.9652 -1.22448 100.654 2.08255 99.4884L 0.221195 94.2068C 1.97302 93.5895 3.49418 95.5473 2.49153 97.0899L -2.20378 94.038ZM 2.08471 99.4877L 31.9035 88.9514L 30.0378 83.6714L 0.219034 94.2076L 2.08471 99.4877ZM 29.2216 88.4979C 47.2654 102.932 73.4532 103.723 92.4999 88.9111L 89.0622 84.4905C 72.1089 97.6744 48.7895 96.9798 32.7197 84.1249L 29.2216 88.4979Z"/>
<path id="path70_fill" fill-rule="evenodd" d="M 63.8068 102.296C 53.032 102.296 42.2644 98.8706 33.178 92.0232L 4.74516 102.062C 3.30876 102.57 1.71036 102.109 0.767161 100.912C -0.179639 99.7108 -0.255239 98.0449 0.569161 96.7612L 16.978 71.4663C 7.79796 50.2856 14.1916 24.9582 32.5012 10.7151C 46.6312 -0.275476 65.776 -3.04476 82.462 3.49262L 80.4964 8.52637C 65.5744 2.68492 48.4492 5.15131 35.8096 14.988C 19.0804 27.9979 13.4752 51.3673 22.4896 70.5468L 23.1304 71.9098L 8.04996 95.1602L 34.1788 85.9329L 35.3488 86.8704C 51.8836 100.089 75.1 100.241 91.822 87.231C 110.61 72.6201 115.02 45.6485 101.87 25.8308L 106.37 22.8379C 121.079 44.9994 116.144 75.1659 95.134 91.5075C 85.8784 98.7048 74.8372 102.296 63.8068 102.296Z"/>
<path id="path71_stroke" d="M 33.178 92.0232L 33.4789 91.6238L 33.2646 91.4623L 33.0115 91.5517L 33.178 92.0232ZM 4.74516 102.062L 4.5787 101.59L 4.57832 101.59L 4.74516 102.062ZM 0.767161 100.912L 1.15991 100.602L 1.15979 100.602L 0.767161 100.912ZM 0.569161 96.7612L 0.149685 96.4891L 0.148449 96.491L 0.569161 96.7612ZM 16.978 71.4663L 17.3974 71.7384L 17.5433 71.5135L 17.4367 71.2674L 16.978 71.4663ZM 32.5012 10.7151L 32.1942 10.3204L 32.1942 10.3205L 32.5012 10.7151ZM 82.462 3.49262L 82.9277 3.67449L 83.1094 3.20927L 82.6444 3.02708L 82.462 3.49262ZM 80.4964 8.52637L 80.3141 8.99197L 80.7801 9.17439L 80.9621 8.70824L 80.4964 8.52637ZM 35.8096 14.988L 36.1165 15.3827L 36.1166 15.3826L 35.8096 14.988ZM 22.4896 70.5468L 22.0371 70.7595L 22.0371 70.7595L 22.4896 70.5468ZM 23.1304 71.9098L 23.5498 72.1819L 23.7011 71.9486L 23.5828 71.6971L 23.1304 71.9098ZM 8.04996 95.1602L 7.63047 94.8882L 6.83081 96.121L 8.21646 95.6317L 8.04996 95.1602ZM 34.1788 85.9329L 34.4914 85.5427L 34.2744 85.3689L 34.0123 85.4614L 34.1788 85.9329ZM 35.3488 86.8704L 35.0361 87.2606L 35.0365 87.2609L 35.3488 86.8704ZM 91.822 87.231L 91.515 86.8363L 91.5149 86.8364L 91.822 87.231ZM 101.87 25.8308L 101.593 25.4145L 101.177 25.6911L 101.453 26.1073L 101.87 25.8308ZM 106.37 22.8379L 106.786 22.5614L 106.509 22.1445L 106.093 22.4216L 106.37 22.8379ZM 95.134 91.5075L 95.4409 91.9022L 95.4409 91.9022L 95.134 91.5075ZM 63.8068 101.796C 53.1382 101.796 42.4767 98.4046 33.4789 91.6238L 32.877 92.4225C 42.052 99.3367 52.9257 102.796 63.8068 102.796L 63.8068 101.796ZM 33.0115 91.5517L 4.5787 101.59L 4.91162 102.533L 33.3444 92.4946L 33.0115 91.5517ZM 4.57832 101.59C 3.34366 102.027 1.97039 101.631 1.15991 100.602L 0.374415 101.221C 1.45033 102.587 3.27386 103.113 4.912 102.533L 4.57832 101.59ZM 1.15979 100.602C 0.34576 99.5696 0.28011 98.1366 0.989872 97.0314L 0.148449 96.491C -0.790589 97.9532 -0.705038 99.852 0.374535 101.221L 1.15979 100.602ZM 0.988632 97.0333L 17.3974 71.7384L 16.5585 71.1942L 0.149689 96.4891L 0.988632 97.0333ZM 17.4367 71.2674C 8.34709 50.2952 14.6793 25.2122 32.8082 11.1098L 32.1942 10.3205C 13.7038 24.7041 7.24884 50.2759 16.5192 71.6651L 17.4367 71.2674ZM 32.8081 11.1098C 46.7988 0.227584 65.7576 -2.51495 82.2796 3.95817L 82.6444 3.02708C 65.7943 -3.57457 46.4635 -0.778537 32.1942 10.3204L 32.8081 11.1098ZM 81.9962 3.31076L 80.0306 8.34451L 80.9621 8.70824L 82.9277 3.67449L 81.9962 3.31076ZM 80.6786 8.06078C 65.5929 2.15522 48.2817 4.6481 35.5025 14.5934L 36.1166 15.3826C 48.6167 5.65452 65.5559 3.21462 80.3141 8.99197L 80.6786 8.06078ZM 35.5026 14.5933C 18.5889 27.7467 12.9232 51.3683 22.0371 70.7595L 22.9421 70.3341C 14.0272 51.3663 19.5718 28.2491 36.1165 15.3827L 35.5026 14.5933ZM 22.0371 70.7595L 22.6779 72.1225L 23.5828 71.6971L 22.942 70.3341L 22.0371 70.7595ZM 22.7109 71.6377L 7.63047 94.8882L 8.46945 95.4323L 23.5498 72.1819L 22.7109 71.6377ZM 8.21646 95.6317L 34.3453 86.4044L 34.0123 85.4614L 7.88346 94.6888L 8.21646 95.6317ZM 33.8661 86.3231L 35.0361 87.2606L 35.6614 86.4802L 34.4914 85.5427L 33.8661 86.3231ZM 35.0365 87.2609C 51.7521 100.624 75.2246 100.777 92.129 87.6256L 91.5149 86.8364C 74.9753 99.7043 52.015 99.5544 35.661 86.4799L 35.0365 87.2609ZM 92.1289 87.6257C 111.124 72.8544 115.582 45.5901 102.286 25.5543L 101.453 26.1073C 114.459 45.7068 110.097 72.3859 91.515 86.8363L 92.1289 87.6257ZM 102.146 26.2471L 106.646 23.2543L 106.093 22.4216L 101.593 25.4145L 102.146 26.2471ZM 105.953 23.1145C 120.518 45.0578 115.63 74.9316 94.827 91.1129L 95.4409 91.9022C 116.657 75.4001 121.641 44.9411 106.786 22.5614L 105.953 23.1145ZM 94.827 91.1128C 85.661 98.2404 74.7283 101.796 63.8068 101.796L 63.8068 102.796C 74.946 102.796 86.0957 99.1691 95.4409 91.9022L 94.827 91.1128Z"/>
<path id="path72_fill" fill-rule="evenodd" d="M 68.1264 34.1184C 68.1264 52.9589 52.8768 68.2369 34.0632 68.2369C 15.2496 68.2369 0 52.9589 0 34.1184C 0 15.2743 15.2496 0 34.0632 0C 52.8768 0 68.1264 15.2743 68.1264 34.1184Z"/>
<path id="path73_fill" fill-rule="evenodd" d="M 23.0184 13.3128L 0 0L 0 26.6255L 23.0184 13.3128Z"/>
<path id="path74_fill" fill-rule="evenodd" d="M 0 42.6282L 0 0L 36.8568 21.3141L 0 42.6282L 0 0L 36.8568 21.3141L 0 42.6282Z"/>
<path id="path75_stroke" d="M 0 0L 1.40172 -2.42388L -2.8 -4.85371L -2.8 0L 0 0ZM 36.8568 21.3141L 38.2585 23.738L 42.4499 21.3141L 38.2585 18.8902L 36.8568 21.3141ZM 0 42.6282L -2.8 42.6282L -2.8 47.4819L 1.40172 45.0521L 0 42.6282ZM 0 0L 1.40172 -2.42388L -2.8 -4.85371L -2.8 0L 0 0ZM 36.8568 21.3141L 38.2585 23.738L 42.4499 21.3141L 38.2585 18.8902L 36.8568 21.3141ZM 2.8 42.6282L 2.8 0L -2.8 0L -2.8 42.6282L 2.8 42.6282ZM -1.40172 2.42388L 35.4551 23.738L 38.2585 18.8902L 1.40172 -2.42388L -1.40172 2.42388ZM 35.4551 18.8902L -1.40172 40.2043L 1.40172 45.0521L 38.2585 23.738L 35.4551 18.8902ZM 2.8 42.6282L 2.8 0L -2.8 0L -2.8 42.6282L 2.8 42.6282ZM -1.40172 2.42388L 35.4551 23.738L 38.2585 18.8902L 1.40172 -2.42388L -1.40172 2.42388ZM 35.4551 18.8902L -1.40172 40.2043L 1.40172 45.0521L 38.2585 23.738L 35.4551 18.8902Z"/>
</defs>
</svg>
