<?xml version="1.0" encoding="UTF-8" standalone="no"?>
<svg width="60px" height="59px" viewBox="0 0 60 59" version="1.1" xmlns="http://www.w3.org/2000/svg" xmlns:xlink="http://www.w3.org/1999/xlink">
    <!-- Generator: sketchtool 49.1 (51147) - http://www.bohemiancoding.com/sketch -->
    <title>28F23155-7A63-42C9-B970-8EB6B80F5A75</title>
    <desc>Created with sketchtool.</desc>
    <defs></defs>
    <g id="Page-1" stroke="none" stroke-width="1" fill="none" fill-rule="evenodd" stroke-linecap="round" stroke-linejoin="round">
        <g id="homepage@2x" transform="translate(-241.000000, -3446.000000)" stroke="#505070" stroke-width="2">
            <g id="new-rules-new-tools" transform="translate(241.000000, 3108.000000)">
                <g id="features" transform="translate(0.000000, 217.000000)">
                    <g id="feature" transform="translate(1.000000, 121.000000)">
                        <g id="publish-icon" transform="translate(0.000000, 1.000000)">
                            <path d="M26.46,47.3213 L25.998,49.4073 L27.989,51.2733 C28.609,51.8553 29.574,51.8553 30.193,51.2733 L32.184,49.4073 L31.642,47.1553" id="Stroke-1"></path>
                            <polyline id="Stroke-3" points="30.2881 51.2324 31.2781 55.0004 33.8201 55.0004 35.9931 48.4594"></polyline>
                            <polyline id="Stroke-5" points="22.1875 48.4062 24.3355 55.0002 26.8775 55.0002 27.8675 51.2322"></polyline>
                            <path d="M34.6392,45.1807 C33.9302,46.7977 35.0132,48.3077 35.6642,48.4057 C39.6442,49.0027 42.4452,50.3487 44.3702,52.0087 C45.3272,52.8337 44.9162,54.3967 43.6772,54.6487 C40.7772,55.2387 35.5732,56.0517 28.9292,56.0517 C22.1682,56.0517 17.1022,55.2607 14.2712,54.6737 C13.0302,54.4157 12.6332,52.8417 13.6022,52.0257 C15.5442,50.3897 18.3252,49.0667 22.1872,48.4067 C22.8412,48.2937 24.0522,46.8397 23.2052,45.1807" id="Stroke-7"></path>
                            <path d="M38.0708,32.4873 C38.1458,32.0733 38.5988,31.6813 38.7658,30.2093 C39.2088,26.2913 36.8488,23.4533 33.6388,22.3133 C32.3498,21.8553 27.0948,20.0383 25.9828,23.4283 C25.5938,21.9833 24.7788,22.2353 24.1258,22.5293 C20.7078,24.0663 18.2588,26.4853 19.2858,30.7363 C19.4208,31.2943 19.8698,31.3473 20.3348,32.5863 C20.0078,32.9153 19.3548,33.4123 19.3548,34.1703 C19.3548,35.3233 19.6478,37.6563 20.9568,38.3143 C21.0758,40.8473 22.9258,44.8043 22.9258,44.8043 C25.2408,46.8983 27.1688,47.8103 28.0378,47.8103 C28.0748,47.8103 28.4508,47.5913 29.0348,47.5913 C29.6388,47.5913 30.0508,47.8103 30.0878,47.8103 C30.4078,47.8103 33.2258,46.5653 34.9308,44.8043 C34.9308,44.8043 36.7768,40.8473 36.8958,38.3143 C38.2098,37.6003 38.4978,35.3233 38.4978,34.1703 C38.4978,33.4123 37.8448,32.9153 37.5178,32.5863 C37.5988,32.1543 38.0708,32.4873 38.0708,32.4873 Z" id="Stroke-9"></path>
                            <path d="M19.8628,31.584 C19.7588,29.653 23.1488,28.542 24.0938,28.597 C23.7648,29.74 25.4168,30.655 27.4838,30.876 C31.5768,31.312 38.8768,28.363 38.3208,31.781" id="Stroke-11"></path>
                            <path d="M54.1147,39.8066 L54.1147,25.0906" id="Stroke-17" stroke-dasharray="0,4.205"></path>
                            <path d="M3.8853,27.1934 L3.8853,41.9094" id="Stroke-27" stroke-dasharray="0,4.205"></path>
                            <path d="M21.8765,8.1133 L9.0175,15.5373" id="Stroke-35" stroke-dasharray="0,4.242"></path>
                            <path d="M29,14.7178 L29,16.5768" id="Stroke-41" stroke-dasharray="0,3.718"></path>
                            <path d="M47.146,14.4766 L34.287,7.0526" id="Stroke-47" stroke-dasharray="0,4.242"></path>
                            <path d="M33,4 C33,6.209 31.209,8 29,8 C26.791,8 25,6.209 25,4 C25,1.791 26.791,-7.10542736e-15 29,-7.10542736e-15 C31.209,-7.10542736e-15 33,1.791 33,4 Z" id="Stroke-51"></path>
                            <path d="M58,19 C58,21.209 56.209,23 54,23 C51.791,23 50,21.209 50,19 C50,16.791 51.791,15 54,15 C56.209,15 58,16.791 58,19 Z" id="Stroke-53"></path>
                            <path d="M8,19 C8,21.209 6.209,23 4,23 C1.791,23 0,21.209 0,19 C0,16.791 1.791,15 4,15 C6.209,15 8,16.791 8,19 Z" id="Stroke-55"></path>
                            <path d="M8,48 C8,50.209 6.209,52 4,52 C1.791,52 0,50.209 0,48 C0,45.791 1.791,44 4,44 C6.209,44 8,45.791 8,48 Z" id="Stroke-57"></path>
                            <path d="M58,48 C58,50.209 56.209,52 54,52 C51.791,52 50,50.209 50,48 C50,45.791 51.791,44 54,44 C56.209,44 58,45.791 58,48 Z" id="Stroke-59"></path>
                            <path d="M7.3037,45.7461 L20.9917,38.7231" id="Stroke-61" stroke-dasharray="0,4"></path>
                            <path d="M47.5298,22.7246 L40.2188,27.4146" id="Stroke-65" stroke-dasharray="0,3.475"></path>
                            <path d="M12.9102,24.3145 L17.5492,27.1595" id="Stroke-71" stroke-dasharray="0,3.628"></path>
                            <path d="M36.8667,38.6504 L50.6967,45.7464" id="Stroke-75" stroke-dasharray="0,4"></path>
                            <path d="M24.9243,36.0908 L25.0853,36.0908" id="Stroke-77"></path>
                            <path d="M32.9243,36.0908 L33.0853,36.0908" id="Stroke-79"></path>
                            <path d="M23.4751,35.1504 C24.4401,34.7434 25.4411,34.7564 26.4751,35.1504" id="Stroke-81"></path>
                            <path d="M31.5972,35.1504 C32.5622,34.7434 33.5632,34.7564 34.5972,35.1504" id="Stroke-83"></path>
                            <path d="M30.6865,43 C29.5485,43.473 28.4635,43.527 27.4515,43" id="Stroke-85"></path>
                        </g>
                    </g>
                </g>
            </g>
        </g>
    </g>
</svg>