<?xml version="1.0" encoding="UTF-8" standalone="no"?>
<svg width="42px" height="72px" viewBox="0 0 42 72" version="1.1" xmlns="http://www.w3.org/2000/svg" xmlns:xlink="http://www.w3.org/1999/xlink">
    <!-- Generator: sketchtool 49.1 (51147) - http://www.bohemiancoding.com/sketch -->
    <title>3792B3D6-7B12-4A6F-BA57-542DE2659B89</title>
    <desc>Created with sketchtool.</desc>
    <defs></defs>
    <g id="Page-1" stroke="none" stroke-width="1" fill="none" fill-rule="evenodd">
        <g id="homepage@2x" transform="translate(-1168.000000, -6758.000000)" fill="#0EBAED">
            <g id="what-experts-say" transform="translate(230.000000, 6667.000000)">
                <path d="M951.577336,126.35976 L979.290709,154.073133 C980.23643,155.018854 980.23643,156.55217 979.290709,157.497891 L975.437857,161.350743 C974.492136,162.296464 972.95882,162.296464 972.013099,161.350743 L942.881704,132.219348 C942.769502,132.140283 942.662513,132.050565 942.562143,131.950195 L938.709291,128.097342 C937.76357,127.151622 937.76357,125.618305 938.709291,124.672585 L971.672585,91.7092906 C972.618305,90.7635698 974.151622,90.7635698 975.097342,91.7092906 L978.950195,95.5621431 C979.895916,96.5078639 979.895916,98.0411802 978.950195,98.9869009 L951.577336,126.35976 Z" id="right-icon" transform="translate(959.000000, 126.530017) rotate(-180.000000) translate(-959.000000, -126.530017) "></path>
            </g>
        </g>
    </g>
</svg>