<?xml version="1.0" encoding="UTF-8" standalone="no"?>
<svg width="112px" height="64px" viewBox="0 0 112 64" version="1.1" xmlns="http://www.w3.org/2000/svg" xmlns:xlink="http://www.w3.org/1999/xlink">
    <!-- Generator: sketchtool 49.1 (51147) - http://www.bohemiancoding.com/sketch -->
    <title>05724D94-540C-410C-8143-356E66BB4C44</title>
    <desc>Created with sketchtool.</desc>
    <defs>
        <path d="M100.867862,61.8510345 L99.8593103,61.8510345 L99.8593103,55.5878621 L100.942897,55.5878621 C103.106759,55.5878621 103.998897,56.6256552 103.998897,58.7194483 C103.998897,60.5925517 103.018483,61.8510345 100.867862,61.8510345 Z M101.014069,53.5966897 L97.8118621,53.5966897 L97.8118621,63.84 L100.867862,63.84 C103.503448,63.84 106.105931,62.3177931 106.105931,58.7194483 C106.105931,54.9726897 103.942069,53.5966897 101.014069,53.5966897 Z M93.2016552,59.3489655 C93.2016552,60.9870345 92.3988966,61.9966897 91.0973793,61.9966897 C89.792,61.9966897 89.0035862,60.9577931 89.0035862,59.3186207 L89.0035862,53.5966897 L86.9561379,53.5966897 L86.9561379,59.3489655 C86.9561379,62.3315862 88.6228966,64 91.0973793,64 C93.7004138,64 95.2513103,62.2874483 95.2513103,59.3186207 L95.2513103,53.5966897 L93.2016552,53.5966897 L93.2016552,59.3489655 Z M80.4893793,61.9663448 C78.8353103,61.9663448 78.1478621,60.5473103 78.1478621,58.7194483 C78.1478621,56.889931 78.8353103,55.472 80.4893793,55.472 C82.1401379,55.472 82.8286897,56.889931 82.8286897,58.7194483 C82.8286897,60.5473103 82.1401379,61.9663448 80.4893793,61.9663448 Z M80.4893793,53.4372414 C77.6932414,53.4372414 76.0413793,55.6022069 76.0413793,58.7194483 C76.0413793,61.8372414 77.6932414,64 80.4893793,64 C83.2838621,64 84.9368276,61.8372414 84.9368276,58.7194483 C84.9368276,55.6022069 83.2838621,53.4372414 80.4893793,53.4372414 Z M70.9853793,53.5966897 L68.937931,53.5966897 L68.937931,63.84 L75.0929655,63.84 L75.0929655,61.8195862 L70.9853793,61.8195862 L70.9853793,53.5966897 Z M63.3881379,55.472 C64.3095172,55.472 64.8954483,55.8813793 65.2612414,56.5826207 L67.1630345,55.7053793 C66.5186207,54.3735172 65.3484138,53.4372414 63.4162759,53.4372414 C60.7415172,53.4372414 58.8678621,55.6022069 58.8678621,58.7194483 C58.8678621,61.9525517 60.665931,64 63.344,64 C65.2027586,64 66.4314483,63.1365517 67.1337931,61.6882759 L65.4074483,60.6637241 C64.8667586,61.5718621 64.3233103,61.9663448 63.4030345,61.9663448 C61.8664828,61.9663448 60.9732414,60.5611034 60.9732414,58.7194483 C60.9732414,56.8176552 61.8537931,55.472 63.3881379,55.472 Z M51.814069,61.8510345 L50.806069,61.8510345 L50.806069,55.5878621 L51.8891034,55.5878621 C54.0551724,55.5878621 54.9478621,56.6256552 54.9478621,58.7194483 C54.9478621,60.5925517 53.9652414,61.8510345 51.814069,61.8510345 Z M51.961931,53.5966897 L48.758069,53.5966897 L48.758069,63.84 L51.814069,63.84 C54.4485517,63.84 57.0532414,62.3177931 57.0532414,58.7194483 C57.0532414,54.9726897 54.8877241,53.5966897 51.961931,53.5966897 Z M44.1053793,57.929931 C44.1053793,58.4998621 44.1346207,59.7864828 44.1346207,60.1677241 C44.0027586,59.904 43.6678621,59.392 43.4195862,59.0107586 L39.7886897,53.5966897 L37.8289655,53.5966897 L37.8289655,63.84 L39.8488276,63.84 L39.8488276,59.3329655 C39.8488276,58.7624828 39.8195862,57.4758621 39.8195862,57.0957241 C39.9503448,57.3572414 40.2874483,57.8692414 40.5357241,58.2521379 L44.2962759,63.84 L46.1252414,63.84 L46.1252414,53.5966897 L44.1053793,53.5966897 L44.1053793,57.929931 Z M33.222069,59.3489655 C33.222069,60.9870345 32.4154483,61.9966897 31.1150345,61.9966897 C29.8129655,61.9966897 29.0228966,60.9577931 29.0228966,59.3186207 L29.0228966,53.5966897 L26.9737931,53.5966897 L26.9737931,59.3489655 C26.9737931,62.3315862 28.6422069,64 31.1150345,64 C33.7186207,64 35.270069,62.2874483 35.270069,59.3186207 L35.270069,53.5966897 L33.222069,53.5966897 L33.222069,59.3489655 Z M20.5070345,61.9663448 C18.8546207,61.9663448 18.166069,60.5473103 18.166069,58.7194483 C18.166069,56.889931 18.8546207,55.472 20.5070345,55.472 C22.1622069,55.472 22.8485517,56.889931 22.8485517,58.7194483 C22.8485517,60.5473103 22.1622069,61.9663448 20.5070345,61.9663448 Z M20.5070345,53.4372414 C17.7131034,53.4372414 16.0612414,55.6022069 16.0612414,58.7194483 C16.0612414,61.8372414 17.7131034,64 20.5070345,64 C23.3004138,64 24.9550345,61.8372414 24.9550345,58.7194483 C24.9550345,55.6022069 23.3004138,53.4372414 20.5070345,53.4372414 Z M11.0830345,57.5784828 C9.45986207,57.1961379 9.02068966,56.992 9.02068966,56.3486897 C9.02068966,55.8951724 9.38648276,55.4262069 10.4833103,55.4262069 C11.4206897,55.4262069 12.1517241,55.8068966 12.8104828,56.4805517 L14.288,55.046069 C13.3224828,54.0375172 12.1517241,53.4372414 10.5583448,53.4372414 C8.53793103,53.4372414 6.89986207,54.5782069 6.89986207,56.4375172 C6.89986207,58.4557241 8.21682759,59.056 10.1031724,59.4935172 C12.0342069,59.9321379 12.3862069,60.2262069 12.3862069,60.8844138 C12.3862069,61.6601379 11.814069,61.9966897 10.6013793,61.9966897 C9.62096552,61.9966897 8.69958621,61.6601379 7.98289655,60.8253793 L6.50317241,62.1417931 C7.27944828,63.2833103 8.77186207,64 10.4833103,64 C13.2788966,64 14.5075862,62.6830345 14.5075862,60.7376552 C14.5075862,58.5125517 12.7073103,57.9575172 11.0830345,57.5784828 Z M55.5255172,3.60937931 C54.7012414,3.60937931 54.0242759,4.28689655 54.0121379,5.1177931 L53.3936552,36.0342069 L54.0132414,47.2551724 C54.0242759,48.073931 54.7012414,48.7508966 55.5255172,48.7508966 C56.3470345,48.7508966 57.024,48.073931 57.0355862,47.2430345 L57.0355862,47.2562759 L57.7081379,36.0342069 L57.0355862,5.11558621 C57.024,4.28689655 56.3470345,3.60937931 55.5255172,3.60937931 Z M97.856,21.4002759 C95.9757241,21.4002759 94.1815172,21.7815172 92.5478621,22.4656552 C91.4548966,10.0965517 81.0830345,0.393931034 68.4314483,0.393931034 C65.3351724,0.393931034 62.3183448,1.00303448 59.6524138,2.03475862 C58.6157241,2.43531034 58.3409655,2.848 58.3310345,3.648 L58.3310345,47.2066207 C58.342069,48.0468966 58.9925517,48.7464828 59.8129655,48.8286897 C59.8482759,48.8325517 97.6110345,48.8513103 97.856,48.8513103 C105.435586,48.8513103 111.580138,42.7056552 111.580138,35.1249655 C111.580138,27.5448276 105.435586,21.4002759 97.856,21.4002759 Z M37.9564138,47.6722759 L37.9564138,47.6667586 L38.7475862,36.0253793 L37.9564138,10.6548966 C37.9376552,10.0237241 37.4405517,9.53048276 36.8264828,9.53048276 C36.2102069,9.53048276 35.7131034,10.0237241 35.6954483,10.6548966 L34.9925517,36.0253793 L35.6965517,47.6711724 C35.7131034,48.294069 36.2102069,48.7873103 36.8264828,48.7873103 C37.4405517,48.7873103 37.9348966,48.294069 37.9564138,47.6678621 L37.9564138,47.6722759 Z M27.6651034,48.7884138 C28.1666207,48.7884138 28.5804138,48.3801379 28.6046897,47.8576552 L29.526069,36.0215172 L28.6046897,13.3688276 C28.5804138,12.8457931 28.1666207,12.4369655 27.6651034,12.4369655 C27.1586207,12.4369655 26.7464828,12.8457931 26.7238621,13.3688276 C26.7238621,13.3693793 25.9078621,36.0215172 25.9078621,36.0215172 L26.7249655,47.862069 C26.7464828,48.3801379 27.1586207,48.7884138 27.6651034,48.7884138 Z M46.1335172,10.8926897 C45.4063448,10.8926897 44.8253793,11.4703448 44.8110345,12.208 L44.2206897,36.0286897 L44.8110345,47.4902069 C44.8253793,48.2206897 45.4063448,48.7972414 46.1335172,48.7972414 C46.857931,48.7972414 47.4366897,48.2206897 47.4526897,47.4824828 L47.4526897,47.4924138 L48.1147586,36.0297931 L47.4526897,12.2063448 C47.4366897,11.4703448 46.857931,10.8926897 46.1335172,10.8926897 Z M9.77103448,48.0148966 C10.0612414,48.0148966 10.2957241,47.7853793 10.329931,47.4686897 L11.5128276,36.0115862 L10.3310345,24.1213793 C10.2957241,23.8041379 10.0612414,23.5746207 9.77103448,23.5746207 C9.47696552,23.5746207 9.24082759,23.8052414 9.21158621,24.1213793 C9.21158621,24.1224828 8.17048276,36.0115862 8.17048276,36.0115862 L9.21158621,47.4653793 C9.24082759,47.7853793 9.47696552,48.0148966 9.77103448,48.0148966 Z M18.646069,48.6675862 C19.0438621,48.6675862 19.3649655,48.3497931 19.3947586,47.9310345 L20.448,36.0137931 L19.3947586,24.678069 C19.366069,24.2598621 19.0449655,23.9437241 18.646069,23.9437241 C18.2427586,23.9437241 17.9216552,24.2609655 17.8962759,24.6824828 L16.9682759,36.0137931 L17.8962759,47.929931 C17.9216552,48.3497931 18.2427586,48.6675862 18.646069,48.6675862 Z M41.462069,48.7757241 C42.1296552,48.7757241 42.6692414,48.2388966 42.6868966,47.5558621 L42.6868966,47.5641379 L43.4146207,36.0275862 L42.6868966,11.3037241 C42.6692414,10.6195862 42.1296552,10.0849655 41.462069,10.0849655 C40.7895172,10.0849655 40.2504828,10.6206897 40.2355862,11.3037241 L39.5884138,36.0275862 L40.2366897,47.5613793 C40.2504828,48.2388966 40.7895172,48.7757241 41.462069,48.7757241 Z M50.8391724,48.8209655 C51.6066207,48.8209655 52.2411034,48.1870345 52.2548966,47.4102069 L52.2548966,47.4190345 L52.2548966,47.4102069 L52.8524138,36.032 L52.2548966,7.68386207 C52.2416552,6.90703448 51.6066207,6.2742069 50.8391724,6.2742069 C50.070069,6.2742069 49.4350345,6.90703448 49.424,7.68551724 L48.8893793,36.0226207 C48.8893793,36.0408276 49.424,47.417931 49.424,47.417931 C49.4350345,48.1870345 50.070069,48.8209655 50.8391724,48.8209655 Z M32.2278621,48.7646897 C32.7856552,48.7646897 33.2391724,48.3144828 33.2628966,47.737931 L34.1197241,36.0237241 L33.2628966,11.4797241 C33.2402759,10.9031724 32.7856552,10.4529655 32.2278621,10.4529655 C31.6656552,10.4529655 31.2110345,10.9042759 31.1922759,11.4808276 C31.1922759,11.481931 30.4325517,36.0237241 30.4325517,36.0237241 L31.1922759,47.7423448 C31.2110345,48.3133793 31.6656552,48.7646897 32.2278621,48.7646897 Z M14.1908966,23.1536552 C13.8455172,23.1536552 13.5630345,23.430069 13.536,23.798069 L12.5517241,36.0137931 L13.536,47.8317241 C13.5630345,48.1969655 13.8455172,48.473931 14.1908966,48.473931 C14.5335172,48.473931 14.8143448,48.1969655 14.8446897,47.8317241 L15.9630345,36.0137931 L14.8446897,23.7958621 C14.8143448,23.430069 14.5335172,23.1536552 14.1908966,23.1536552 Z M23.1371034,16.745931 C22.6863448,16.745931 22.3150345,17.113931 22.2929655,17.5823448 L21.4201379,36.0193103 L22.2929655,47.9337931 C22.3150345,48.3983448 22.6863448,48.7668966 23.1371034,48.7668966 C23.5845517,48.7668966 23.9547586,48.3983448 23.9817931,47.9310345 L23.9817931,47.9337931 L24.9693793,36.0193103 L23.9817931,17.5823448 C23.9547586,17.113931 23.5845517,16.745931 23.1371034,16.745931 Z M5.85158621,25.9895172 C5.81351724,25.7235862 5.62206897,25.5393103 5.38813793,25.5393103 C5.15144828,25.5393103 4.95558621,25.7291034 4.92413793,25.9895172 C4.92413793,25.9917241 3.82731034,36.0093793 3.82731034,36.0093793 L4.92413793,45.8091034 C4.95558621,46.0706207 5.15144828,46.2615172 5.38813793,46.2615172 C5.62206897,46.2615172 5.81351724,46.0761379 5.85048276,45.8113103 L7.09903448,36.0093793 L5.85158621,25.9895172 Z M1.26289655,29.376 C1.03006897,29.376 0.845793103,29.5564138 0.815448276,29.8129655 L0,36.0093793 L0.815448276,42.1009655 C0.845793103,42.3575172 1.03006897,42.5362759 1.26289655,42.5362759 C1.488,42.5362759 1.67172414,42.3597241 1.70813793,42.1031724 L1.70813793,42.102069 C1.70813793,42.102069 1.70813793,42.102069 1.70813793,42.1031724 L2.67531034,36.0093793 L1.70813793,29.8107586 C1.67337931,29.5553103 1.488,29.376 1.26289655,29.376 Z" id="path-1"></path>
    </defs>
    <g id="Page-1" stroke="none" stroke-width="1" fill="none" fill-rule="evenodd" opacity="0.5">
        <g id="homepage@2x" transform="translate(-609.000000, -870.000000)">
            <g id="integrations" transform="translate(0.000000, 806.000000)">
                <g id="logos" transform="translate(73.000000, 64.000000)">
                    <g id="soundcloud" transform="translate(536.000000, 0.000000)">
                        <mask id="mask-2" fill="white">
                            <use xlink:href="#path-1"></use>
                        </mask>
                        <g id="Clip-2"></g>
                        <path d="M100.867862,61.8510345 L99.8593103,61.8510345 L99.8593103,55.5878621 L100.942897,55.5878621 C103.106759,55.5878621 103.998897,56.6256552 103.998897,58.7194483 C103.998897,60.5925517 103.018483,61.8510345 100.867862,61.8510345 Z M101.014069,53.5966897 L97.8118621,53.5966897 L97.8118621,63.84 L100.867862,63.84 C103.503448,63.84 106.105931,62.3177931 106.105931,58.7194483 C106.105931,54.9726897 103.942069,53.5966897 101.014069,53.5966897 Z M93.2016552,59.3489655 C93.2016552,60.9870345 92.3988966,61.9966897 91.0973793,61.9966897 C89.792,61.9966897 89.0035862,60.9577931 89.0035862,59.3186207 L89.0035862,53.5966897 L86.9561379,53.5966897 L86.9561379,59.3489655 C86.9561379,62.3315862 88.6228966,64 91.0973793,64 C93.7004138,64 95.2513103,62.2874483 95.2513103,59.3186207 L95.2513103,53.5966897 L93.2016552,53.5966897 L93.2016552,59.3489655 Z M80.4893793,61.9663448 C78.8353103,61.9663448 78.1478621,60.5473103 78.1478621,58.7194483 C78.1478621,56.889931 78.8353103,55.472 80.4893793,55.472 C82.1401379,55.472 82.8286897,56.889931 82.8286897,58.7194483 C82.8286897,60.5473103 82.1401379,61.9663448 80.4893793,61.9663448 Z M80.4893793,53.4372414 C77.6932414,53.4372414 76.0413793,55.6022069 76.0413793,58.7194483 C76.0413793,61.8372414 77.6932414,64 80.4893793,64 C83.2838621,64 84.9368276,61.8372414 84.9368276,58.7194483 C84.9368276,55.6022069 83.2838621,53.4372414 80.4893793,53.4372414 Z M70.9853793,53.5966897 L68.937931,53.5966897 L68.937931,63.84 L75.0929655,63.84 L75.0929655,61.8195862 L70.9853793,61.8195862 L70.9853793,53.5966897 Z M63.3881379,55.472 C64.3095172,55.472 64.8954483,55.8813793 65.2612414,56.5826207 L67.1630345,55.7053793 C66.5186207,54.3735172 65.3484138,53.4372414 63.4162759,53.4372414 C60.7415172,53.4372414 58.8678621,55.6022069 58.8678621,58.7194483 C58.8678621,61.9525517 60.665931,64 63.344,64 C65.2027586,64 66.4314483,63.1365517 67.1337931,61.6882759 L65.4074483,60.6637241 C64.8667586,61.5718621 64.3233103,61.9663448 63.4030345,61.9663448 C61.8664828,61.9663448 60.9732414,60.5611034 60.9732414,58.7194483 C60.9732414,56.8176552 61.8537931,55.472 63.3881379,55.472 Z M51.814069,61.8510345 L50.806069,61.8510345 L50.806069,55.5878621 L51.8891034,55.5878621 C54.0551724,55.5878621 54.9478621,56.6256552 54.9478621,58.7194483 C54.9478621,60.5925517 53.9652414,61.8510345 51.814069,61.8510345 Z M51.961931,53.5966897 L48.758069,53.5966897 L48.758069,63.84 L51.814069,63.84 C54.4485517,63.84 57.0532414,62.3177931 57.0532414,58.7194483 C57.0532414,54.9726897 54.8877241,53.5966897 51.961931,53.5966897 Z M44.1053793,57.929931 C44.1053793,58.4998621 44.1346207,59.7864828 44.1346207,60.1677241 C44.0027586,59.904 43.6678621,59.392 43.4195862,59.0107586 L39.7886897,53.5966897 L37.8289655,53.5966897 L37.8289655,63.84 L39.8488276,63.84 L39.8488276,59.3329655 C39.8488276,58.7624828 39.8195862,57.4758621 39.8195862,57.0957241 C39.9503448,57.3572414 40.2874483,57.8692414 40.5357241,58.2521379 L44.2962759,63.84 L46.1252414,63.84 L46.1252414,53.5966897 L44.1053793,53.5966897 L44.1053793,57.929931 Z M33.222069,59.3489655 C33.222069,60.9870345 32.4154483,61.9966897 31.1150345,61.9966897 C29.8129655,61.9966897 29.0228966,60.9577931 29.0228966,59.3186207 L29.0228966,53.5966897 L26.9737931,53.5966897 L26.9737931,59.3489655 C26.9737931,62.3315862 28.6422069,64 31.1150345,64 C33.7186207,64 35.270069,62.2874483 35.270069,59.3186207 L35.270069,53.5966897 L33.222069,53.5966897 L33.222069,59.3489655 Z M20.5070345,61.9663448 C18.8546207,61.9663448 18.166069,60.5473103 18.166069,58.7194483 C18.166069,56.889931 18.8546207,55.472 20.5070345,55.472 C22.1622069,55.472 22.8485517,56.889931 22.8485517,58.7194483 C22.8485517,60.5473103 22.1622069,61.9663448 20.5070345,61.9663448 Z M20.5070345,53.4372414 C17.7131034,53.4372414 16.0612414,55.6022069 16.0612414,58.7194483 C16.0612414,61.8372414 17.7131034,64 20.5070345,64 C23.3004138,64 24.9550345,61.8372414 24.9550345,58.7194483 C24.9550345,55.6022069 23.3004138,53.4372414 20.5070345,53.4372414 Z M11.0830345,57.5784828 C9.45986207,57.1961379 9.02068966,56.992 9.02068966,56.3486897 C9.02068966,55.8951724 9.38648276,55.4262069 10.4833103,55.4262069 C11.4206897,55.4262069 12.1517241,55.8068966 12.8104828,56.4805517 L14.288,55.046069 C13.3224828,54.0375172 12.1517241,53.4372414 10.5583448,53.4372414 C8.53793103,53.4372414 6.89986207,54.5782069 6.89986207,56.4375172 C6.89986207,58.4557241 8.21682759,59.056 10.1031724,59.4935172 C12.0342069,59.9321379 12.3862069,60.2262069 12.3862069,60.8844138 C12.3862069,61.6601379 11.814069,61.9966897 10.6013793,61.9966897 C9.62096552,61.9966897 8.69958621,61.6601379 7.98289655,60.8253793 L6.50317241,62.1417931 C7.27944828,63.2833103 8.77186207,64 10.4833103,64 C13.2788966,64 14.5075862,62.6830345 14.5075862,60.7376552 C14.5075862,58.5125517 12.7073103,57.9575172 11.0830345,57.5784828 Z M55.5255172,3.60937931 C54.7012414,3.60937931 54.0242759,4.28689655 54.0121379,5.1177931 L53.3936552,36.0342069 L54.0132414,47.2551724 C54.0242759,48.073931 54.7012414,48.7508966 55.5255172,48.7508966 C56.3470345,48.7508966 57.024,48.073931 57.0355862,47.2430345 L57.0355862,47.2562759 L57.7081379,36.0342069 L57.0355862,5.11558621 C57.024,4.28689655 56.3470345,3.60937931 55.5255172,3.60937931 Z M97.856,21.4002759 C95.9757241,21.4002759 94.1815172,21.7815172 92.5478621,22.4656552 C91.4548966,10.0965517 81.0830345,0.393931034 68.4314483,0.393931034 C65.3351724,0.393931034 62.3183448,1.00303448 59.6524138,2.03475862 C58.6157241,2.43531034 58.3409655,2.848 58.3310345,3.648 L58.3310345,47.2066207 C58.342069,48.0468966 58.9925517,48.7464828 59.8129655,48.8286897 C59.8482759,48.8325517 97.6110345,48.8513103 97.856,48.8513103 C105.435586,48.8513103 111.580138,42.7056552 111.580138,35.1249655 C111.580138,27.5448276 105.435586,21.4002759 97.856,21.4002759 Z M37.9564138,47.6722759 L37.9564138,47.6667586 L38.7475862,36.0253793 L37.9564138,10.6548966 C37.9376552,10.0237241 37.4405517,9.53048276 36.8264828,9.53048276 C36.2102069,9.53048276 35.7131034,10.0237241 35.6954483,10.6548966 L34.9925517,36.0253793 L35.6965517,47.6711724 C35.7131034,48.294069 36.2102069,48.7873103 36.8264828,48.7873103 C37.4405517,48.7873103 37.9348966,48.294069 37.9564138,47.6678621 L37.9564138,47.6722759 Z M27.6651034,48.7884138 C28.1666207,48.7884138 28.5804138,48.3801379 28.6046897,47.8576552 L29.526069,36.0215172 L28.6046897,13.3688276 C28.5804138,12.8457931 28.1666207,12.4369655 27.6651034,12.4369655 C27.1586207,12.4369655 26.7464828,12.8457931 26.7238621,13.3688276 C26.7238621,13.3693793 25.9078621,36.0215172 25.9078621,36.0215172 L26.7249655,47.862069 C26.7464828,48.3801379 27.1586207,48.7884138 27.6651034,48.7884138 Z M46.1335172,10.8926897 C45.4063448,10.8926897 44.8253793,11.4703448 44.8110345,12.208 L44.2206897,36.0286897 L44.8110345,47.4902069 C44.8253793,48.2206897 45.4063448,48.7972414 46.1335172,48.7972414 C46.857931,48.7972414 47.4366897,48.2206897 47.4526897,47.4824828 L47.4526897,47.4924138 L48.1147586,36.0297931 L47.4526897,12.2063448 C47.4366897,11.4703448 46.857931,10.8926897 46.1335172,10.8926897 Z M9.77103448,48.0148966 C10.0612414,48.0148966 10.2957241,47.7853793 10.329931,47.4686897 L11.5128276,36.0115862 L10.3310345,24.1213793 C10.2957241,23.8041379 10.0612414,23.5746207 9.77103448,23.5746207 C9.47696552,23.5746207 9.24082759,23.8052414 9.21158621,24.1213793 C9.21158621,24.1224828 8.17048276,36.0115862 8.17048276,36.0115862 L9.21158621,47.4653793 C9.24082759,47.7853793 9.47696552,48.0148966 9.77103448,48.0148966 Z M18.646069,48.6675862 C19.0438621,48.6675862 19.3649655,48.3497931 19.3947586,47.9310345 L20.448,36.0137931 L19.3947586,24.678069 C19.366069,24.2598621 19.0449655,23.9437241 18.646069,23.9437241 C18.2427586,23.9437241 17.9216552,24.2609655 17.8962759,24.6824828 L16.9682759,36.0137931 L17.8962759,47.929931 C17.9216552,48.3497931 18.2427586,48.6675862 18.646069,48.6675862 Z M41.462069,48.7757241 C42.1296552,48.7757241 42.6692414,48.2388966 42.6868966,47.5558621 L42.6868966,47.5641379 L43.4146207,36.0275862 L42.6868966,11.3037241 C42.6692414,10.6195862 42.1296552,10.0849655 41.462069,10.0849655 C40.7895172,10.0849655 40.2504828,10.6206897 40.2355862,11.3037241 L39.5884138,36.0275862 L40.2366897,47.5613793 C40.2504828,48.2388966 40.7895172,48.7757241 41.462069,48.7757241 Z M50.8391724,48.8209655 C51.6066207,48.8209655 52.2411034,48.1870345 52.2548966,47.4102069 L52.2548966,47.4190345 L52.2548966,47.4102069 L52.8524138,36.032 L52.2548966,7.68386207 C52.2416552,6.90703448 51.6066207,6.2742069 50.8391724,6.2742069 C50.070069,6.2742069 49.4350345,6.90703448 49.424,7.68551724 L48.8893793,36.0226207 C48.8893793,36.0408276 49.424,47.417931 49.424,47.417931 C49.4350345,48.1870345 50.070069,48.8209655 50.8391724,48.8209655 Z M32.2278621,48.7646897 C32.7856552,48.7646897 33.2391724,48.3144828 33.2628966,47.737931 L34.1197241,36.0237241 L33.2628966,11.4797241 C33.2402759,10.9031724 32.7856552,10.4529655 32.2278621,10.4529655 C31.6656552,10.4529655 31.2110345,10.9042759 31.1922759,11.4808276 C31.1922759,11.481931 30.4325517,36.0237241 30.4325517,36.0237241 L31.1922759,47.7423448 C31.2110345,48.3133793 31.6656552,48.7646897 32.2278621,48.7646897 Z M14.1908966,23.1536552 C13.8455172,23.1536552 13.5630345,23.430069 13.536,23.798069 L12.5517241,36.0137931 L13.536,47.8317241 C13.5630345,48.1969655 13.8455172,48.473931 14.1908966,48.473931 C14.5335172,48.473931 14.8143448,48.1969655 14.8446897,47.8317241 L15.9630345,36.0137931 L14.8446897,23.7958621 C14.8143448,23.430069 14.5335172,23.1536552 14.1908966,23.1536552 Z M23.1371034,16.745931 C22.6863448,16.745931 22.3150345,17.113931 22.2929655,17.5823448 L21.4201379,36.0193103 L22.2929655,47.9337931 C22.3150345,48.3983448 22.6863448,48.7668966 23.1371034,48.7668966 C23.5845517,48.7668966 23.9547586,48.3983448 23.9817931,47.9310345 L23.9817931,47.9337931 L24.9693793,36.0193103 L23.9817931,17.5823448 C23.9547586,17.113931 23.5845517,16.745931 23.1371034,16.745931 Z M5.85158621,25.9895172 C5.81351724,25.7235862 5.62206897,25.5393103 5.38813793,25.5393103 C5.15144828,25.5393103 4.95558621,25.7291034 4.92413793,25.9895172 C4.92413793,25.9917241 3.82731034,36.0093793 3.82731034,36.0093793 L4.92413793,45.8091034 C4.95558621,46.0706207 5.15144828,46.2615172 5.38813793,46.2615172 C5.62206897,46.2615172 5.81351724,46.0761379 5.85048276,45.8113103 L7.09903448,36.0093793 L5.85158621,25.9895172 Z M1.26289655,29.376 C1.03006897,29.376 0.845793103,29.5564138 0.815448276,29.8129655 L0,36.0093793 L0.815448276,42.1009655 C0.845793103,42.3575172 1.03006897,42.5362759 1.26289655,42.5362759 C1.488,42.5362759 1.67172414,42.3597241 1.70813793,42.1031724 L1.70813793,42.102069 C1.70813793,42.102069 1.70813793,42.102069 1.70813793,42.1031724 L2.67531034,36.0093793 L1.70813793,29.8107586 C1.67337931,29.5553103 1.488,29.376 1.26289655,29.376 Z" id="Fill-1" fill="#3D4367" mask="url(#mask-2)"></path>
                    </g>
                </g>
            </g>
        </g>
    </g>
</svg>