<svg width="52" height="56" viewBox="0 0 52 56" version="1.1" xmlns="http://www.w3.org/2000/svg" xmlns:xlink="http://www.w3.org/1999/xlink">
<title>feature</title>
<desc>Created using Figma</desc>
<g id="Canvas" transform="translate(-2555 -1256)">
<g id="feature">
<g id="stamp-icon">
<g id="Stroke 1">
<use xlink:href="#path0_stroke" transform="translate(2558 1307)" fill="#505070"/>
</g>
<g id="Stroke 3">
<use xlink:href="#path1_stroke" transform="translate(2556 1257)" fill="#505070"/>
</g>
</g>
</g>
</g>
<defs>
<path id="path0_stroke" d="M 0 4L -1 4C -1 4.55228 -0.552285 5 2.22045e-16 5L 0 4ZM 46 4L 46 5C 46.5523 5 47 4.55228 47 4L 46 4ZM 46 0L 47 0C 47 -0.552285 46.5523 -1 46 -1L 46 0ZM 0 0L 0 -1C -0.552285 -1 -1 -0.552285 -1 2.22045e-16L 0 0ZM 0 5L 46 5L 46 3L 0 3L 0 5ZM 47 4L 47 0L 45 0L 45 4L 47 4ZM 46 -1L 0 -1L 0 1L 46 1L 46 -1ZM -1 0L -1 4L 1 4L 1 0L -1 0Z"/>
<path id="path1_stroke" d="M 30.242 32.9701L 29.2718 33.2123L 29.2718 33.2125L 30.242 32.9701ZM 29.511 30.0421L 30.4812 29.7999L 30.4811 29.7993L 29.511 30.0421ZM 30.187 18.1691L 31.1233 18.5202L 31.1234 18.52L 30.187 18.1691ZM 32.688 11.4961L 31.7517 11.1449L 31.7516 11.1451L 32.688 11.4961ZM 25.299 0.0050902L 25.333 -0.994331L 25.333 -0.994331L 25.299 0.0050902ZM 17.214 11.2361L 18.1504 10.8851L 18.1503 10.8849L 17.214 11.2361ZM 19.813 18.1691L 18.8766 18.5201L 18.8767 18.5202L 19.813 18.1691ZM 20.489 30.0421L 19.5189 29.7993L 19.5188 29.7999L 20.489 30.0421ZM 19.758 32.9701L 20.7282 33.2125L 20.7282 33.2123L 19.758 32.9701ZM 0 50.0001L -1 50.0001C -1 50.5524 -0.552285 51.0001 2.22045e-16 51.0001L 0 50.0001ZM 50 50.0001L 50 51.0001C 50.5523 51.0001 51 50.5524 51 50.0001L 50 50.0001ZM 46 35.0001L 34.123 35.0001L 34.123 37.0001L 46 37.0001L 46 35.0001ZM 34.123 35.0001C 32.7457 35.0001 31.5459 34.0633 31.2122 32.7277L 29.2718 33.2125C 29.8281 35.4389 31.8283 37.0001 34.123 37.0001L 34.123 35.0001ZM 31.2122 32.7279L 30.4812 29.7999L 28.5408 30.2843L 29.2718 33.2123L 31.2122 32.7279ZM 30.4811 29.7993C 29.5454 26.0614 29.7705 22.1275 31.1233 18.5202L 29.2507 17.8179C 27.7555 21.8047 27.5066 26.1528 28.5409 30.2849L 30.4811 29.7993ZM 31.1234 18.52L 33.6244 11.847L 31.7516 11.1451L 29.2506 17.8181L 31.1234 18.52ZM 33.6243 11.8473C 35.8478 5.91989 31.7658 -0.775274 25.333 -0.994331L 25.265 1.00451C 30.2262 1.17345 33.5322 6.39829 31.7517 11.1449L 33.6243 11.8473ZM 25.333 -0.994331C 18.6517 -1.22167 13.9544 5.39377 16.2777 11.5873L 18.1503 10.8849C 16.3256 6.02041 20.0143 0.825853 25.265 1.00451L 25.333 -0.994331ZM 16.2776 11.5871L 18.8766 18.5201L 20.7494 17.8181L 18.1504 10.8851L 16.2776 11.5871ZM 18.8767 18.5202C 20.2295 22.1275 20.4546 26.0614 19.5189 29.7993L 21.4591 30.2849C 22.4934 26.1528 22.2445 21.8047 20.7493 17.8179L 18.8767 18.5202ZM 19.5188 29.7999L 18.7878 32.7279L 20.7282 33.2123L 21.4592 30.2843L 19.5188 29.7999ZM 18.7878 32.7277C 18.4542 34.0631 17.2534 35.0001 15.877 35.0001L 15.877 37.0001C 18.1706 37.0001 20.1718 35.4391 20.7282 33.2125L 18.7878 32.7277ZM 15.877 35.0001L 4 35.0001L 4 37.0001L 15.877 37.0001L 15.877 35.0001ZM 4 35.0001C 1.23872 35.0001 -1 37.2388 -1 40.0001L 1 40.0001C 1 38.3434 2.34328 37.0001 4 37.0001L 4 35.0001ZM -1 40.0001L -1 50.0001L 1 50.0001L 1 40.0001L -1 40.0001ZM 0 51.0001L 50 51.0001L 50 49.0001L 0 49.0001L 0 51.0001ZM 51 50.0001L 51 40.0001L 49 40.0001L 49 50.0001L 51 50.0001ZM 51 40.0001C 51 37.2388 48.7613 35.0001 46 35.0001L 46 37.0001C 47.6567 37.0001 49 38.3434 49 40.0001L 51 40.0001Z"/>
</defs>
</svg>
