<?xml version="1.0" encoding="UTF-8" standalone="no"?>
<svg width="72px" height="72px" viewBox="0 0 72 72" version="1.1" xmlns="http://www.w3.org/2000/svg" xmlns:xlink="http://www.w3.org/1999/xlink">
    <!-- Generator: sketchtool 49.1 (51147) - http://www.bohemiancoding.com/sketch -->
    <title>54745314-F305-476E-965D-9D7CB14604F6</title>
    <desc>Created with sketchtool.</desc>
    <defs></defs>
    <g id="Page-1" stroke="none" stroke-width="1" fill="none" fill-rule="evenodd" stroke-linecap="round" stroke-linejoin="round">
        <g id="homepage@2x" transform="translate(-351.000000, -1983.000000)" stroke="#505070" stroke-width="2.5">
            <g id="setps" transform="translate(232.000000, 1985.000000)">
                <g id="upload-icon" transform="translate(121.000000, 0.000000)">
                    <path d="M36.5185185,32.7407407 L36.5185185,57.9259259" id="Stroke-1" stroke-dasharray="0,5"></path>
                    <g id="Group-14">
                        <path d="M53.9310519,18.133837 C61.7006815,18.133837 67.9994963,24.2223556 67.9994963,31.733837" id="Stroke-2"></path>
                        <path d="M0,31.7335852 C0,24.2221037 6.29881481,18.1335852 14.0684444,18.1335852" id="Stroke-4"></path>
                        <path d="M18.7585556,9.06691852 C22.3701111,9.06691852 25.5056667,11.0401778 27.0734444,13.9326963" id="Stroke-6"></path>
                        <polyline id="Stroke-8" points="36.5185185 62.962963 31.4814815 68 26.4444444 62.962963"></polyline>
                        <path d="M41.5555556,22.6666667 L41.5555556,40.2962963 C41.5555556,43.078 43.8108889,45.3333333 46.5925926,45.3333333 L53.9315556,45.3333333 C61.7011852,45.3333333 68,39.2448148 68,31.7333333 C68,25.7732593 64.027037,20.7211111 58.5064444,18.8838519 C58.5782222,18.2642963 58.621037,17.6371852 58.621037,17 C58.621037,7.61096296 50.7468889,0 41.0342222,0 C33.4962963,0 27.0854074,4.59251852 24.5832593,11.0348889 C22.9827407,9.80585185 20.9616296,9.06666667 18.7579259,9.06666667 C13.5785926,9.06666667 9.37896296,13.1265185 9.37896296,18.1333333 C9.37896296,18.3952593 9.39659259,18.6521481 9.41925926,18.9102963 C3.9377037,20.7664444 0,25.7997037 0,31.7333333 C0,39.2448148 6.29881481,45.3333333 14.0684444,45.3333333 L26.4507407,45.3333333 C29.2324444,45.3333333 31.4814815,47.5886667 31.4814815,50.3703704 L31.4814815,68" id="Stroke-10"></path>
                        <polyline id="Stroke-12" points="36.5185185 27.7037037 41.5555556 22.6666667 46.5925926 27.7037037"></polyline>
                    </g>
                </g>
            </g>
        </g>
    </g>
</svg>