<?xml version="1.0" encoding="UTF-8" standalone="no"?>
<svg width="56px" height="58px" viewBox="0 0 56 58" version="1.1" xmlns="http://www.w3.org/2000/svg" xmlns:xlink="http://www.w3.org/1999/xlink">
    <!-- Generator: sketchtool 49.1 (51147) - http://www.bohemiancoding.com/sketch -->
    <title>A846ADA2-6198-453B-9524-C2A450C30B51</title>
    <desc>Created with sketchtool.</desc>
    <defs></defs>
    <g id="Page-1" stroke="none" stroke-width="1" fill="none" fill-rule="evenodd" stroke-linecap="round" stroke-linejoin="round">
        <g id="homepage@2x" transform="translate(-912.000000, -3325.000000)" stroke="#505070" stroke-width="2">
            <g id="new-rules-new-tools" transform="translate(241.000000, 3108.000000)">
                <g id="features" transform="translate(0.000000, 217.000000)">
                    <g id="feature" transform="translate(672.000000, 0.000000)">
                        <g id="video-builder-icon" transform="translate(0.000000, 1.000000)">
                            <g id="Group-24">
                                <path d="M50,4 L50,14 C50,16.209 48.209,18 46,18 L4,18 C1.791,18 0,16.209 0,14 L0,4 C0,1.791 1.791,0 4,0 L46,0 C48.209,0 50,1.791 50,4 Z" id="Stroke-4"></path>
                                <path d="M50,30 L50,22 C50,19.791 48.209,18 46,18 L4,18 C1.791,18 0,19.791 0,22 L0,32 C0,34.209 1.791,36 4,36 L18,36" id="Stroke-6"></path>
                                <path d="M18,36 L4,36 C1.791,36 0,37.791 0,40 L0,50 C0,52.209 1.791,54 4,54 L18,54" id="Stroke-8"></path>
                                <path d="M6,6 L6,12" id="Stroke-10"></path>
                                <path d="M6,24 L6,30" id="Stroke-12"></path>
                                <path d="M6,42 L6,48" id="Stroke-14"></path>
                                <path d="M47.793,42.7998 C51.221,42.7998 54,45.7548 54,49.3998" id="Stroke-16"></path>
                                <path d="M24,49.3999 C24,45.7549 26.779,42.7999 30.207,42.7999" id="Stroke-18"></path>
                                <path d="M32.2759,38.3999 C33.8689,38.3999 35.2529,39.3579 35.9439,40.7609" id="Stroke-20"></path>
                                <path d="M49.812,43.1641 C49.843,42.8641 49.862,42.5601 49.862,42.2501 C49.862,37.6941 46.388,34.0001 42.104,34.0001 C38.778,34.0001 35.949,36.2291 34.846,39.3551 C34.14,38.7591 33.248,38.4001 32.276,38.4001 C29.991,38.4001 28.138,40.3701 28.138,42.8001 C28.138,42.9271 28.146,43.0521 28.156,43.1771 C25.737,44.0781 24,46.5201 24,49.4001 C24,53.0451 26.779,56.0001 30.207,56.0001 L47.793,56.0001 C51.221,56.0001 54,53.0451 54,49.4001 C54,46.5071 52.248,44.0561 49.812,43.1641 Z" id="Stroke-22"></path>
                            </g>
                        </g>
                    </g>
                </g>
            </g>
        </g>
    </g>
</svg>