<?xml version="1.0" encoding="UTF-8" standalone="no"?>
<svg width="214px" height="48px" viewBox="0 0 214 48" version="1.1" xmlns="http://www.w3.org/2000/svg" xmlns:xlink="http://www.w3.org/1999/xlink">
    <!-- Generator: sketchtool 49.1 (51147) - http://www.bohemiancoding.com/sketch -->
    <title>93867238-695C-476A-92AD-B0AF2F2CD993</title>
    <desc>Created with sketchtool.</desc>
    <defs></defs>
    <g id="Page-1" stroke="none" stroke-width="1" fill="none" fill-rule="evenodd" opacity="0.5">
        <g id="homepage@2x" transform="translate(-331.000000, -878.000000)" fill="#3D4367">
            <g id="integrations" transform="translate(0.000000, 806.000000)">
                <g id="logos" transform="translate(73.000000, 64.000000)">
                    <g id="youtube" transform="translate(258.000000, 8.000000)">
                        <path d="M66.7763512,7.59182609 C68.1976244,12.9057391 68.1976244,24 68.1976244,24 C68.1976244,24 68.1976244,35.0937391 66.7763512,40.4076522 C65.9845512,43.3466087 63.6738732,45.6568696 60.744161,46.4373913 C55.4280878,47.858087 34.0990732,47.858087 34.0990732,47.858087 C34.0990732,47.858087 12.7804976,47.858087 7.45346341,46.4373913 C4.5133122,45.645913 2.20263415,43.3361739 1.42127317,40.4076522 C0,35.0937391 0,24 0,24 C0,24 0,12.9057391 1.42127317,7.59182609 C2.21307317,4.65286957 4.52427317,2.3426087 7.45346341,1.56208696 C12.7804976,0.141391304 34.0990732,0.141391304 34.0990732,0.141391304 C34.0990732,0.141391304 55.4280878,0.141391304 60.744161,1.56208696 C63.6843122,2.35356522 65.9955122,4.66382609 66.7763512,7.59182609 Z M27.285522,34.2266087 L45.0021122,24 L27.285522,13.7733913 L27.285522,34.2266087 Z" id="Combined-Shape"></path>
                        <path d="M106.549556,38.868 C106.918576,37.8918261 107.113785,36.297913 107.113785,34.0961739 L107.113785,24.7805217 C107.113785,22.6335652 106.929015,21.0714783 106.549556,20.073913 C106.180537,19.0873043 105.518702,18.5885217 104.575015,18.5885217 C103.663688,18.5885217 103.023254,19.0873043 102.643795,20.073913 C102.274776,21.0610435 102.079566,22.6335652 102.079566,24.7805217 L102.079566,34.0961739 C102.079566,36.3083478 102.253376,37.9027826 102.611434,38.868 C102.969493,39.8441739 103.620366,40.332 104.564054,40.332 C105.518702,40.332 106.169576,39.8441739 106.549556,38.868 Z M98.9875268,43.5526957 C97.6424585,42.6417391 96.6768488,41.232 96.1126195,39.3125217 C95.5483902,37.3930435 95.2555756,34.8443478 95.2555756,31.656 L95.2555756,27.3182609 C95.2555756,24.0975652 95.5807512,21.5165217 96.2321463,19.5641739 C96.8830195,17.6123478 97.9029122,16.1916522 99.2803415,15.302087 C100.658293,14.4130435 102.469985,13.9575652 104.715941,13.9575652 C106.929015,13.9575652 108.697385,14.4130435 110.032015,15.324 C111.366644,16.2349565 112.342693,17.6556522 112.961205,19.586087 C113.579717,21.5165217 113.883493,24.0975652 113.883493,27.3073043 L113.883493,31.6455652 C113.883493,34.833913 113.579717,37.3930435 112.983127,39.3234783 C112.386537,41.253913 111.409966,42.6746087 110.053937,43.5636522 C108.708346,44.4532174 106.874732,44.9086957 104.564054,44.9086957 C102.199093,44.9191304 100.333117,44.4636522 98.9875268,43.5526957 Z" id="Fill-19"></path>
                        <path d="M203.421615,19.152 C203.084956,19.5751304 202.857385,20.2690435 202.737859,21.2233043 C202.618854,22.178087 202.564571,23.642087 202.564571,25.5829565 L202.564571,27.7304348 L207.489702,27.7304348 L207.489702,25.5829565 C207.489702,23.6634783 207.42498,22.2104348 207.294493,21.2233043 C207.164527,20.2366957 206.925995,19.5318261 206.589337,19.1306087 C206.2532,18.7293913 205.721332,18.5233043 205.005737,18.5233043 C204.28962,18.5123478 203.757751,18.7293913 203.421615,19.152 Z M202.564571,31.7321739 L202.564571,33.2394783 C202.564571,35.1589565 202.618854,36.5906087 202.737859,37.5558261 C202.846424,38.510087 203.085478,39.2149565 203.443015,39.6485217 C203.801073,40.0826087 204.354341,40.310087 205.103341,40.310087 C206.112273,40.310087 206.806468,39.9198261 207.175488,39.1393043 C207.543985,38.3582609 207.750156,37.0570435 207.783039,35.2351304 L213.587137,35.5711304 C213.619498,35.8314783 213.630459,36.1893913 213.630459,36.6448696 C213.630459,39.410087 212.87102,41.4704348 211.363102,42.8368696 C209.855185,44.2033043 207.717795,44.8867826 204.951454,44.8867826 C201.631322,44.8867826 199.309683,43.845913 197.975054,41.7636522 C196.640946,39.6813913 195.979112,36.4711304 195.979112,32.1114783 L195.979112,26.8951304 C195.979112,22.4055652 196.673307,19.1415652 198.051259,17.0702609 C199.42921,15.0093913 201.794171,13.9794783 205.146663,13.9794783 C207.457341,13.9794783 209.225712,14.402087 210.462737,15.2478261 C211.699239,16.094087 212.567244,17.4062609 213.07719,19.1958261 C213.576176,20.9848696 213.836629,23.4573913 213.836629,26.6024348 L213.836629,31.7212174 L202.564571,31.7212174 L202.564571,31.7321739 Z" id="Fill-20"></path>
                        <path d="M82.6055659,31.1681739 L74.9459317,3.52486957 L81.6289951,3.52486957 L84.3086927,16.0507826 C84.9924488,19.1415652 85.4914341,21.765913 85.8166098,23.9457391 L86.0118195,23.9457391 C86.2399122,22.3841739 86.7388976,19.7702609 87.5202585,16.094087 L90.297561,3.51391304 L96.9806244,3.51391304 L89.2343463,31.1681739 L89.2343463,44.4313043 L82.6055659,44.4313043 L82.6055659,31.1681739" id="Fill-21"></path>
                        <path d="M135.61441,14.5429565 L135.61441,44.4203478 L130.35262,44.4203478 L129.766468,40.7655652 L129.625541,40.7655652 C128.193307,43.5313043 126.045478,44.9086957 123.191971,44.9086957 C121.206468,44.9086957 119.741873,44.2575652 118.798185,42.9563478 C117.854498,41.6551304 117.387873,39.6271304 117.387873,36.861913 L117.387873,14.5429565 L124.114259,14.5429565 L124.114259,36.482087 C124.114259,37.8161739 124.255185,38.7704348 124.548,39.3344348 C124.841337,39.8984348 125.329361,40.1911304 126.012595,40.1911304 C126.598746,40.1911304 127.162976,40.0173913 127.694322,39.6594783 C128.22619,39.3015652 128.627571,38.846087 128.888024,38.2930435 L128.888024,14.5429565 L135.61441,14.5429565" id="Fill-22"></path>
                        <path d="M170.136263,14.5429565 L170.136263,44.4203478 L164.874473,44.4203478 L164.288844,40.7655652 L164.147395,40.7655652 C162.715683,43.5313043 160.567332,44.9086957 157.713824,44.9086957 C155.728844,44.9086957 154.264249,44.2575652 153.320039,42.9563478 C152.376351,41.6551304 151.909727,39.6271304 151.909727,36.861913 L151.909727,14.5429565 L158.636112,14.5429565 L158.636112,36.482087 C158.636112,37.8161739 158.777039,38.7704348 159.070376,39.3344348 C159.36319,39.8984348 159.851215,40.1911304 160.534971,40.1911304 C161.1206,40.1911304 161.684829,40.0173913 162.216698,39.6594783 C162.748044,39.3015652 163.149424,38.846087 163.409878,38.2930435 L163.409878,14.5429565 L170.136263,14.5429565" id="Fill-23"></path>
                        <polyline id="Fill-24" points="153.90619 8.93634783 147.223127 8.93634783 147.223127 44.4203478 140.637668 44.4203478 140.637668 8.93634783 133.954605 8.93634783 133.954605 3.52486957 153.895229 3.52486957 153.895229 8.93634783 153.90619 8.93634783"></polyline>
                        <path d="M186.236371,31.5151304 C186.236371,33.6949565 186.149727,35.3973913 185.965478,36.633913 C185.791668,37.8704348 185.487893,38.7485217 185.06459,39.2692174 C184.64181,39.789913 184.07758,40.0502609 183.361463,40.0502609 C182.808195,40.0502609 182.298249,39.9198261 181.820663,39.6594783 C181.354561,39.3991304 180.96362,39.0088696 180.670805,38.4881739 L180.670805,21.5165217 C180.898898,20.7031304 181.289317,20.0415652 181.842585,19.5208696 C182.395854,19.0001739 182.992444,18.7403478 183.643317,18.7403478 C184.327073,18.7403478 184.85842,19.0111304 185.227439,19.5427826 C185.596459,20.073913 185.856912,20.9848696 186.0088,22.2427826 C186.149727,23.5116522 186.22541,25.3121739 186.22541,27.6542609 L186.22541,31.5151304 L186.236371,31.5151304 Z M192.409488,19.3257391 C191.997146,17.4386087 191.346273,16.0721739 190.434946,15.2264348 C189.52362,14.3806957 188.276156,13.9575652 186.681073,13.9575652 C185.444571,13.9575652 184.294712,14.3045217 183.220537,15.0093913 C182.146361,15.7033043 181.321678,16.6252174 180.736049,17.7641739 L180.681766,17.7641739 L180.681766,2.01756522 L174.193912,2.01756522 L174.193912,44.4313043 L179.748517,44.4313043 L180.432273,41.6008696 L180.5732,41.6008696 C181.094107,42.6093913 181.874946,43.4008696 182.916761,43.9867826 C183.958054,44.5721739 185.107912,44.8648696 186.377298,44.8648696 C188.655615,44.8648696 190.32638,43.8130435 191.400556,41.7203478 C192.474732,39.6271304 193.0066,36.3521739 193.0066,31.8949565 L193.0066,27.1664348 C193.017039,23.8262609 192.810868,21.2128696 192.409488,19.3257391 Z" id="Fill-25"></path>
                    </g>
                </g>
            </g>
        </g>
    </g>
</svg>